g Cuerpo_01
v 0.905 0.3021 0.05
v 0.905 0.3021 0
v 0.780239 0.299605 0
v 0.780239 0.299605 0.05
v 0.905 0.1925 0.05
v 0.905 0.1925 0
v 0.820051 0.1925 0.05
v 0.820051 0.1925 0
v 0.82 0.2 0
v 0.780239 0.199731 0
v 0.82 0.2 0.05
v 0.780239 0.199731 0.05
vn -0.019996 0.9998 -0
vn 1 0 -0
vn 0 -1 0
vn -0 -0 -1
vn 0 0 1
vn -0.999977 -0.00676442 0
vn 0.00676442 -0.999977 0
vn -1 0 0
vt 0.062393 0
vt 0.062393 -0.05
vt -0.062393 -0.05
vt -0.062393 0
vt -0 -0.00125
vt 0.05 -0.00125
vt 0.05 0.10835
vt 0 0.10835
vt -0 -0.0424746
vt 0.05 -0.0424746
vt 0.05 0.0424746
vt 0 0.0424746
vt 0.780239 0.299605
vt 0.905 0.3021
vt 0.82 0.2
vt 0.905 0.1925
vt 0.820051 0.1925
vt 0.780239 0.199731
vt 0.905 0.1925
vt 0.905 0.3021
vt 0.82 0.2
vt 0.780239 0.299605
vt 0.780239 0.199731
vt 0.820051 0.1925
vt -0.00375009 0
vt -0.00375009 -0.05
vt 0.00375009 -0.05
vt 0.00375009 0
vt -0.0198809 0
vt -0.0198809 -0.05
vt 0.0198809 -0.05
vt 0.0198809 0
vt 0 0.0156819
vt -0.05 0.0156819
vt -0.05 -0.0841918
vt 0 -0.0841918
f 1/1/1 2/2/1 3/3/1
f 3/3/1 4/4/1 1/1/1
f 5/5/2 6/6/2 2/7/2
f 2/7/2 1/8/2 5/5/2
f 7/9/3 8/10/3 6/11/3
f 6/11/3 5/12/3 7/9/3
f 3/13/4 2/14/4 9/15/4
f 6/16/4 8/17/4 9/15/4
f 9/15/4 2/14/4 6/16/4
f 9/15/4 10/18/4 3/13/4
f 5/19/5 1/20/5 11/21/5
f 4/22/5 12/23/5 11/21/5
f 11/21/5 1/20/5 4/22/5
f 11/21/5 7/24/5 5/19/5
f 11/25/6 9/26/6 8/27/6
f 8/27/6 7/28/6 11/25/6
f 12/29/7 10/30/7 9/31/7
f 9/31/7 11/32/7 12/29/7
f 4/33/8 3/34/8 10/35/8
f 10/35/8 12/36/8 4/33/8
g Cuerpo_05
v 1.20242 0.138275 0.05
v 1.20242 0.138275 0
v 1.1524 0.137254 0
v 1.1524 0.137254 0.05
v 1.20248 0.1325 0.05
v 1.20248 0.1325 0
v 1.2475 0.1325 0.05
v 1.2475 0.1325 0
v 1.25 0.01 0
v 1.155 0.01 0
v 1.155 0.01 0.05
v 1.25 0.01 0.05
vn -0.0204039 0.999792 0
vn 0.999952 0.00981146 -0
vn -0 1 -0
vn -0 -0 -1
vn 0 0 1
vn 0.999792 0.0204039 -0
vn 0 -1 0
vn -0.999792 -0.0204039 0
vt -0.0250142 0
vt -0.0250142 -0.05
vt 0.0250142 -0.05
vt 0.0250142 0
vt 0.00288753 0
vt 0.00288753 -0.05
vt -0.00288753 -0.05
vt -0.00288753 0
vt 0 0.0225112
vt 0.05 0.0225112
vt 0.05 -0.0225112
vt -0 -0.0225112
vt 1.25 0.01
vt 1.155 0.01
vt 1.20248 0.1325
vt 1.1524 0.137254
vt 1.20242 0.138275
vt 1.2475 0.1325
vt 1.1524 0.137254
vt 1.155 0.01
vt 1.20248 0.1325
vt 1.25 0.01
vt 1.2475 0.1325
vt 1.20242 0.138275
vt 0.0612628 0
vt 0.0612628 -0.05
vt -0.0612628 -0.05
vt -0.0612628 0
vt -0 -0.0475
vt 0.05 -0.0475
vt 0.05 0.0475
vt 0 0.0475
vt -0.0636402 0
vt -0.0636402 -0.05
vt 0.0636402 -0.05
vt 0.0636402 0
f 13/37/9 14/38/9 15/39/9
f 15/39/9 16/40/9 13/37/9
f 17/41/10 18/42/10 14/43/10
f 14/43/10 13/44/10 17/41/10
f 19/45/11 20/46/11 18/47/11
f 18/47/11 17/48/11 19/45/11
f 21/49/12 22/50/12 18/51/12
f 15/52/12 14/53/12 18/51/12
f 18/51/12 22/50/12 15/52/12
f 18/51/12 20/54/12 21/49/12
f 16/55/13 23/56/13 17/57/13
f 24/58/13 19/59/13 17/57/13
f 17/57/13 23/56/13 24/58/13
f 17/57/13 13/60/13 16/55/13
f 24/61/14 21/62/14 20/63/14
f 20/63/14 19/64/14 24/61/14
f 23/65/15 22/66/15 21/67/15
f 21/67/15 24/68/15 23/65/15
f 16/69/16 15/70/16 22/71/16
f 22/71/16 23/72/16 16/69/16
g Cuerpo_02
v 0.59 0.12 0.05
v 0.59 0.12 0
v 0.5475 0.12 0
v 0.5475 0.12 0.05
v 0.59 0.13 0.05
v 0.59 0.13 0
v 0.6725 0.13 0.05
v 0.6725 0.13 0
v 0.6725 0.01 0
v 0.5475 0.01 0
v 0.5475 0.01 0.05
v 0.6725 0.01 0.05
vn -0 1 -0
vn -1 -0 0
vn -0 -0 -1
vn 0 0 1
vn 1 3.70074e-15 -0
vn 0 -1 0
vn -1 0 0
vt 0 0.02125
vt 0.05 0.02125
vt 0.05 -0.02125
vt -0 -0.02125
vt 0 0.005
vt 0.05 0.005
vt 0.05 -0.005
vt -0 -0.005
vt 0.04125 0
vt 0.04125 -0.05
vt -0.04125 -0.05
vt -0.04125 0
vt 0.6725 0.13
vt 0.6725 0.01
vt 0.59 0.12
vt 0.5475 0.01
vt 0.5475 0.12
vt 0.59 0.13
vt 0.5475 0.01
vt 0.6725 0.01
vt 0.59 0.12
vt 0.6725 0.13
vt 0.59 0.13
vt 0.5475 0.12
vt 0.06 0
vt 0.06 -0.05
vt -0.06 -0.05
vt -0.06 0
vt -0 -0.01375
vt 0.05 -0.01375
vt 0.05 0.11125
vt 0 0.11125
vt 0 0.000969388
vt -0.05 0.000969388
vt -0.05 -0.109031
vt 0 -0.109031
f 25/73/17 26/74/17 27/75/17
f 27/75/17 28/76/17 25/73/17
f 29/77/18 30/78/18 26/79/18
f 26/79/18 25/80/18 29/77/18
f 31/81/17 32/82/17 30/83/17
f 30/83/17 29/84/17 31/81/17
f 32/85/19 33/86/19 26/87/19
f 34/88/19 27/89/19 26/87/19
f 26/87/19 33/86/19 34/88/19
f 26/87/19 30/90/19 32/85/19
f 35/91/20 36/92/20 25/93/20
f 31/94/20 29/95/20 25/93/20
f 25/93/20 36/92/20 31/94/20
f 25/93/20 28/96/20 35/91/20
f 36/97/21 33/98/21 32/99/21
f 32/99/21 31/100/21 36/97/21
f 35/101/22 34/102/22 33/103/22
f 33/103/22 36/104/22 35/101/22
f 28/105/23 27/106/23 34/107/23
f 34/107/23 35/108/23 28/105/23
g Cuerpo_06
v 0.2275 0.13 0.05
v 0.2275 0.13 0
v 0.2275 0.01 0
v 0.2275 0.01 0.05
v 0.275 0.13 0.05
v 0.275 0.13 0
v 0.275 0.12 0.05
v 0.275 0.12 0
v 0.32 0.01 0
v 0.32 0.12 0
v 0.32 0.01 0.05
v 0.32 0.12 0.05
vn -1 -9.25186e-16 0
vn -0 1 -0
vn 1 -0 -0
vn -0 -0 -1
vn 0 0 1
vn -6.16791e-16 1 -0
vn 1 -0 -0
vn 0 -1 0
vt 0.06 0
vt 0.06 -0.05
vt -0.06 -0.05
vt -0.06 0
vt 0 0.02375
vt 0.05 0.02375
vt 0.05 -0.02375
vt -0 -0.02375
vt 0 -0.005
vt -0.05 -0.005
vt -0.05 0.005
vt 0 0.005
vt 0.32 0.01
vt 0.2275 0.01
vt 0.275 0.12
vt 0.2275 0.13
vt 0.275 0.13
vt 0.32 0.12
vt 0.2275 0.13
vt 0.2275 0.01
vt 0.275 0.12
vt 0.32 0.01
vt 0.32 0.12
vt 0.275 0.13
vt 0.0225 0
vt 0.0225 -0.05
vt -0.0225 -0.05
vt -0.0225 0
vt 0 -0.055
vt -0.05 -0.055
vt -0.05 0.055
vt 0 0.055
vt -0 -0.04625
vt 0.05 -0.04625
vt 0.05 0.04625
vt 0 0.04625
f 37/109/24 38/110/24 39/111/24
f 39/111/24 40/112/24 37/109/24
f 41/113/25 42/114/25 38/115/25
f 38/115/25 37/116/25 41/113/25
f 43/117/26 44/118/26 42/119/26
f 42/119/26 41/120/26 43/117/26
f 45/121/27 39/122/27 44/123/27
f 38/124/27 42/125/27 44/123/27
f 44/123/27 39/122/27 38/124/27
f 44/123/27 46/126/27 45/121/27
f 37/127/28 40/128/28 43/129/28
f 47/130/28 48/131/28 43/129/28
f 43/129/28 40/128/28 47/130/28
f 43/129/28 41/132/28 37/127/28
f 48/133/29 46/134/29 44/135/29
f 44/135/29 43/136/29 48/133/29
f 47/137/30 45/138/30 46/139/30
f 46/139/30 48/140/30 47/137/30
f 40/141/31 39/142/31 45/143/31
f 45/143/31 47/144/31 40/141/31
g Cuerpo_11
v 0.275966 0.200397 0.05
v 0.275966 0.200397 0
v 0.315 0.200397 0
v 0.315 0.200397 0.05
v 0.275966 0.192684 0.05
v 0.275966 0.192684 0
v 0.227828 0.192684 0.05
v 0.227828 0.192684 0
v 0.227828 0.288557 0
v 0.315 0.2903 0
v 0.315 0.2903 0.05
v 0.227828 0.288557 0.05
vn 0 -1 0
vn 1 0 -0
vn -0 -0 -1
vn 0 0 1
vn -1 0 0
vn -0.019996 0.9998 -0
vn 1 0 -0
vt -0 -0.019517
vt 0.05 -0.019517
vt 0.05 0.019517
vt 0 0.019517
vt -0 -0.00385616
vt 0.05 -0.00385616
vt 0.05 0.00385616
vt 0 0.00385616
vt -0 -0.024069
vt 0.05 -0.024069
vt 0.05 0.024069
vt 0 0.024069
vt 0.227828 0.192684
vt 0.227828 0.288557
vt 0.275966 0.200397
vt 0.315 0.2903
vt 0.315 0.200397
vt 0.275966 0.192684
vt 0.315 0.2903
vt 0.227828 0.288557
vt 0.275966 0.200397
vt 0.227828 0.192684
vt 0.275966 0.192684
vt 0.315 0.200397
vt 0 0.0479361
vt -0.05 0.0479361
vt -0.05 -0.0479361
vt 0 -0.0479361
vt 0.0435947 0
vt 0.0435947 -0.05
vt -0.0435947 -0.05
vt -0.0435947 0
vt -0 -0.0023017
vt 0.05 -0.0023017
vt 0.05 0.0876017
vt 0 0.0876017
f 49/145/32 50/146/32 51/147/32
f 51/147/32 52/148/32 49/145/32
f 53/149/33 54/150/33 50/151/33
f 50/151/33 49/152/33 53/149/33
f 55/153/32 56/154/32 54/155/32
f 54/155/32 53/156/32 55/153/32
f 56/157/34 57/158/34 50/159/34
f 58/160/34 51/161/34 50/159/34
f 50/159/34 57/158/34 58/160/34
f 50/159/34 54/162/34 56/157/34
f 59/163/35 60/164/35 49/165/35
f 55/166/35 53/167/35 49/165/35
f 49/165/35 60/164/35 55/166/35
f 49/165/35 52/168/35 59/163/35
f 60/169/36 57/170/36 56/171/36
f 56/171/36 55/172/36 60/169/36
f 59/173/37 58/174/37 57/175/37
f 57/175/37 60/176/37 59/173/37
f 52/177/38 51/178/38 58/179/38
f 58/179/38 59/180/38 52/177/38
g Cuerpo_04
v 0.9175 0.01 0.05
v 0.9175 0.01 0
v 1.01 0.01 0
v 1.01 0.01 0.05
v 0.915 0.1325 0.05
v 0.915 0.1325 0
v 0.965 0.1325 0.05
v 0.965 0.1325 0
v 0.965 0.125 0
v 1.01 0.125 0
v 0.965 0.125 0.05
v 1.01 0.125 0.05
vn 0 -1 0
vn -0.999792 -0.0204039 0
vn -2.22045e-15 1 0
vn -0 -0 -1
vn 0 0 1
vn 1 -0 -0
vn -0 1 -0
vt -0 -0.04625
vt 0.05 -0.04625
vt 0.05 0.04625
vt 0 0.04625
vt -0.0612628 0
vt -0.0612628 -0.05
vt 0.0612628 -0.05
vt 0.0612628 0
vt -0.025 0
vt -0.025 -0.05
vt 0.025 -0.05
vt 0.025 0
vt 1.01 0.01
vt 0.9175 0.01
vt 0.965 0.125
vt 0.915 0.1325
vt 0.965 0.1325
vt 1.01 0.125
vt 0.915 0.1325
vt 0.9175 0.01
vt 0.965 0.125
vt 1.01 0.01
vt 1.01 0.125
vt 0.965 0.1325
vt 0 -0.00375
vt -0.05 -0.00375
vt -0.05 0.00375
vt 0 0.00375
vt 0 0.0225
vt 0.05 0.0225
vt 0.05 -0.0225
vt -0 -0.0225
vt -0 -0.05625
vt 0.05 -0.05625
vt 0.05 0.05875
vt 0 0.05875
f 61/181/39 62/182/39 63/183/39
f 63/183/39 64/184/39 61/181/39
f 65/185/40 66/186/40 62/187/40
f 62/187/40 61/188/40 65/185/40
f 67/189/41 68/190/41 66/191/41
f 66/191/41 65/192/41 67/189/41
f 63/193/42 62/194/42 69/195/42
f 66/196/42 68/197/42 69/195/42
f 69/195/42 62/194/42 66/196/42
f 69/195/42 70/198/42 63/193/42
f 65/199/43 61/200/43 71/201/43
f 64/202/43 72/203/43 71/201/43
f 71/201/43 61/200/43 64/202/43
f 71/201/43 67/204/43 65/199/43
f 71/205/44 69/206/44 68/207/44
f 68/207/44 67/208/44 71/205/44
f 72/209/45 70/210/45 69/211/45
f 69/211/45 71/212/45 72/209/45
f 64/213/44 63/214/44 70/215/44
f 70/215/44 72/216/44 64/213/44
g Cuerpo_03
v 0.675 0.2975 0.05
v 0.675 0.2975 0
v 0.547559 0.294951 0
v 0.547559 0.294951 0.05
v 0.675 0.189962 0.05
v 0.675 0.189962 0
v 0.589998 0.189962 0.05
v 0.589998 0.189962 0
v 0.589995 0.200467 0
v 0.547559 0.200454 0
v 0.589995 0.200467 0.05
v 0.547559 0.200454 0.05
vn -0.019996 0.9998 -0
vn 1 0 -0
vn 0 -1 0
vn -0 -0 -1
vn 0 0 1
vn -1 -0.00031133 0
vn 0.00031133 -1 0
vn -1 0 0
vt 0.0637332 0
vt 0.0637332 -0.05
vt -0.0637332 -0.05
vt -0.0637332 0
vt -0 -0.053769
vt 0.05 -0.053769
vt 0.05 0.053769
vt 0 0.053769
vt -0 -0.0425008
vt 0.05 -0.0425008
vt 0.05 0.0425008
vt 0 0.0425008
vt 0.547559 0.294951
vt 0.675 0.2975
vt 0.589995 0.200467
vt 0.675 0.189962
vt 0.589998 0.189962
vt 0.547559 0.200454
vt 0.675 0.189962
vt 0.675 0.2975
vt 0.589995 0.200467
vt 0.547559 0.294951
vt 0.547559 0.200454
vt 0.589998 0.189962
vt -0.0052524 0
vt -0.0052524 -0.05
vt 0.0052524 -0.05
vt 0.0052524 0
vt -0.0212181 0
vt -0.0212181 -0.05
vt 0.0212181 -0.05
vt 0.0212181 0
vt 0 0.0293172
vt -0.05 0.0293172
vt -0.05 -0.0651804
vt 0 -0.0651804
f 73/217/46 74/218/46 75/219/46
f 75/219/46 76/220/46 73/217/46
f 77/221/47 78/222/47 74/223/47
f 74/223/47 73/224/47 77/221/47
f 79/225/48 80/226/48 78/227/48
f 78/227/48 77/228/48 79/225/48
f 75/229/49 74/230/49 81/231/49
f 78/232/49 80/233/49 81/231/49
f 81/231/49 74/230/49 78/232/49
f 81/231/49 82/234/49 75/229/49
f 77/235/50 73/236/50 83/237/50
f 76/238/50 84/239/50 83/237/50
f 83/237/50 73/236/50 76/238/50
f 83/237/50 79/240/50 77/235/50
f 83/241/51 81/242/51 80/243/51
f 80/243/51 79/244/51 83/241/51
f 84/245/52 82/246/52 81/247/52
f 81/247/52 83/248/52 84/245/52
f 76/249/53 75/250/53 82/251/53
f 82/251/53 84/252/53 76/249/53
g Cuerpo_08
v 0.4525 0.13 0.05
v 0.4525 0.13 0
v 0.4525 0.01 0
v 0.4525 0.01 0.05
v 0.5 0.13 0.05
v 0.5 0.13 0
v 0.5 0.12 0.05
v 0.5 0.12 0
v 0.545 0.01 0
v 0.545 0.12 0
v 0.545 0.01 0.05
v 0.545 0.12 0.05
vn -1 -3.70074e-15 0
vn 2.33731e-15 1 -0
vn 1 -1.66533e-14 -0
vn -0 -0 -1
vn 0 0 1
vn -0 1 -0
vn 1 -0 -0
vn 0 -1 0
vt 0.06 0
vt 0.06 -0.05
vt -0.06 -0.05
vt -0.06 0
vt 0.02375 0
vt 0.02375 -0.05
vt -0.02375 -0.05
vt -0.02375 0
vt 0.005 0
vt 0.005 -0.05
vt -0.005 -0.05
vt -0.005 0
vt 0.545 0.01
vt 0.4525 0.01
vt 0.5 0.12
vt 0.4525 0.13
vt 0.5 0.13
vt 0.545 0.12
vt 0.4525 0.13
vt 0.4525 0.01
vt 0.5 0.12
vt 0.545 0.01
vt 0.545 0.12
vt 0.5 0.13
vt 0 0.0225
vt 0.05 0.0225
vt 0.05 -0.0225
vt 0 -0.0225
vt 0 -0.0540051
vt -0.05 -0.0540051
vt -0.05 0.0559949
vt 0 0.0559949
vt -0 -0.04625
vt 0.05 -0.04625
vt 0.05 0.04625
vt 0 0.04625
f 85/253/54 86/254/54 87/255/54
f 87/255/54 88/256/54 85/253/54
f 89/257/55 90/258/55 86/259/55
f 86/259/55 85/260/55 89/257/55
f 91/261/56 92/262/56 90/263/56
f 90/263/56 89/264/56 91/261/56
f 93/265/57 87/266/57 92/267/57
f 86/268/57 90/269/57 92/267/57
f 92/267/57 87/266/57 86/268/57
f 92/267/57 94/270/57 93/265/57
f 85/271/58 88/272/58 91/273/58
f 95/274/58 96/275/58 91/273/58
f 91/273/58 88/272/58 95/274/58
f 91/273/58 89/276/58 85/271/58
f 96/277/59 94/278/59 92/279/59
f 92/279/59 91/280/59 96/277/59
f 95/281/60 93/282/60 94/283/60
f 94/283/60 96/284/60 95/281/60
f 88/285/61 87/286/61 93/287/61
f 93/287/61 95/288/61 88/285/61
g Cuerpo_07
v 0.499939 0.189531 0.05
v 0.499939 0.189531 0
v 0.499936 0.200439 0
v 0.499936 0.200439 0.05
v 0.452718 0.189531 0.05
v 0.452718 0.189531 0
v 0.452718 0.293054 0.05
v 0.452718 0.293054 0
v 0.544936 0.294899 0
v 0.544966 0.200453 0
v 0.544936 0.294899 0.05
v 0.544966 0.200453 0.05
vn 1 0.00031133 -0
vn 0 -1 0
vn -1 0 0
vn -0 -0 -1
vn 0 0 1
vn -0.019996 0.9998 -0
vn 1 0.00031133 -0
vn 0.00031133 -1 0
vt -0.00545402 0
vt -0.00545402 -0.05
vt 0.00545402 -0.05
vt 0.00545402 0
vt -0 -0.0236108
vt 0.05 -0.0236108
vt 0.05 0.0236108
vt 0 0.0236108
vt 0 0.0517618
vt -0.05 0.0517618
vt -0.05 -0.0517618
vt 0 -0.0517618
vt 0.452718 0.189531
vt 0.452718 0.293054
vt 0.499936 0.200439
vt 0.544936 0.294899
vt 0.544966 0.200453
vt 0.499939 0.189531
vt 0.544936 0.294899
vt 0.452718 0.293054
vt 0.499936 0.200439
vt 0.452718 0.189531
vt 0.499939 0.189531
vt 0.544966 0.200453
vt 0.0461184 0
vt 0.0461184 -0.05
vt -0.0461184 -0.05
vt -0.0461184 0
vt 0.0472229 0
vt 0.0472229 -0.05
vt -0.0472229 -0.05
vt -0.0472229 0
vt -0.0225148 0
vt -0.0225148 -0.05
vt 0.0225148 -0.05
vt 0.0225148 0
f 97/289/62 98/290/62 99/291/62
f 99/291/62 100/292/62 97/289/62
f 101/293/63 102/294/63 98/295/63
f 98/295/63 97/296/63 101/293/63
f 103/297/64 104/298/64 102/299/64
f 102/299/64 101/300/64 103/297/64
f 102/301/65 104/302/65 99/303/65
f 105/304/65 106/305/65 99/303/65
f 99/303/65 104/302/65 105/304/65
f 99/303/65 98/306/65 102/301/65
f 107/307/66 103/308/66 100/309/66
f 101/310/66 97/311/66 100/309/66
f 100/309/66 103/308/66 101/310/66
f 100/309/66 108/312/66 107/307/66
f 107/313/67 105/314/67 104/315/67
f 104/315/67 103/316/67 107/313/67
f 108/317/68 106/318/68 105/319/68
f 105/319/68 107/320/68 108/317/68
f 100/321/69 99/322/69 106/323/69
f 106/323/69 108/324/69 100/321/69
g Cuerpo_10
v 0.218449 0.288369 0.05
v 0.218449 0.288369 0
v 0.135139 0.286703 0
v 0.135139 0.286703 0.05
v 0.218449 0.184972 0.05
v 0.218449 0.184972 0
v 0.182657 0.184972 0.05
v 0.182657 0.184972 0
v 0.182657 0.21634 0
v 0.135139 0.21634 0
v 0.182657 0.21634 0.05
v 0.135139 0.21634 0.05
vn -0.019996 0.9998 -0
vn 1 -0 -0
vn 0 -1 0
vn -0 -0 -1
vn 0 0 1
vn -1 0 0
vn 0 -1 0
vt 0.0416635 0
vt 0.0416635 -0.05
vt -0.0416635 -0.05
vt -0.0416635 0
vt 0 -0.0516985
vt -0.05 -0.0516985
vt -0.05 0.0516985
vt 0 0.0516985
vt -0 -0.0178961
vt 0.05 -0.0178961
vt 0.05 0.0178961
vt 0 0.0178961
vt 0.135139 0.286703
vt 0.218449 0.288369
vt 0.182657 0.21634
vt 0.218449 0.184972
vt 0.182657 0.184972
vt 0.135139 0.21634
vt 0.218449 0.184972
vt 0.218449 0.288369
vt 0.182657 0.21634
vt 0.135139 0.286703
vt 0.135139 0.21634
vt 0.182657 0.184972
vt 0 0.0156839
vt -0.05 0.0156839
vt -0.05 -0.0156839
vt 0 -0.0156839
vt -0 -0.023759
vt 0.05 -0.023759
vt 0.05 0.023759
vt 0 0.023759
vt 0 0.0351815
vt -0.05 0.0351815
vt -0.05 -0.0351815
vt 0 -0.0351815
f 109/325/70 110/326/70 111/327/70
f 111/327/70 112/328/70 109/325/70
f 113/329/71 114/330/71 110/331/71
f 110/331/71 109/332/71 113/329/71
f 115/333/72 116/334/72 114/335/72
f 114/335/72 113/336/72 115/333/72
f 111/337/73 110/338/73 117/339/73
f 114/340/73 116/341/73 117/339/73
f 117/339/73 110/338/73 114/340/73
f 117/339/73 118/342/73 111/337/73
f 113/343/74 109/344/74 119/345/74
f 112/346/74 120/347/74 119/345/74
f 119/345/74 109/344/74 112/346/74
f 119/345/74 115/348/74 113/343/74
f 119/349/75 117/350/75 116/351/75
f 116/351/75 115/352/75 119/349/75
f 120/353/76 118/354/76 117/355/76
f 117/355/76 119/356/76 120/353/76
f 112/357/75 111/358/75 118/359/75
f 118/359/75 120/360/75 112/357/75
g Cuerpo_09
v 0.128941 0.200656 0.05
v 0.128941 0.200656 0
v 0.128941 0.21634 0
v 0.128941 0.21634 0.05
v 0.05 0.200656 0.05
v 0.05 0.200656 0
v 0.05 0.285 0.05
v 0.05 0.285 0
v 0.132384 0.286648 0
v 0.132384 0.21634 0
v 0.132384 0.286648 0.05
v 0.132384 0.21634 0.05
vn 1 0 -0
vn 0 -1 0
vn -1 -1.80991e-15 0
vn -0 -0 -1
vn 0 0 1
vn -0.019996 0.9998 -0
vn 1 -0 -0
vn 0 -1 0
vt -0 -0.00784195
vt 0.05 -0.00784195
vt 0.05 0.00784195
vt 0 0.00784195
vt -0 -0.00885183
vt 0.05 -0.00885183
vt 0.05 0.0700887
vt 0 0.0700887
vt -0.0421721 0
vt -0.0421721 -0.05
vt 0.0421721 -0.05
vt 0.0421721 0
vt 0.05 0.200656
vt 0.05 0.285
vt 0.128941 0.21634
vt 0.132384 0.286648
vt 0.132384 0.21634
vt 0.128941 0.200656
vt 0.132384 0.286648
vt 0.05 0.285
vt 0.128941 0.21634
vt 0.05 0.200656
vt 0.128941 0.200656
vt 0.132384 0.21634
vt 0.0412001 0
vt 0.0412001 -0.05
vt -0.0412001 -0.05
vt -0.0412001 0
vt 0 -0.035154
vt -0.05 -0.035154
vt -0.05 0.035154
vt 0 0.035154
vt -0 -0.00172159
vt 0.05 -0.00172159
vt 0.05 0.00172159
vt 0 0.00172159
f 121/361/77 122/362/77 123/363/77
f 123/363/77 124/364/77 121/361/77
f 125/365/78 126/366/78 122/367/78
f 122/367/78 121/368/78 125/365/78
f 127/369/79 128/370/79 126/371/79
f 126/371/79 125/372/79 127/369/79
f 126/373/80 128/374/80 123/375/80
f 129/376/80 130/377/80 123/375/80
f 123/375/80 128/374/80 129/376/80
f 123/375/80 122/378/80 126/373/80
f 131/379/81 127/380/81 124/381/81
f 125/382/81 121/383/81 124/381/81
f 124/381/81 127/380/81 125/382/81
f 124/381/81 132/384/81 131/379/81
f 131/385/82 129/386/82 128/387/82
f 128/387/82 127/388/82 131/385/82
f 132/389/83 130/390/83 129/391/83
f 129/391/83 131/392/83 132/389/83
f 124/393/84 123/394/84 130/395/84
f 130/395/84 132/396/84 124/393/84
g Cuerpo_12
v 0.442899 0.292858 0.05
v 0.442899 0.292858 0
v 0.320154 0.290403 0
v 0.320154 0.290403 0.05
v 0.442899 0.189707 0.05
v 0.442899 0.189707 0
v 0.364343 0.189707 0.05
v 0.364343 0.189707 0
v 0.364343 0.200397 0
v 0.320154 0.200397 0
v 0.364343 0.200397 0.05
v 0.320154 0.200397 0.05
vn -0.019996 0.9998 -0
vn 1 0 -0
vn 0 -1 0
vn -0 -0 -1
vn 0 0 1
vn -1 0 0
vn 0 -1 0
vt 0.0613847 0
vt 0.0613847 -0.05
vt -0.0613847 -0.05
vt -0.0613847 0
vt -0 -0.0515754
vt 0.05 -0.0515754
vt 0.05 0.0515754
vt 0 0.0515754
vt -0 -0.0392783
vt 0.05 -0.0392783
vt 0.05 0.0392783
vt 0 0.0392783
vt 0.320154 0.290403
vt 0.442899 0.292858
vt 0.364343 0.200397
vt 0.442899 0.189707
vt 0.364343 0.189707
vt 0.320154 0.200397
vt 0.442899 0.189707
vt 0.442899 0.292858
vt 0.364343 0.200397
vt 0.320154 0.290403
vt 0.320154 0.200397
vt 0.364343 0.189707
vt 0 0.00534476
vt -0.05 0.00534476
vt -0.05 -0.00534476
vt 0 -0.00534476
vt -0 -0.0220942
vt 0.05 -0.0220942
vt 0.05 0.0220942
vt 0 0.0220942
vt 0 0.0450032
vt -0.05 0.0450032
vt -0.05 -0.0450032
vt 0 -0.0450032
f 133/397/85 134/398/85 135/399/85
f 135/399/85 136/400/85 133/397/85
f 137/401/86 138/402/86 134/403/86
f 134/403/86 133/404/86 137/401/86
f 139/405/87 140/406/87 138/407/87
f 138/407/87 137/408/87 139/405/87
f 135/409/88 134/410/88 141/411/88
f 138/412/88 140/413/88 141/411/88
f 141/411/88 134/410/88 138/412/88
f 141/411/88 142/414/88 135/409/88
f 137/415/89 133/416/89 143/417/89
f 136/418/89 144/419/89 143/417/89
f 143/417/89 133/416/89 136/418/89
f 143/417/89 139/420/89 137/415/89
f 143/421/90 141/422/90 140/423/90
f 140/423/90 139/424/90 143/421/90
f 144/425/91 142/426/91 141/427/91
f 141/427/91 143/428/91 144/425/91
f 136/429/90 135/430/90 142/431/90
f 142/431/90 144/432/90 136/429/90
g Cuerpo_13
v 0.6825 0.13 0.05
v 0.6825 0.13 0
v 0.6825 0.01 0
v 0.6825 0.01 0.05
v 0.73 0.13 0.05
v 0.73 0.13 0
v 0.73 0.12 0.05
v 0.73 0.12 0
v 0.7775 0.01 0
v 0.7775 0.12 0
v 0.7775 0.01 0.05
v 0.7775 0.12 0.05
vn -1 -3.70074e-15 0
vn -2.33731e-15 1 -0
vn 1 -8.88178e-14 0
vn -0 -0 -1
vn 0 0 1
vn 5.84328e-15 1 -0
vn 1 4.03717e-15 -0
vn 0 -1 0
vt -0.06 0
vt -0.06 -0.05
vt 0.06 -0.05
vt 0.06 0
vt 0.02375 0
vt 0.02375 -0.05
vt -0.02375 -0.05
vt -0.02375 0
vt -0.005 0
vt -0.005 -0.05
vt 0.005 -0.05
vt 0.005 0
vt 0.7775 0.01
vt 0.6825 0.01
vt 0.73 0.12
vt 0.6825 0.13
vt 0.73 0.13
vt 0.7775 0.12
vt 0.6825 0.13
vt 0.6825 0.01
vt 0.73 0.12
vt 0.7775 0.01
vt 0.7775 0.12
vt 0.73 0.13
vt 0.02375 0
vt 0.02375 -0.05
vt -0.02375 -0.05
vt -0.02375 0
vt 0.055 0
vt 0.055 -0.05
vt -0.055 -0.05
vt -0.055 0
vt -0 -0.0475
vt 0.05 -0.0475
vt 0.05 0.0475
vt 0 0.0475
f 145/433/92 146/434/92 147/435/92
f 147/435/92 148/436/92 145/433/92
f 149/437/93 150/438/93 146/439/93
f 146/439/93 145/440/93 149/437/93
f 151/441/94 152/442/94 150/443/94
f 150/443/94 149/444/94 151/441/94
f 153/445/95 147/446/95 152/447/95
f 146/448/95 150/449/95 152/447/95
f 152/447/95 147/446/95 146/448/95
f 152/447/95 154/450/95 153/445/95
f 145/451/96 148/452/96 151/453/96
f 155/454/96 156/455/96 151/453/96
f 151/453/96 148/452/96 155/454/96
f 151/453/96 149/456/96 145/451/96
f 156/457/97 154/458/97 152/459/97
f 152/459/97 151/460/97 156/457/97
f 155/461/98 153/462/98 154/463/98
f 154/463/98 156/464/98 155/461/98
f 148/465/99 147/466/99 153/467/99
f 153/467/99 155/468/99 148/465/99
g Cuerpo_14
v 1.145 0.3069 0.05
v 1.145 0.3069 0
v 1.01 0.3042 0
v 1.01 0.3042 0.05
v 1.145 0.19 0.05
v 1.145 0.19 0
v 1.06 0.19 0.05
v 1.06 0.19 0
v 1.06 0.2 0
v 1.01 0.2 0
v 1.06 0.2 0.05
v 1.01 0.2 0.05
vn -0.019996 0.9998 -0
vn 1 -0 -0
vn 0 -1 0
vn -0 -0 -1
vn 0 0 1
vn -1 0 0
vn 0 -1 0
vt 0.0675135 0
vt 0.0675135 -0.05
vt -0.0675135 -0.05
vt -0.0675135 0
vt 0 -0.05845
vt -0.05 -0.05845
vt -0.05 0.05845
vt 0 0.05845
vt -0 -0.0425
vt 0.05 -0.0425
vt 0.05 0.0425
vt 0 0.0425
vt 1.01 0.3042
vt 1.145 0.3069
vt 1.06 0.2
vt 1.145 0.19
vt 1.06 0.19
vt 1.01 0.2
vt 1.145 0.19
vt 1.145 0.3069
vt 1.06 0.2
vt 1.01 0.3042
vt 1.01 0.2
vt 1.06 0.19
vt 0 0.005
vt -0.05 0.005
vt -0.05 -0.005
vt 0 -0.005
vt -0 -0.025
vt 0.05 -0.025
vt 0.05 0.025
vt 0 0.025
vt 0 0.0521
vt -0.05 0.0521
vt -0.05 -0.0521
vt 0 -0.0521
f 157/469/100 158/470/100 159/471/100
f 159/471/100 160/472/100 157/469/100
f 161/473/101 162/474/101 158/475/101
f 158/475/101 157/476/101 161/473/101
f 163/477/102 164/478/102 162/479/102
f 162/479/102 161/480/102 163/477/102
f 159/481/103 158/482/103 165/483/103
f 162/484/103 164/485/103 165/483/103
f 165/483/103 158/482/103 162/484/103
f 165/483/103 166/486/103 159/481/103
f 161/487/104 157/488/104 167/489/104
f 160/490/104 168/491/104 167/489/104
f 167/489/104 157/488/104 160/490/104
f 167/489/104 163/492/104 161/487/104
f 167/493/105 165/494/105 164/495/105
f 164/495/105 163/496/105 167/493/105
f 168/497/106 166/498/106 165/499/106
f 165/499/106 167/500/106 168/497/106
f 160/501/105 159/502/105 166/503/105
f 166/503/105 168/504/105 160/501/105
g Cuerpo_15
v 1.245 0.22 0.05
v 1.245 0.22 0
v 1.24722 0.22 0
v 1.24722 0.22 0.05
v 1.245 0.205 0.05
v 1.245 0.205 0
v 1.2025 0.205 0.05
v 1.2025 0.205 0
v 1.2025 0.19 0.05
v 1.2025 0.19 0
v 1.15 0.19 0.05
v 1.15 0.19 0
v 1.15 0.307 0.05
v 1.15 0.307 0
v 1.247 0.2635 0
v 1.247 0.30894 0
v 1.247 0.2635 0.05
v 1.247 0.30894 0.05
vn 0 -1 0
vn 1 0 -0
vn -1 0 0
vn -0 -0 -1
vn 0 0 1
vn -0.019996 0.9998 -0
vn 1 -0 -0
vn 0.999987 0.00511371 -0
vt -0 -0.00111122
vt 0.05 -0.00111122
vt 0.05 0.00111122
vt 0 0.00111122
vt -0 -0.0075
vt 0.05 -0.0075
vt 0.05 0.0075
vt 0 0.0075
vt -0 -0.00125
vt 0.05 -0.00125
vt 0.05 0.04125
vt 0 0.04125
vt -0 -0.0075
vt 0.05 -0.0075
vt 0.05 0.0075
vt 0 0.0075
vt 0 -0.02625
vt -0.05 -0.02625
vt -0.05 0.02625
vt 0 0.02625
vt 0 0.0585
vt -0.05 0.0585
vt -0.05 -0.0585
vt 0 -0.0585
vt 1.15 0.19
vt 1.15 0.307
vt 1.2025 0.205
vt 1.245 0.22
vt 1.247 0.2635
vt 1.24722 0.22
vt 1.245 0.205
vt 1.247 0.30894
vt 1.2025 0.19
vt 1.247 0.2635
vt 1.15 0.307
vt 1.245 0.22
vt 1.24722 0.22
vt 1.2025 0.205
vt 1.245 0.205
vt 1.15 0.19
vt 1.2025 0.19
vt 1.247 0.30894
vt 0.0485097 0
vt 0.0485097 -0.05
vt -0.0485097 -0.05
vt -0.0485097 0
vt 0 -0.02272
vt -0.05 -0.02272
vt -0.05 0.02272
vt 0 0.02272
vt 0.0217503 0
vt 0.0217503 -0.05
vt -0.0217503 -0.05
vt -0.0217503 0
f 169/505/107 170/506/107 171/507/107
f 171/507/107 172/508/107 169/505/107
f 173/509/108 174/510/108 170/511/108
f 170/511/108 169/512/108 173/509/108
f 175/513/107 176/514/107 174/515/107
f 174/515/107 173/516/107 175/513/107
f 177/517/108 178/518/108 176/519/108
f 176/519/108 175/520/108 177/517/108
f 179/521/107 180/522/107 178/523/107
f 178/523/107 177/524/107 179/521/107
f 181/525/109 182/526/109 180/527/109
f 180/527/109 179/528/109 181/525/109
f 180/529/110 182/530/110 176/531/110
f 176/531/110 182/530/110 170/532/110
f 183/533/110 171/534/110 170/532/110
f 170/532/110 174/535/110 176/531/110
f 182/530/110 184/536/110 183/533/110
f 170/532/110 182/530/110 183/533/110
f 176/531/110 178/537/110 180/529/110
f 185/538/111 181/539/111 169/540/111
f 169/540/111 172/541/111 185/538/111
f 175/542/111 173/543/111 169/540/111
f 169/540/111 181/539/111 175/542/111
f 179/544/111 177/545/111 175/542/111
f 175/542/111 181/539/111 179/544/111
f 185/538/111 186/546/111 181/539/111
f 186/547/112 184/548/112 182/549/112
f 182/549/112 181/550/112 186/547/112
f 185/551/113 183/552/113 184/553/113
f 184/553/113 186/554/113 185/551/113
f 172/555/114 171/556/114 183/557/114
f 183/557/114 185/558/114 172/555/114
g Cuerpo_16
v 0.728458 0.199381 0.05
v 0.728458 0.199381 0
v 0.777363 0.199712 0
v 0.777363 0.199712 0.05
v 0.728458 0.189996 0.05
v 0.728458 0.189996 0
v 0.682662 0.189996 0.05
v 0.682662 0.189996 0
v 0.682662 0.297653 0
v 0.777363 0.299547 0
v 0.777363 0.299547 0.05
v 0.682662 0.297653 0.05
vn 0.00676442 -0.999977 0
vn 1 0 -0
vn 0 -1 0
vn -0 -0 -1
vn 0 0 1
vn -1 0 0
vn -0.019996 0.9998 -0
vn 1 0 -0
vt -0.0244534 0
vt -0.0244534 -0.05
vt 0.0244534 -0.05
vt 0.0244534 0
vt -0 -0.00469258
vt 0.05 -0.00469258
vt 0.05 0.00469258
vt 0 0.00469258
vt -0 -0.022898
vt 0.05 -0.022898
vt 0.05 0.022898
vt 0 0.022898
vt 0.682662 0.189996
vt 0.682662 0.297653
vt 0.728458 0.199381
vt 0.777363 0.299547
vt 0.777363 0.199712
vt 0.728458 0.189996
vt 0.777363 0.299547
vt 0.682662 0.297653
vt 0.728458 0.199381
vt 0.682662 0.189996
vt 0.728458 0.189996
vt 0.777363 0.199712
vt 0 0.0538288
vt -0.05 0.0538288
vt -0.05 -0.0538288
vt 0 -0.0538288
vt 0.0473603 0
vt 0.0473603 -0.05
vt -0.0473603 -0.05
vt -0.0473603 0
vt -0 -0.0499178
vt 0.05 -0.0499178
vt 0.05 0.0499178
vt 0 0.0499178
f 187/559/115 188/560/115 189/561/115
f 189/561/115 190/562/115 187/559/115
f 191/563/116 192/564/116 188/565/116
f 188/565/116 187/566/116 191/563/116
f 193/567/117 194/568/117 192/569/117
f 192/569/117 191/570/117 193/567/117
f 194/571/118 195/572/118 188/573/118
f 196/574/118 189/575/118 188/573/118
f 188/573/118 195/572/118 196/574/118
f 188/573/118 192/576/118 194/571/118
f 197/577/119 198/578/119 187/579/119
f 193/580/119 191/581/119 187/579/119
f 187/579/119 198/578/119 193/580/119
f 187/579/119 190/582/119 197/577/119
f 198/583/120 195/584/120 194/585/120
f 194/585/120 193/586/120 198/583/120
f 197/587/121 196/588/121 195/589/121
f 195/589/121 198/590/121 197/587/121
f 190/591/122 189/592/122 196/593/122
f 196/593/122 197/594/122 190/591/122
g Cuerpo_17
v 1.3 0.31 0.05
v 1.3 0.31 0
v 1.25 0.309 0
v 1.25 0.309 0.05
v 1.3 0.205 0.05
v 1.3 0.205 0
v 1.2525 0.205 0.05
v 1.2525 0.205 0
v 1.2525 0.22 0
v 1.25 0.22 0
v 1.2525 0.22 0.05
v 1.25 0.22 0.05
vn -0.019996 0.9998 -0
vn 1 0 -0
vn 0 -1 0
vn -0 -0 -1
vn 0 0 1
vn -1 0 0
vn 0 -1 0
vn -1 -7.10797e-06 0
vt 0.0250052 0
vt 0.0250052 -0.05
vt -0.0250052 -0.05
vt -0.0250052 0
vt -0 -0.0525
vt 0.05 -0.0525
vt 0.05 0.0525
vt 0 0.0525
vt -0 -0.02375
vt 0.05 -0.02375
vt 0.05 0.02375
vt 0 0.02375
vt 1.25 0.309
vt 1.3 0.31
vt 1.2525 0.22
vt 1.3 0.205
vt 1.2525 0.205
vt 1.25 0.22
vt 1.3 0.205
vt 1.3 0.31
vt 1.2525 0.22
vt 1.25 0.309
vt 1.25 0.22
vt 1.2525 0.205
vt 0 0.0075
vt -0.05 0.0075
vt -0.05 -0.0075
vt 0 -0.0075
vt -0 -0.00124985
vt 0.05 -0.00124985
vt 0.05 0.00124985
vt 0 0.00124985
vt -0.06725 0
vt -0.06725 -0.05
vt 0.02175 -0.05
vt 0.02175 0
f 199/595/123 200/596/123 201/597/123
f 201/597/123 202/598/123 199/595/123
f 203/599/124 204/600/124 200/601/124
f 200/601/124 199/602/124 203/599/124
f 205/603/125 206/604/125 204/605/125
f 204/605/125 203/606/125 205/603/125
f 201/607/126 200/608/126 207/609/126
f 204/610/126 206/611/126 207/609/126
f 207/609/126 200/608/126 204/610/126
f 207/609/126 208/612/126 201/607/126
f 203/613/127 199/614/127 209/615/127
f 202/616/127 210/617/127 209/615/127
f 209/615/127 199/614/127 202/616/127
f 209/615/127 205/618/127 203/613/127
f 209/619/128 207/620/128 206/621/128
f 206/621/128 205/622/128 209/619/128
f 210/623/129 208/624/129 207/625/129
f 207/625/129 209/626/129 210/623/129
f 202/627/130 201/628/130 208/629/130
f 208/629/130 210/630/130 202/627/130
g Cuerpo_18
v 0.365 0.12 0.05
v 0.365 0.12 0
v 0.3225 0.12 0
v 0.3225 0.12 0.05
v 0.365 0.13 0.05
v 0.365 0.13 0
v 0.445 0.13 0.05
v 0.445 0.13 0
v 0.445 0.01 0
v 0.3225 0.01 0
v 0.3225 0.01 0.05
v 0.445 0.01 0.05
vn -6.53072e-16 1 -0
vn -1 -0 0
vn -0 -0 -1
vn 0 0 1
vn 1 -0 -0
vn 0 -1 0
vn -1 0 0
vt 0.02125 0
vt 0.02125 -0.05
vt -0.02125 -0.05
vt -0.02125 0
vt 0 0.005
vt 0.05 0.005
vt 0.05 -0.005
vt 0 -0.005
vt 0 0.04
vt 0.05 0.04
vt 0.05 -0.04
vt -0 -0.04
vt 0.445 0.13
vt 0.445 0.01
vt 0.365 0.12
vt 0.3225 0.01
vt 0.3225 0.12
vt 0.365 0.13
vt 0.3225 0.01
vt 0.445 0.01
vt 0.365 0.12
vt 0.445 0.13
vt 0.365 0.13
vt 0.3225 0.12
vt 0 -0.06
vt -0.05 -0.06
vt -0.05 0.06
vt 0 0.06
vt -0 -0.06125
vt 0.05 -0.06125
vt 0.05 0.06125
vt 0 0.06125
vt 0 0.055
vt -0.05 0.055
vt -0.05 -0.055
vt 0 -0.055
f 211/631/131 212/632/131 213/633/131
f 213/633/131 214/634/131 211/631/131
f 215/635/132 216/636/132 212/637/132
f 212/637/132 211/638/132 215/635/132
f 217/639/131 218/640/131 216/641/131
f 216/641/131 215/642/131 217/639/131
f 218/643/133 219/644/133 212/645/133
f 220/646/133 213/647/133 212/645/133
f 212/645/133 219/644/133 220/646/133
f 212/645/133 216/648/133 218/643/133
f 221/649/134 222/650/134 211/651/134
f 217/652/134 215/653/134 211/651/134
f 211/651/134 222/650/134 217/652/134
f 211/651/134 214/654/134 221/649/134
f 222/655/135 219/656/135 218/657/135
f 218/657/135 217/658/135 222/655/135
f 221/659/136 220/660/136 219/661/136
f 219/661/136 222/662/136 221/659/136
f 214/663/137 213/664/137 220/665/137
f 220/665/137 221/666/137 214/663/137
g Cuerpo_19
v 1.375 0.195 0.05
v 1.375 0.195 0
v 1.375 0.19 0
v 1.375 0.19 0.05
v 1.36 0.195 0.05
v 1.36 0.195 0
v 1.36 0.305 0.05
v 1.36 0.305 0
v 1.4 0.305 0
v 1.4 0.19 0
v 1.4 0.19 0.05
v 1.4 0.305 0.05
vn -1 0 0
vn 0 -1 0
vn -0 -0 -1
vn 0 0 1
vn -0 1 -0
vn 1 -0 -0
vn 0 -1 0
vt 0 0.0025
vt -0.05 0.0025
vt -0.05 -0.0025
vt 0 -0.0025
vt -0 -0.0075
vt 0.05 -0.0075
vt 0.05 0.0075
vt 0 0.0075
vt 0 0.055
vt -0.05 0.055
vt -0.05 -0.055
vt 0 -0.055
vt 1.36 0.305
vt 1.4 0.305
vt 1.375 0.195
vt 1.4 0.19
vt 1.375 0.19
vt 1.36 0.195
vt 1.4 0.19
vt 1.4 0.305
vt 1.375 0.195
vt 1.36 0.305
vt 1.36 0.195
vt 1.375 0.19
vt 0 0.02
vt 0.05 0.02
vt 0.05 -0.02
vt -0 -0.02
vt 0 -0.0575
vt -0.05 -0.0575
vt -0.05 0.0575
vt 0 0.0575
vt -0 -0.0125
vt 0.05 -0.0125
vt 0.05 0.0125
vt 0 0.0125
f 223/667/138 224/668/138 225/669/138
f 225/669/138 226/670/138 223/667/138
f 227/671/139 228/672/139 224/673/139
f 224/673/139 223/674/139 227/671/139
f 229/675/138 230/676/138 228/677/138
f 228/677/138 227/678/138 229/675/138
f 230/679/140 231/680/140 224/681/140
f 232/682/140 225/683/140 224/681/140
f 224/681/140 231/680/140 232/682/140
f 224/681/140 228/684/140 230/679/140
f 233/685/141 234/686/141 223/687/141
f 229/688/141 227/689/141 223/687/141
f 223/687/141 234/686/141 229/688/141
f 223/687/141 226/690/141 233/685/141
f 234/691/142 231/692/142 230/693/142
f 230/693/142 229/694/142 234/691/142
f 233/695/143 232/696/143 231/697/143
f 231/697/143 234/698/143 233/695/143
f 226/699/144 225/700/144 232/701/144
f 232/701/144 233/702/144 226/699/144
g Cuerpo_20
v 1.36 0.13 0
v 1.36 0.03 0
v 1.25709 0.03 0
v 1.25505 0.13 0
v 1.25505 0.13 0.05
v 1.25709 0.03 0.05
v 1.36 0.13 0.05
v 1.36 0.03 0.05
vn -0 -0 -1
vn -0.999792 -0.0204039 0
vn 0 0 1
vn -0 1 -0
vn 1 -0 -0
vn 2.1577e-15 -1 0
vt 1.36 0.13
vt 1.36 0.03
vt 1.25709 0.03
vt 1.25505 0.13
vt -0.0500104 0
vt -0.0500104 -0.05
vt 0.0500104 -0.05
vt 0.0500104 0
vt 1.36 0.13
vt 1.25505 0.13
vt 1.25709 0.03
vt 1.36 0.03
vt 0 0.0524745
vt 0.05 0.0524745
vt 0.05 -0.0524745
vt 0 -0.0524745
vt 0 -0.05
vt -0.05 -0.05
vt -0.05 0.05
vt 0 0.05
vt -0.0514541 0
vt -0.0514541 -0.05
vt 0.0514541 -0.05
vt 0.0514541 0
f 235/703/145 236/704/145 237/705/145
f 237/705/145 238/706/145 235/703/145
f 239/707/146 238/708/146 237/709/146
f 237/709/146 240/710/146 239/707/146
f 241/711/147 239/712/147 240/713/147
f 240/713/147 242/714/147 241/711/147
f 241/715/148 235/716/148 238/717/148
f 238/717/148 239/718/148 241/715/148
f 242/719/149 236/720/149 235/721/149
f 235/721/149 241/722/149 242/719/149
f 240/723/150 237/724/150 236/725/150
f 236/725/150 242/726/150 240/723/150
g Cuerpo_21
v 0.965 0.1925 0.05
v 0.965 0.1925 0
v 0.965 0.2 0
v 0.965 0.2 0.05
v 0.915 0.1925 0.05
v 0.915 0.1925 0
v 0.915 0.3023 0.05
v 0.915 0.3023 0
v 1.0075 0.30415 0
v 1.0075 0.2 0
v 1.0075 0.30415 0.05
v 1.0075 0.2 0.05
vn 1 0 -0
vn 0 -1 0
vn -1 0 0
vn -0 -0 -1
vn 0 0 1
vn -0.019996 0.9998 -0
vn 1 -0 -0
vn 0 -1 0
vt -0 -0.00375
vt 0.05 -0.00375
vt 0.05 0.00375
vt 0 0.00375
vt -0 -0.025
vt 0.05 -0.025
vt 0.05 0.025
vt 0 0.025
vt 0 0.0549
vt -0.05 0.0549
vt -0.05 -0.0549
vt 0 -0.0549
vt 0.915 0.1925
vt 0.915 0.3023
vt 0.965 0.2
vt 1.0075 0.30415
vt 1.0075 0.2
vt 0.965 0.1925
vt 1.0075 0.30415
vt 0.915 0.3023
vt 0.965 0.2
vt 0.915 0.1925
vt 0.965 0.1925
vt 1.0075 0.2
vt 0.0462592 0
vt 0.0462592 -0.05
vt -0.0462592 -0.05
vt -0.0462592 0
vt 0 -0.052075
vt -0.05 -0.052075
vt -0.05 0.052075
vt 0 0.052075
vt -0 -0.02125
vt 0.05 -0.02125
vt 0.05 0.02125
vt 0 0.02125
f 243/727/151 244/728/151 245/729/151
f 245/729/151 246/730/151 243/727/151
f 247/731/152 248/732/152 244/733/152
f 244/733/152 243/734/152 247/731/152
f 249/735/153 250/736/153 248/737/153
f 248/737/153 247/738/153 249/735/153
f 248/739/154 250/740/154 245/741/154
f 251/742/154 252/743/154 245/741/154
f 245/741/154 250/740/154 251/742/154
f 245/741/154 244/744/154 248/739/154
f 253/745/155 249/746/155 246/747/155
f 247/748/155 243/749/155 246/747/155
f 246/747/155 249/746/155 247/748/155
f 246/747/155 254/750/155 253/745/155
f 253/751/156 251/752/156 250/753/156
f 250/753/156 249/754/156 253/751/156
f 254/755/157 252/756/157 251/757/157
f 251/757/157 253/758/157 254/755/157
f 246/759/158 245/760/158 252/761/158
f 252/761/158 254/762/158 246/759/158
g Cuerpo_22
v 1.015 0.125 0.05
v 1.015 0.125 0
v 1.015 0.01 0
v 1.015 0.01 0.05
v 1.0675 0.125 0.05
v 1.0675 0.125 0
v 1.06896 0.125071 0.05
v 1.06896 0.125071 0
v 1.06896 0.1375 0.05
v 1.06896 0.1375 0
v 1.145 0.1375 0
v 1.145 0.01 0
v 1.145 0.01 0.05
v 1.145 0.1375 0.05
vn -1 0 0
vn 0 1 0
vn -0.0489039 0.998803 0
vn -1 -0 0
vn -0 -0 -1
vn 0 0 1
vn -0 1 -0
vn 1 -0 -0
vn 0 -1 0
vt 0 0.00125
vt -0.05 0.00125
vt -0.05 -0.11375
vt 0 -0.11375
vt 0 0.02625
vt -0.05 0.02625
vt -0.05 -0.02625
vt 0 -0.02625
vt -0.000730942 0
vt -0.000730942 -0.05
vt 0.000730942 -0.05
vt 0.000730942 0
vt 0 0.00621425
vt 0.05 0.00621425
vt 0.05 -0.00621425
vt -0 -0.00621425
vt 1.015 0.01
vt 1.0675 0.125
vt 1.06896 0.125071
vt 1.145 0.1375
vt 1.145 0.01
vt 1.015 0.125
vt 1.06896 0.1375
vt 1.015 0.01
vt 1.145 0.01
vt 1.06896 0.125071
vt 1.0675 0.125
vt 1.145 0.1375
vt 1.06896 0.1375
vt 1.015 0.125
vt 0 0.0375
vt 0.05 0.0375
vt 0.05 -0.0385399
vt -0 -0.0385399
vt 0 -0.0625
vt -0.05 -0.0625
vt -0.05 0.065
vt 0 0.065
vt -0 -0.065
vt 0.05 -0.065
vt 0.05 0.065
vt 0 0.065
f 255/763/159 256/764/159 257/765/159
f 257/765/159 258/766/159 255/763/159
f 259/767/160 260/768/160 256/769/160
f 256/769/160 255/770/160 259/767/160
f 261/771/161 262/772/161 260/773/161
f 260/773/161 259/774/161 261/771/161
f 263/775/162 264/776/162 262/777/162
f 262/777/162 261/778/162 263/775/162
f 257/779/163 260/780/163 262/781/163
f 265/782/163 266/783/163 262/781/163
f 257/779/163 256/784/163 260/780/163
f 262/781/163 266/783/163 257/779/163
f 262/781/163 264/785/163 265/782/163
f 258/786/164 267/787/164 261/788/164
f 261/788/164 259/789/164 258/786/164
f 268/790/164 263/791/164 261/788/164
f 261/788/164 267/787/164 268/790/164
f 259/789/164 255/792/164 258/786/164
f 268/793/165 265/794/165 264/795/165
f 264/795/165 263/796/165 268/793/165
f 267/797/166 266/798/166 265/799/166
f 265/799/166 268/800/166 267/797/166
f 258/801/167 257/802/167 266/803/167
f 266/803/167 267/804/167 258/801/167
g Cuerpo_23
v 0.78 0.01 0.05
v 0.78 0.01 0
v 0.9075 0.01 0
v 0.9075 0.01 0.05
v 0.78 0.12 0.05
v 0.78 0.12 0
v 0.8225 0.12 0.05
v 0.8225 0.12 0
v 0.9075 0.1325 0
v 0.8225 0.1325 0
v 0.9075 0.1325 0.05
v 0.8225 0.1325 0.05
vn 0 -1 0
vn -1 -4.03717e-15 0
vn -2.61229e-15 1 0
vn -0 -0 -1
vn 0 0 1
vn -1 0 0
vn -0 1 -0
vn 1 0 -0
vt -0 -0.06375
vt 0.05 -0.06375
vt 0.05 0.06375
vt 0 0.06375
vt -0.055 0
vt -0.055 -0.05
vt 0.055 -0.05
vt 0.055 0
vt -0.02125 0
vt -0.02125 -0.05
vt 0.02125 -0.05
vt 0.02125 0
vt 0.9075 0.1325
vt 0.9075 0.01
vt 0.8225 0.12
vt 0.78 0.01
vt 0.78 0.12
vt 0.8225 0.1325
vt 0.78 0.01
vt 0.9075 0.01
vt 0.8225 0.12
vt 0.9075 0.1325
vt 0.8225 0.1325
vt 0.78 0.12
vt 0 0.00625
vt -0.05 0.00625
vt -0.05 -0.00625
vt 0 -0.00625
vt 0 0.0425
vt 0.05 0.0425
vt 0.05 -0.0425
vt -0 -0.0425
vt -0 -0.06125
vt 0.05 -0.06125
vt 0.05 0.06125
vt 0 0.06125
f 269/805/168 270/806/168 271/807/168
f 271/807/168 272/808/168 269/805/168
f 273/809/169 274/810/169 270/811/169
f 270/811/169 269/812/169 273/809/169
f 275/813/170 276/814/170 274/815/170
f 274/815/170 273/816/170 275/813/170
f 277/817/171 271/818/171 276/819/171
f 270/820/171 274/821/171 276/819/171
f 276/819/171 271/818/171 270/820/171
f 276/819/171 278/822/171 277/817/171
f 269/823/172 272/824/172 275/825/172
f 279/826/172 280/827/172 275/825/172
f 275/825/172 272/824/172 279/826/172
f 275/825/172 273/828/172 269/823/172
f 280/829/173 278/830/173 276/831/173
f 276/831/173 275/832/173 280/829/173
f 279/833/174 277/834/174 278/835/174
f 278/835/174 280/836/174 279/833/174
f 272/837/175 271/838/175 277/839/175
f 277/839/175 279/840/175 272/837/175
