# WaveFront *.obj file (generated by Autodesk ATF)

mtllib Edificio B - Piso 2.mtl

g Cuerpo 1

v -0.150000 -0.050000 0.000000
v -0.150000 1.151207 0.000000
v 0.800000 1.151207 0.000000
v 0.800000 0.500000 0.000000
v 0.695731 0.500000 0.000000
v 0.695731 0.450000 0.000000
v 0.095731 0.450000 0.000000
v 0.095731 0.000000 0.000000
v 0.695731 0.000000 0.000000
v 0.695731 -0.050000 0.000000
v 0.695731 0.500000 2.000000
v 0.800000 0.500000 2.000000
v 0.800000 1.151207 2.000000
v -0.150000 1.151207 2.000000
v -0.150000 -0.050000 2.000000
v 0.695731 -0.050000 2.000000
v 0.095731 0.450000 1.200000
v 0.095731 0.000000 1.200000
v 0.695731 0.000000 1.200000
v 0.695731 0.450000 1.200000
vt 6.250000 -0.523796 0.000000
vt 6.004269 -1.225003 0.000000
vt 6.250000 -1.725003 0.000000
vt 6.004269 -1.675003 0.000000
vt 5.404269 -1.725003 0.000000
vt 5.404269 -1.675003 0.000000
vt 5.300000 -0.523796 0.000000
vt 5.404269 -1.175003 0.000000
vt 5.404269 -1.225003 0.000000
vt 5.300000 -1.175003 0.000000
vt 0.375000 -0.050603 0.000000
vt 0.375000 0.600603 0.000000
vt 0.270731 -0.050603 0.000000
vt -0.575000 0.600603 0.000000
vt -0.575000 -0.600603 0.000000
vt 0.270731 -0.600603 0.000000
vt 0.200000 0.000000 0.000000
vt 1.150000 0.000000 0.000000
vt 0.200000 2.000000 0.000000
vt 1.150000 2.000000 0.000000
vt 1.201207 2.000000 0.000000
vt -0.000000 2.000000 0.000000
vt 1.201207 0.000000 0.000000
vt -0.000000 0.000000 0.000000
vt -0.000000 0.000000 0.000000
vt 0.845731 0.000000 0.000000
vt 0.000000 2.000000 0.000000
vt 0.845731 2.000000 0.000000
vt 0.600000 0.225000 0.000000
vt -0.600000 0.225000 0.000000
vt 0.600000 -0.225000 0.000000
vt -0.600000 -0.225000 0.000000
vt -0.000000 0.800000 0.000000
vt -1.200000 0.800000 0.000000
vt -0.000000 0.200000 0.000000
vt -1.200000 0.200000 0.000000
vt -0.000000 0.800000 0.000000
vt -0.450000 0.800000 0.000000
vt -0.000000 0.200000 0.000000
vt -0.450000 0.200000 0.000000
vt -0.000000 0.800000 0.000000
vt -1.200000 0.800000 0.000000
vt -0.000000 0.200000 0.000000
vt -1.200000 0.200000 0.000000
vt -0.000000 0.200000 0.000000
vt -2.000000 0.200000 0.000000
vt -0.000000 0.095731 0.000000
vt -2.000000 0.095731 0.000000
vt -2.000000 0.300000 0.000000
vt 0.000000 0.300000 0.000000
vt -2.000000 0.951207 0.000000
vt 0.000000 0.951207 0.000000
vt 0.000000 0.050000 0.000000
vt -1.200000 0.050000 0.000000
vt 0.000000 0.000000 0.000000
vt -2.000000 0.000000 0.000000
vt -1.200000 0.500000 0.000000
vt -2.000000 0.550000 0.000000
vt 0.000000 0.550000 0.000000
vt 0.000000 0.500000 0.000000
vn -0.000000 0.000000 -1.000000
vn -0.000000 0.000000 -1.000000
vn -0.000000 0.000000 -1.000000
vn -0.000000 0.000000 -1.000000
vn -0.000000 0.000000 -1.000000
vn -0.000000 0.000000 -1.000000
vn -0.000000 0.000000 -1.000000
vn -0.000000 0.000000 -1.000000
vn -0.000000 0.000000 -1.000000
vn -0.000000 0.000000 -1.000000
vn 0.000000 0.000000 1.000000
vn 0.000000 0.000000 1.000000
vn 0.000000 0.000000 1.000000
vn 0.000000 0.000000 1.000000
vn 0.000000 0.000000 1.000000
vn 0.000000 0.000000 1.000000
vn 0.000000 1.000000 0.000000
vn 0.000000 1.000000 0.000000
vn 0.000000 1.000000 0.000000
vn 0.000000 1.000000 0.000000
vn -1.000000 0.000000 0.000000
vn -1.000000 0.000000 0.000000
vn -1.000000 0.000000 0.000000
vn -1.000000 0.000000 0.000000
vn 0.000000 -1.000000 0.000000
vn 0.000000 -1.000000 0.000000
vn 0.000000 -1.000000 0.000000
vn 0.000000 -1.000000 0.000000
vn 1.000000 -0.000000 -0.000000
vn 1.000000 -0.000000 -0.000000
vn 1.000000 -0.000000 -0.000000
vn 1.000000 -0.000000 -0.000000
vn -0.000000 1.000000 -0.000000
vn -0.000000 1.000000 -0.000000
vn -0.000000 1.000000 -0.000000
vn -0.000000 1.000000 -0.000000
vn -0.000000 -0.000000 -1.000000
vn -0.000000 -0.000000 -1.000000
vn -0.000000 -0.000000 -1.000000
vn -0.000000 -0.000000 -1.000000
vn -0.000000 -1.000000 -0.000000
vn -0.000000 -1.000000 -0.000000
vn -0.000000 -1.000000 -0.000000
vn -0.000000 -1.000000 -0.000000
vn -0.000000 -1.000000 -0.000000
vn -0.000000 -1.000000 -0.000000
vn -0.000000 -1.000000 -0.000000
vn -0.000000 -1.000000 -0.000000
vn 1.000000 0.000000 0.000000
vn 1.000000 0.000000 0.000000
vn 1.000000 0.000000 0.000000
vn 1.000000 0.000000 0.000000
vn 1.000000 0.000000 0.000000
vn 1.000000 0.000000 0.000000
vn 1.000000 0.000000 0.000000
vn 1.000000 0.000000 0.000000
vn 1.000000 0.000000 0.000000
vn 1.000000 0.000000 0.000000
vn 1.000000 0.000000 0.000000
vn 1.000000 0.000000 0.000000
usemtl Acero_-_Satinado_(1)
f 2/1/1 7/2/2 1/3/3
f 1/3/3 7/2/2 8/4/4
f 1/3/3 8/4/4 10/5/5
f 10/5/5 8/4/4 9/6/6
f 2/1/1 3/7/7 7/2/2
f 7/2/2 3/7/7 5/8/8
f 7/2/2 5/8/8 6/9/9
f 3/7/7 4/10/10 5/8/8
f 12/11/11 13/12/12 11/13/13
f 11/13/13 13/12/12 14/14/14
f 11/13/13 14/14/14 15/15/15
f 15/15/15 16/16/16 11/13/13
f 3/17/17 2/18/18 13/19/19
f 13/19/19 2/18/18 14/20/20
f 15/21/21 14/22/22 1/23/23
f 1/23/23 14/22/22 2/24/24
f 1/25/25 10/26/26 15/27/27
f 15/27/27 10/26/26 16/28/28
f 7/29/29 17/30/30 8/31/31
f 8/31/31 17/30/30 18/32/32
f 8/33/33 18/34/34 9/35/35
f 9/35/35 18/34/34 19/36/36
f 18/37/37 17/38/38 19/39/39
f 19/39/39 17/38/38 20/40/40
f 17/41/41 7/42/42 20/43/43
f 20/43/43 7/42/42 6/44/44
f 11/45/45 5/46/46 12/47/47
f 12/47/47 5/46/46 4/48/48
f 12/49/49 4/50/50 13/51/51
f 13/51/51 4/50/50 3/52/52
f 9/53/53 19/54/54 10/55/55
f 10/55/55 19/54/54 16/56/56
f 16/56/56 19/54/54 20/57/57
f 16/56/56 20/57/57 11/58/58
f 11/58/58 20/57/57 5/59/59
f 5/59/59 20/57/57 6/60/60
g Cuerpo 2

v 0.697787 2.500000 1.200000
v 0.697787 2.500000 0.000000
v 0.697787 2.551207 0.000000
v 0.697787 2.551207 2.000000
v 0.697787 2.000000 2.000000
v 0.697787 2.000000 0.000000
v 0.697787 2.050000 0.000000
v 0.697787 2.050000 1.200000
v 0.800000 2.000000 2.000000
v 0.800000 2.000000 0.000000
v 0.800000 1.201207 2.000000
v 0.800000 1.201207 0.000000
v -0.150000 2.551207 2.000000
v -0.150000 1.201207 2.000000
v -0.150000 2.551207 0.000000
v 0.097787 2.500000 1.200000
v 0.097787 2.500000 0.000000
v 0.097787 2.050000 1.200000
v 0.097787 2.050000 0.000000
v -0.150000 1.201207 0.000000
vt 0.000000 0.200000 0.000000
vt 0.000000 0.251207 0.000000
vt -1.200000 0.200000 0.000000
vt -2.000000 0.251207 0.000000
vt -2.000000 -0.300000 0.000000
vt -1.200000 -0.250000 0.000000
vt 0.000000 -0.300000 0.000000
vt 0.000000 -0.250000 0.000000
vt -0.000000 0.200000 0.000000
vt -2.000000 0.200000 0.000000
vt -0.000000 0.097787 0.000000
vt -2.000000 0.097787 0.000000
vt 0.000000 0.798793 0.000000
vt -2.000000 0.798793 0.000000
vt 0.000000 0.000000 0.000000
vt -2.000000 0.000000 0.000000
vt 0.375000 0.123793 0.000000
vt 0.272787 0.123793 0.000000
vt 0.375000 -0.675000 0.000000
vt -0.575000 -0.675000 0.000000
vt -0.575000 0.675000 0.000000
vt 0.272787 0.675000 0.000000
vt 0.200000 0.000000 0.000000
vt 1.047787 0.000000 0.000000
vt 0.200000 2.000000 0.000000
vt 1.047787 2.000000 0.000000
vt -0.000000 0.800000 0.000000
vt -1.200000 0.800000 0.000000
vt -0.000000 0.200000 0.000000
vt -1.200000 0.200000 0.000000
vt -0.000000 0.800000 0.000000
vt -0.450000 0.800000 0.000000
vt -0.000000 0.200000 0.000000
vt -0.450000 0.200000 0.000000
vt -0.000000 0.800000 0.000000
vt -1.200000 0.800000 0.000000
vt -0.000000 0.200000 0.000000
vt -1.200000 0.200000 0.000000
vt 0.600000 0.225000 0.000000
vt -0.600000 0.225000 0.000000
vt 0.600000 -0.225000 0.000000
vt -0.600000 -0.225000 0.000000
vt 0.575000 -0.675000 0.000000
vt 0.327213 0.173793 0.000000
vt -0.375000 -0.675000 0.000000
vt -0.272787 0.123793 0.000000
vt -0.375000 0.123793 0.000000
vt 0.575000 0.675000 0.000000
vt 0.327213 0.623793 0.000000
vt -0.272787 0.675000 0.000000
vt -0.272787 0.623793 0.000000
vt -0.272787 0.173793 0.000000
vt 0.950000 2.000000 0.000000
vt 0.000000 2.000000 0.000000
vt 0.950000 0.000000 0.000000
vt 0.000000 0.000000 0.000000
vt -0.000000 0.000000 0.000000
vt 1.350000 0.000000 0.000000
vt -0.000000 2.000000 0.000000
vt 1.350000 2.000000 0.000000
vn 1.000000 0.000000 0.000000
vn 1.000000 0.000000 0.000000
vn 1.000000 0.000000 0.000000
vn 1.000000 0.000000 0.000000
vn 1.000000 0.000000 0.000000
vn 1.000000 0.000000 0.000000
vn 1.000000 0.000000 0.000000
vn 1.000000 0.000000 0.000000
vn -0.000000 1.000000 -0.000000
vn -0.000000 1.000000 -0.000000
vn -0.000000 1.000000 -0.000000
vn -0.000000 1.000000 -0.000000
vn 1.000000 0.000000 0.000000
vn 1.000000 0.000000 0.000000
vn 1.000000 0.000000 0.000000
vn 1.000000 0.000000 0.000000
vn 0.000000 0.000000 1.000000
vn 0.000000 0.000000 1.000000
vn 0.000000 0.000000 1.000000
vn 0.000000 0.000000 1.000000
vn 0.000000 0.000000 1.000000
vn 0.000000 0.000000 1.000000
vn 0.000000 1.000000 0.000000
vn 0.000000 1.000000 0.000000
vn 0.000000 1.000000 0.000000
vn 0.000000 1.000000 0.000000
vn -0.000000 -1.000000 -0.000000
vn -0.000000 -1.000000 -0.000000
vn -0.000000 -1.000000 -0.000000
vn -0.000000 -1.000000 -0.000000
vn -0.000000 -0.000000 -1.000000
vn -0.000000 -0.000000 -1.000000
vn -0.000000 -0.000000 -1.000000
vn -0.000000 -0.000000 -1.000000
vn -0.000000 1.000000 -0.000000
vn -0.000000 1.000000 -0.000000
vn -0.000000 1.000000 -0.000000
vn -0.000000 1.000000 -0.000000
vn 1.000000 -0.000000 -0.000000
vn 1.000000 -0.000000 -0.000000
vn 1.000000 -0.000000 -0.000000
vn 1.000000 -0.000000 -0.000000
vn -0.000000 -0.000000 -1.000000
vn -0.000000 -0.000000 -1.000000
vn -0.000000 -0.000000 -1.000000
vn -0.000000 -0.000000 -1.000000
vn -0.000000 -0.000000 -1.000000
vn -0.000000 -0.000000 -1.000000
vn -0.000000 -0.000000 -1.000000
vn -0.000000 -0.000000 -1.000000
vn -0.000000 -0.000000 -1.000000
vn -0.000000 -0.000000 -1.000000
vn 0.000000 -1.000000 0.000000
vn 0.000000 -1.000000 0.000000
vn 0.000000 -1.000000 0.000000
vn 0.000000 -1.000000 0.000000
vn -1.000000 0.000000 0.000000
vn -1.000000 0.000000 0.000000
vn -1.000000 0.000000 0.000000
vn -1.000000 0.000000 0.000000
f 22/61/61 23/62/62 21/63/63
f 21/63/63 23/62/62 24/64/64
f 21/63/63 24/64/64 25/65/65
f 21/63/63 25/65/65 28/66/66
f 28/66/66 25/65/65 26/67/67
f 28/66/66 26/67/67 27/68/68
f 26/69/69 25/70/70 30/71/71
f 30/71/71 25/70/70 29/72/72
f 30/73/73 29/74/74 32/75/75
f 32/75/75 29/74/74 31/76/76
f 29/77/77 25/78/78 31/79/79
f 31/79/79 25/78/78 34/80/80
f 34/80/80 25/78/78 33/81/81
f 33/81/81 25/78/78 24/82/82
f 23/83/83 35/84/84 24/85/85
f 24/85/85 35/84/84 33/86/86
f 36/87/87 37/88/88 21/89/89
f 21/89/89 37/88/88 22/90/90
f 38/91/91 36/92/92 28/93/93
f 28/93/93 36/92/92 21/94/94
f 39/95/95 38/96/96 27/97/97
f 27/97/97 38/96/96 28/98/98
f 37/99/99 36/100/100 39/101/101
f 39/101/101 36/100/100 38/102/102
f 40/103/103 39/104/104 32/105/105
f 32/105/105 39/104/104 26/106/106
f 32/105/105 26/106/106 30/107/107
f 40/103/103 35/108/108 39/104/104
f 39/104/104 35/108/108 37/109/109
f 37/109/109 35/108/108 23/110/110
f 37/109/109 23/110/110 22/111/111
f 39/104/104 27/112/112 26/106/106
f 31/113/113 34/114/114 32/115/115
f 32/115/115 34/114/114 40/116/116
f 35/117/117 40/118/118 33/119/119
f 33/119/119 40/118/118 34/120/120
g Cuerpo 3

v 9.300000 1.200000 0.000000
v 9.300000 1.050000 0.000000
v 9.300000 1.050000 1.800000
v 9.300000 1.200000 1.800000
v 11.500000 1.200000 0.000000
v 11.492590 3.703827 0.000000
v 2.596770 3.703827 0.000000
v 2.600188 1.191100 0.000000
v 3.299805 1.192051 0.000000
v 3.300000 1.048368 0.000000
v 2.443443 1.048368 0.000000
v 2.443443 3.800000 0.000000
v 11.650000 3.800000 0.000000
v 11.650000 1.050000 0.000000
v 11.500000 1.200000 1.800000
v 3.299805 1.192051 1.800000
v 3.300000 1.048368 1.800000
v 2.600188 1.191100 1.800000
v 2.596770 3.703827 1.800000
v 11.492590 3.703827 1.800000
v 8.400000 1.050000 0.000000
v 8.400000 1.200000 0.000000
v 8.400000 1.200000 1.800000
v 8.400000 1.050000 1.800000
v 4.500000 1.200000 0.000000
v 4.500000 1.200000 1.800000
v 4.500000 1.050000 0.000000
v 4.500000 1.050000 1.800000
v 4.500000 1.050000 2.000000
v 3.300000 1.048368 2.000000
v 2.443443 3.800000 2.000000
v 11.650000 3.800000 2.000000
v 11.650000 1.050000 2.000000
v 8.400000 1.050000 2.000000
v 2.443443 1.048368 2.000000
vt -0.000000 0.000000 0.000000
vt 1.800000 0.000000 0.000000
vt -0.000000 0.150000 0.000000
vt 1.800000 0.150000 0.000000
vt -2.253279 -1.224184 0.000000
vt -4.453279 -1.224184 0.000000
vt -2.253279 -1.374184 0.000000
vt -4.603279 -1.374184 0.000000
vt -4.603279 1.375816 0.000000
vt -4.445868 1.279643 0.000000
vt 4.603279 1.375816 0.000000
vt 4.449951 1.279643 0.000000
vt 4.446533 -1.233084 0.000000
vt 3.746917 -1.232133 0.000000
vt 3.746721 -1.375816 0.000000
vt 4.603279 -1.375816 0.000000
vt -0.200000 1.800000 0.000000
vt -2.400000 1.800000 0.000000
vt -0.200000 0.000000 0.000000
vt -2.400000 0.000000 0.000000
vt -0.143684 0.000000 0.000000
vt -0.000000 0.000000 0.000000
vt -0.143684 1.800000 0.000000
vt -0.000000 1.800000 0.000000
vt -0.699617 0.000000 0.000000
vt -0.000000 0.000000 0.000000
vt -0.699617 1.800000 0.000000
vt -0.000000 1.800000 0.000000
vt -2.512730 0.000000 0.000000
vt -0.000000 0.000000 0.000000
vt -2.512730 1.800000 0.000000
vt 0.000000 1.800000 0.000000
vt -8.895820 0.000000 0.000000
vt 0.000000 0.000000 0.000000
vt -8.895820 1.800000 0.000000
vt -0.000000 1.800000 0.000000
vt -2.503838 0.000000 0.000000
vt -0.000000 0.000000 0.000000
vt -2.503838 1.800000 0.000000
vt -0.000000 1.800000 0.000000
vt -0.150000 0.000000 0.000000
vt -0.000000 0.000000 0.000000
vt -0.150000 1.800000 0.000000
vt -0.000000 1.800000 0.000000
vt -3.900000 0.000000 0.000000
vt -0.000000 0.000000 0.000000
vt -3.900000 1.800000 0.000000
vt -0.000000 1.800000 0.000000
vt -0.150000 0.000000 0.000000
vt -0.000000 0.000000 0.000000
vt -0.150000 1.800000 0.000000
vt -0.000000 1.800000 0.000000
vt 3.748385 -1.327730 0.000000
vt 3.748581 -1.184046 0.000000
vt 2.548385 -1.326098 0.000000
vt 2.548385 -1.176098 0.000000
vt 4.451615 1.327730 0.000000
vt -1.351615 -1.176098 0.000000
vt -4.444205 1.327730 0.000000
vt -2.251615 -1.176098 0.000000
vt -4.451615 -1.176098 0.000000
vt 4.448197 -1.184998 0.000000
vt -2.251615 -1.326098 0.000000
vt -1.351615 -1.326098 0.000000
vt -1.353279 -1.224184 0.000000
vt -1.353279 -1.374184 0.000000
vt 2.546721 -1.224184 0.000000
vt 2.546721 -1.374184 0.000000
vt 0.000000 1.800000 0.000000
vt 1.200001 1.800000 0.000000
vt 0.000000 2.000000 0.000000
vt 1.200001 2.000000 0.000000
vt -0.000000 0.000000 0.000000
vt 9.206557 0.000000 0.000000
vt -0.000000 2.000000 0.000000
vt 9.206557 2.000000 0.000000
vt 0.000000 0.000000 0.000000
vt 2.750000 0.000000 0.000000
vt 0.000000 2.000000 0.000000
vt 2.750000 2.000000 0.000000
vt 0.900000 0.000000 0.000000
vt 3.250000 0.000000 0.000000
vt 0.900000 1.800000 0.000000
vt 3.250000 2.000000 0.000000
vt 0.000000 2.000000 0.000000
vt 0.000000 1.800000 0.000000
vt 0.000000 0.000000 0.000000
vt 3.900000 0.000000 0.000000
vt 0.000000 1.800000 0.000000
vt 3.900000 1.800000 0.000000
vt -0.000000 2.000000 0.000000
vt 3.900000 2.000000 0.000000
vt 0.856557 0.000000 0.000000
vt 0.856557 1.800000 0.000000
vt 0.000000 0.000000 0.000000
vt 0.000000 2.000000 0.000000
vt 0.856557 2.000000 0.000000
vt 0.000000 0.000000 0.000000
vt 2.751632 0.000000 0.000000
vt 0.000000 2.000000 0.000000
vt 2.751632 2.000000 0.000000
vt -4.603279 -1.375816 0.000000
vt -3.746721 -1.375816 0.000000
vt -4.603279 1.375816 0.000000
vt -2.546721 -1.374184 0.000000
vt 1.353279 -1.374184 0.000000
vt 4.603279 -1.374184 0.000000
vt 4.603279 1.375816 0.000000
vn -1.000000 -0.000000 -0.000000
vn -1.000000 -0.000000 -0.000000
vn -1.000000 -0.000000 -0.000000
vn -1.000000 -0.000000 -0.000000
vn -0.000000 0.000000 -1.000000
vn -0.000000 0.000000 -1.000000
vn -0.000000 0.000000 -1.000000
vn -0.000000 0.000000 -1.000000
vn -0.000000 0.000000 -1.000000
vn -0.000000 0.000000 -1.000000
vn -0.000000 0.000000 -1.000000
vn -0.000000 0.000000 -1.000000
vn -0.000000 0.000000 -1.000000
vn -0.000000 0.000000 -1.000000
vn -0.000000 0.000000 -1.000000
vn -0.000000 0.000000 -1.000000
vn -0.000000 1.000000 -0.000000
vn -0.000000 1.000000 -0.000000
vn -0.000000 1.000000 -0.000000
vn -0.000000 1.000000 -0.000000
vn 0.999999 0.001360 -0.000000
vn 0.999999 0.001360 -0.000000
vn 0.999999 0.001360 -0.000000
vn 0.999999 0.001360 -0.000000
vn -0.001360 0.999999 -0.000000
vn -0.001360 0.999999 -0.000000
vn -0.001360 0.999999 -0.000000
vn -0.001360 0.999999 -0.000000
vn 0.999999 0.001360 -0.000000
vn 0.999999 0.001360 -0.000000
vn 0.999999 0.001360 -0.000000
vn 0.999999 0.001360 -0.000000
vn 0.000000 -1.000000 -0.000000
vn 0.000000 -1.000000 -0.000000
vn 0.000000 -1.000000 -0.000000
vn 0.000000 -1.000000 -0.000000
vn -0.999996 -0.002960 0.000000
vn -0.999996 -0.002960 0.000000
vn -0.999996 -0.002960 0.000000
vn -0.999996 -0.002960 0.000000
vn 1.000000 -0.000000 -0.000000
vn 1.000000 -0.000000 -0.000000
vn 1.000000 -0.000000 -0.000000
vn 1.000000 -0.000000 -0.000000
vn -0.000000 1.000000 -0.000000
vn -0.000000 1.000000 -0.000000
vn -0.000000 1.000000 -0.000000
vn -0.000000 1.000000 -0.000000
vn -1.000000 -0.000000 -0.000000
vn -1.000000 -0.000000 -0.000000
vn -1.000000 -0.000000 -0.000000
vn -1.000000 -0.000000 -0.000000
vn -0.000000 -0.000000 -1.000000
vn -0.000000 -0.000000 -1.000000
vn -0.000000 -0.000000 -1.000000
vn -0.000000 -0.000000 -1.000000
vn -0.000000 -0.000000 -1.000000
vn -0.000000 -0.000000 -1.000000
vn -0.000000 -0.000000 -1.000000
vn -0.000000 -0.000000 -1.000000
vn -0.000000 -0.000000 -1.000000
vn -0.000000 -0.000000 -1.000000
vn -0.000000 -0.000000 -1.000000
vn -0.000000 -0.000000 -1.000000
vn -0.000000 0.000000 -1.000000
vn -0.000000 0.000000 -1.000000
vn -0.000000 0.000000 -1.000000
vn -0.000000 0.000000 -1.000000
vn 0.001360 -0.999999 0.000000
vn 0.001360 -0.999999 0.000000
vn 0.001360 -0.999999 0.000000
vn 0.001360 -0.999999 0.000000
vn -0.000000 1.000000 0.000000
vn -0.000000 1.000000 0.000000
vn -0.000000 1.000000 0.000000
vn -0.000000 1.000000 0.000000
vn 1.000000 0.000000 0.000000
vn 1.000000 0.000000 0.000000
vn 1.000000 0.000000 0.000000
vn 1.000000 0.000000 0.000000
vn 0.000000 -1.000000 0.000000
vn 0.000000 -1.000000 0.000000
vn 0.000000 -1.000000 0.000000
vn 0.000000 -1.000000 0.000000
vn 0.000000 -1.000000 0.000000
vn 0.000000 -1.000000 0.000000
vn 0.000000 -1.000000 0.000000
vn 0.000000 -1.000000 0.000000
vn 0.000000 -1.000000 0.000000
vn 0.000000 -1.000000 0.000000
vn 0.000000 -1.000000 0.000000
vn 0.000000 -1.000000 0.000000
vn -0.000000 -1.000000 0.000000
vn -0.000000 -1.000000 0.000000
vn -0.000000 -1.000000 0.000000
vn -0.000000 -1.000000 0.000000
vn -0.000000 -1.000000 0.000000
vn -1.000000 0.000000 0.000000
vn -1.000000 0.000000 0.000000
vn -1.000000 0.000000 0.000000
vn -1.000000 0.000000 0.000000
vn 0.000000 0.000000 1.000000
vn 0.000000 0.000000 1.000000
vn 0.000000 0.000000 1.000000
vn 0.000000 0.000000 1.000000
vn 0.000000 0.000000 1.000000
vn 0.000000 0.000000 1.000000
vn 0.000000 0.000000 1.000000
f 42/121/121 43/122/122 41/123/123
f 41/123/123 43/122/122 44/124/124
f 41/125/125 45/126/126 42/127/127
f 42/127/127 45/126/126 54/128/128
f 54/128/128 45/126/126 53/129/129
f 53/129/129 45/126/126 46/130/130
f 53/129/129 46/130/130 52/131/131
f 52/131/131 46/130/130 47/132/132
f 52/131/131 47/132/132 48/133/133
f 49/134/134 50/135/135 48/133/133
f 48/133/133 50/135/135 51/136/136
f 48/133/133 51/136/136 52/131/131
f 44/137/137 55/138/138 41/139/139
f 41/139/139 55/138/138 45/140/140
f 50/141/141 49/142/142 57/143/143
f 57/143/143 49/142/142 56/144/144
f 49/145/145 48/146/146 56/147/147
f 56/147/147 48/146/146 58/148/148
f 48/149/149 47/150/150 58/151/151
f 58/151/151 47/150/150 59/152/152
f 47/153/153 46/154/154 59/155/155
f 59/155/155 46/154/154 60/156/156
f 46/157/157 45/158/158 60/159/159
f 60/159/159 45/158/158 55/160/160
f 61/161/161 62/162/162 64/163/163
f 64/163/163 62/162/162 63/164/164
f 62/165/165 65/166/166 63/167/167
f 63/167/167 65/166/166 66/168/168
f 65/169/169 67/170/170 66/171/171
f 66/171/171 67/170/170 68/172/172
f 57/173/173 56/174/174 68/175/175
f 68/175/175 56/174/174 66/176/176
f 66/176/176 56/174/174 59/177/177
f 66/176/176 59/177/177 63/178/178
f 63/178/178 59/177/177 60/179/179
f 63/178/178 60/179/179 44/180/180
f 44/180/180 60/179/179 55/181/181
f 56/174/174 58/182/182 59/177/177
f 43/183/183 64/184/184 44/180/180
f 44/180/180 64/184/184 63/178/178
f 62/185/185 61/186/186 65/187/187
f 65/187/187 61/186/186 67/188/188
f 57/189/189 68/190/190 70/191/191
f 70/191/191 68/190/190 69/192/192
f 53/193/193 52/194/194 72/195/195
f 72/195/195 52/194/194 71/196/196
f 54/197/197 53/198/198 73/199/199
f 73/199/199 53/198/198 72/200/200
f 42/201/201 54/202/202 43/203/203
f 43/203/203 54/202/202 73/204/204
f 43/203/203 73/204/204 74/205/205
f 74/205/205 64/206/206 43/203/203
f 67/207/207 61/208/208 68/209/209
f 68/209/209 61/208/208 64/210/210
f 68/209/209 64/210/210 69/211/211
f 69/211/211 64/210/210 74/212/212
f 50/213/213 57/214/214 51/215/215
f 51/215/215 57/214/214 75/216/216
f 75/216/216 57/214/214 70/217/217
f 52/218/218 51/219/219 71/220/220
f 71/220/220 51/219/219 75/221/221
f 75/222/222 70/223/223 71/224/224
f 71/224/224 70/223/223 69/225/225
f 71/224/224 69/225/225 74/226/226
f 73/227/227 72/228/228 74/226/226
f 74/226/226 72/228/228 71/224/224
g Cuerpo 4

v 1.500000 1.100000 0.000000
v 2.400000 1.100000 0.000000
v 2.400000 1.100000 2.000000
v 1.500000 1.100000 2.000000
v 1.500000 2.000000 0.000000
v 1.500000 2.000000 2.000000
v 1.600000 2.000000 0.000000
v 1.600000 2.000000 2.000000
v 1.600000 2.400000 0.000000
v 1.600000 2.400000 2.000000
v 1.500000 2.400000 0.000000
v 1.500000 2.400000 2.000000
v 1.500000 2.500000 0.000000
v 1.500000 2.500000 2.000000
v 2.400000 2.500000 0.000000
v 2.400000 2.500000 2.000000
vt 0.000000 0.000000 0.000000
vt 0.900000 0.000000 0.000000
vt 0.000000 2.000000 0.000000
vt 0.900000 2.000000 0.000000
vt 0.000000 0.000000 0.000000
vt 0.900000 0.000000 0.000000
vt 0.000000 2.000000 0.000000
vt 0.900000 2.000000 0.000000
vt 0.000000 0.000000 0.000000
vt 0.100000 0.000000 0.000000
vt 0.000000 2.000000 0.000000
vt 0.100000 2.000000 0.000000
vt 0.000000 0.000000 0.000000
vt 0.400000 0.000000 0.000000
vt 0.000000 2.000000 0.000000
vt 0.400000 2.000000 0.000000
vt 0.000000 0.000000 0.000000
vt 0.100000 0.000000 0.000000
vt 0.000000 2.000000 0.000000
vt 0.100000 2.000000 0.000000
vt 0.000000 0.000000 0.000000
vt 0.100000 0.000000 0.000000
vt 0.000000 2.000000 0.000000
vt 0.100000 2.000000 0.000000
vt 0.000000 0.000000 0.000000
vt 0.900000 0.000000 0.000000
vt 0.000000 2.000000 0.000000
vt 0.900000 2.000000 0.000000
vt 0.000000 0.000000 0.000000
vt 1.400000 0.000000 0.000000
vt 0.000000 2.000000 0.000000
vt 1.400000 2.000000 0.000000
vt -0.450000 -0.700000 0.000000
vt 0.450000 -0.700000 0.000000
vt -0.350000 0.200000 0.000000
vt 0.450000 0.700000 0.000000
vt -0.350000 0.600000 0.000000
vt -0.450000 0.700000 0.000000
vt -0.450000 0.600000 0.000000
vt -0.450000 0.200000 0.000000
vt -0.450000 -0.700000 0.000000
vt 0.350000 0.200000 0.000000
vt -0.450000 0.700000 0.000000
vt 0.350000 0.600000 0.000000
vt 0.450000 0.700000 0.000000
vt 0.450000 0.600000 0.000000
vt 0.450000 -0.700000 0.000000
vt 0.450000 0.200000 0.000000
vn 0.000000 -1.000000 0.000000
vn 0.000000 -1.000000 0.000000
vn 0.000000 -1.000000 0.000000
vn 0.000000 -1.000000 0.000000
vn -1.000000 0.000000 0.000000
vn -1.000000 0.000000 0.000000
vn -1.000000 0.000000 0.000000
vn -1.000000 0.000000 0.000000
vn 0.000000 1.000000 -0.000000
vn 0.000000 1.000000 -0.000000
vn 0.000000 1.000000 -0.000000
vn 0.000000 1.000000 -0.000000
vn -1.000000 0.000000 0.000000
vn -1.000000 0.000000 0.000000
vn -1.000000 0.000000 0.000000
vn -1.000000 0.000000 0.000000
vn 0.000000 -1.000000 0.000000
vn 0.000000 -1.000000 0.000000
vn 0.000000 -1.000000 0.000000
vn 0.000000 -1.000000 0.000000
vn -1.000000 0.000000 0.000000
vn -1.000000 0.000000 0.000000
vn -1.000000 0.000000 0.000000
vn -1.000000 0.000000 0.000000
vn 0.000000 1.000000 -0.000000
vn 0.000000 1.000000 -0.000000
vn 0.000000 1.000000 -0.000000
vn 0.000000 1.000000 -0.000000
vn 1.000000 0.000000 0.000000
vn 1.000000 0.000000 0.000000
vn 1.000000 0.000000 0.000000
vn 1.000000 0.000000 0.000000
vn 0.000000 0.000000 1.000000
vn 0.000000 0.000000 1.000000
vn 0.000000 0.000000 1.000000
vn 0.000000 0.000000 1.000000
vn 0.000000 0.000000 1.000000
vn 0.000000 0.000000 1.000000
vn 0.000000 0.000000 1.000000
vn 0.000000 0.000000 1.000000
vn -0.000000 -0.000000 -1.000000
vn -0.000000 -0.000000 -1.000000
vn -0.000000 -0.000000 -1.000000
vn -0.000000 -0.000000 -1.000000
vn -0.000000 -0.000000 -1.000000
vn -0.000000 -0.000000 -1.000000
vn -0.000000 -0.000000 -1.000000
vn -0.000000 -0.000000 -1.000000
f 76/229/229 77/230/230 79/231/231
f 79/231/231 77/230/230 78/232/232
f 80/233/233 76/234/234 81/235/235
f 81/235/235 76/234/234 79/236/236
f 82/237/237 80/238/238 83/239/239
f 83/239/239 80/238/238 81/240/240
f 84/241/241 82/242/242 85/243/243
f 85/243/243 82/242/242 83/244/244
f 86/245/245 84/246/246 87/247/247
f 87/247/247 84/246/246 85/248/248
f 88/249/249 86/250/250 89/251/251
f 89/251/251 86/250/250 87/252/252
f 90/253/253 88/254/254 91/255/255
f 91/255/255 88/254/254 89/256/256
f 77/257/257 90/258/258 78/259/259
f 78/259/259 90/258/258 91/260/260
f 79/261/261 78/262/262 83/263/263
f 83/263/263 78/262/262 91/264/264
f 83/263/263 91/264/264 85/265/265
f 85/265/265 91/264/264 89/266/266
f 85/265/265 89/266/266 87/267/267
f 83/263/263 81/268/268 79/261/261
f 77/269/269 82/270/270 90/271/271
f 90/271/271 82/270/270 84/272/272
f 90/271/271 84/272/272 88/273/273
f 88/273/273 84/272/272 86/274/274
f 77/269/269 76/275/275 82/270/270
f 82/270/270 76/275/275 80/276/276
g Cuerpo 5

v 1.600000 2.700000 0.000000
v 1.500000 2.700000 0.000000
v 1.500000 2.700000 2.000000
v 1.600000 2.700000 2.000000
v 1.600000 3.100000 0.000000
v 1.600000 3.100000 2.000000
v 1.500000 3.100000 0.000000
v 1.500000 3.100000 2.000000
v 1.500000 3.800000 0.000000
v 1.500000 3.800000 2.000000
v 2.400000 3.800000 0.000000
v 2.400000 3.800000 2.000000
v 2.400000 2.550000 0.000000
v 2.400000 2.550000 2.000000
v 1.500000 2.550000 0.000000
v 1.500000 2.550000 2.000000
vt -0.000000 0.000000 0.000000
vt 0.100000 0.000000 0.000000
vt -0.000000 2.000000 0.000000
vt 0.100000 2.000000 0.000000
vt -0.000000 0.000000 0.000000
vt 0.400000 0.000000 0.000000
vt -0.000000 2.000000 0.000000
vt 0.400000 2.000000 0.000000
vt 0.000000 0.000000 0.000000
vt 0.100000 0.000000 0.000000
vt 0.000000 2.000000 0.000000
vt 0.100000 2.000000 0.000000
vt -0.000000 0.000000 0.000000
vt 0.700000 0.000000 0.000000
vt -0.000000 2.000000 0.000000
vt 0.700000 2.000000 0.000000
vt -0.000000 0.000000 0.000000
vt 0.900000 0.000000 0.000000
vt -0.000000 2.000000 0.000000
vt 0.900000 2.000000 0.000000
vt 0.000000 0.000000 0.000000
vt 1.250000 0.000000 0.000000
vt 0.000000 2.000000 0.000000
vt 1.250000 2.000000 0.000000
vt 0.000000 0.000000 0.000000
vt 0.900000 0.000000 0.000000
vt 0.000000 2.000000 0.000000
vt 0.900000 2.000000 0.000000
vt 0.000000 0.000000 0.000000
vt 0.150000 0.000000 0.000000
vt 0.000000 2.000000 0.000000
vt 0.150000 2.000000 0.000000
vt -0.450000 -0.475000 0.000000
vt -0.450000 -0.625000 0.000000
vt -0.350000 -0.475000 0.000000
vt 0.450000 -0.625000 0.000000
vt -0.350000 -0.075000 0.000000
vt 0.450000 0.625000 0.000000
vt -0.450000 0.625000 0.000000
vt -0.450000 -0.075000 0.000000
vt 0.450000 -0.475000 0.000000
vt 0.350000 -0.475000 0.000000
vt 0.450000 -0.625000 0.000000
vt -0.450000 -0.625000 0.000000
vt 0.350000 -0.075000 0.000000
vt -0.450000 0.625000 0.000000
vt 0.450000 0.625000 0.000000
vt 0.450000 -0.075000 0.000000
vn 0.000000 1.000000 0.000000
vn 0.000000 1.000000 0.000000
vn 0.000000 1.000000 0.000000
vn 0.000000 1.000000 0.000000
vn -1.000000 0.000000 0.000000
vn -1.000000 0.000000 0.000000
vn -1.000000 0.000000 0.000000
vn -1.000000 0.000000 0.000000
vn 0.000000 -1.000000 0.000000
vn 0.000000 -1.000000 0.000000
vn 0.000000 -1.000000 0.000000
vn 0.000000 -1.000000 0.000000
vn -1.000000 0.000000 0.000000
vn -1.000000 0.000000 0.000000
vn -1.000000 0.000000 0.000000
vn -1.000000 0.000000 0.000000
vn 0.000000 1.000000 0.000000
vn 0.000000 1.000000 0.000000
vn 0.000000 1.000000 0.000000
vn 0.000000 1.000000 0.000000
vn 1.000000 0.000000 0.000000
vn 1.000000 0.000000 0.000000
vn 1.000000 0.000000 0.000000
vn 1.000000 0.000000 0.000000
vn 0.000000 -1.000000 0.000000
vn 0.000000 -1.000000 0.000000
vn 0.000000 -1.000000 0.000000
vn 0.000000 -1.000000 0.000000
vn -1.000000 0.000000 0.000000
vn -1.000000 0.000000 0.000000
vn -1.000000 0.000000 0.000000
vn -1.000000 0.000000 0.000000
vn 0.000000 0.000000 1.000000
vn 0.000000 0.000000 1.000000
vn 0.000000 0.000000 1.000000
vn 0.000000 0.000000 1.000000
vn 0.000000 0.000000 1.000000
vn 0.000000 0.000000 1.000000
vn 0.000000 0.000000 1.000000
vn 0.000000 0.000000 1.000000
vn 0.000000 -0.000000 -1.000000
vn 0.000000 -0.000000 -1.000000
vn 0.000000 -0.000000 -1.000000
vn 0.000000 -0.000000 -1.000000
vn 0.000000 -0.000000 -1.000000
vn 0.000000 -0.000000 -1.000000
vn 0.000000 -0.000000 -1.000000
vn 0.000000 -0.000000 -1.000000
f 92/277/277 93/278/278 95/279/279
f 95/279/279 93/278/278 94/280/280
f 96/281/281 92/282/282 97/283/283
f 97/283/283 92/282/282 95/284/284
f 98/285/285 96/286/286 99/287/287
f 99/287/287 96/286/286 97/288/288
f 100/289/289 98/290/290 101/291/291
f 101/291/291 98/290/290 99/292/292
f 102/293/293 100/294/294 103/295/295
f 103/295/295 100/294/294 101/296/296
f 104/297/297 102/298/298 105/299/299
f 105/299/299 102/298/298 103/300/300
f 106/301/301 104/302/302 107/303/303
f 107/303/303 104/302/302 105/304/304
f 93/305/305 106/306/306 94/307/307
f 94/307/307 106/306/306 107/308/308
f 94/309/309 107/310/310 95/311/311
f 95/311/311 107/310/310 105/312/312
f 95/311/311 105/312/312 97/313/313
f 97/313/313 105/312/312 103/314/314
f 97/313/313 103/314/314 101/315/315
f 101/315/315 99/316/316 97/313/313
f 93/317/317 92/318/318 106/319/319
f 106/319/319 92/318/318 104/320/320
f 104/320/320 92/318/318 96/321/321
f 104/320/320 96/321/321 102/322/322
f 102/322/322 96/321/321 100/323/323
f 100/323/323 96/321/321 98/324/324
g Cuerpo6

v -0.150000 3.800000 2.000000
v -0.150000 3.800000 0.000000
v -0.150000 2.601207 0.000000
v -0.150000 2.601207 2.000000
v 0.800000 3.800000 0.000000
v 0.800000 3.100000 0.000000
v 0.097787 3.100000 0.000000
v 0.097787 2.650000 0.000000
v 0.697787 2.650000 0.000000
v 0.697787 2.601207 0.000000
v 0.697787 2.650000 1.200000
v 0.697787 3.100000 1.200000
v 0.697787 3.100000 2.000000
v 0.697787 2.601207 2.000000
v 0.800000 3.800000 1.000000
v 0.600000 3.800000 1.000000
v 0.600000 3.800000 2.000000
v 0.800000 3.800000 2.000000
v 0.800000 3.100000 2.000000
v 0.097787 3.100000 1.200000
v 0.097787 2.650000 1.200000
vt 0.000000 0.000000 0.000000
vt 1.198793 0.000000 0.000000
vt -0.000000 2.000000 0.000000
vt 1.198793 2.000000 0.000000
vt 6.250000 0.926204 0.000000
vt 6.250000 2.124997 0.000000
vt 6.002213 1.424997 0.000000
vt 5.300000 2.124997 0.000000
vt 5.300000 1.424997 0.000000
vt 6.002213 0.974997 0.000000
vt 5.402213 0.926204 0.000000
vt 5.402213 0.974997 0.000000
vt 0.000000 0.048793 0.000000
vt -1.200000 0.048793 0.000000
vt 0.000000 0.000000 0.000000
vt -2.000000 0.000000 0.000000
vt -2.000000 0.498793 0.000000
vt -1.200000 0.498793 0.000000
vt 1.000000 0.000000 0.000000
vt 2.000000 0.000000 0.000000
vt 1.000000 0.200000 0.000000
vt 2.000000 0.200000 0.000000
vt -2.000000 1.000000 0.000000
vt -2.000000 0.300000 0.000000
vt -1.000000 1.000000 0.000000
vt 0.000000 0.300000 0.000000
vt 0.000000 1.000000 0.000000
vt 0.200000 1.000000 0.000000
vt 0.200000 0.000000 0.000000
vt 0.400000 1.000000 0.000000
vt 1.150000 0.000000 0.000000
vt 1.150000 2.000000 0.000000
vt 0.400000 2.000000 0.000000
vt -1.200000 -0.800000 0.000000
vt -0.000000 -0.800000 0.000000
vt -1.200000 -0.200000 0.000000
vt -0.000000 -0.097787 0.000000
vt -2.000000 -0.097787 0.000000
vt -2.000000 -0.200000 0.000000
vt -0.000000 0.800000 0.000000
vt -0.450000 0.800000 0.000000
vt -0.000000 0.200000 0.000000
vt -0.450000 0.200000 0.000000
vt -0.000000 0.800000 0.000000
vt -1.200000 0.800000 0.000000
vt -0.000000 0.200000 0.000000
vt -1.200000 0.200000 0.000000
vt 0.600000 0.225000 0.000000
vt -0.600000 0.225000 0.000000
vt 0.600000 -0.225000 0.000000
vt -0.600000 -0.225000 0.000000
vt 0.847787 2.000000 0.000000
vt 0.000000 2.000000 0.000000
vt 0.847787 0.000000 0.000000
vt 0.000000 0.000000 0.000000
vt 0.375000 0.599397 0.000000
vt 0.175000 0.599397 0.000000
vt 0.272787 -0.100603 0.000000
vt -0.575000 0.599397 0.000000
vt -0.575000 -0.599397 0.000000
vt 0.272787 -0.599397 0.000000
vt 0.375000 -0.100603 0.000000
vn -1.000000 0.000000 0.000000
vn -1.000000 0.000000 0.000000
vn -1.000000 0.000000 0.000000
vn -1.000000 0.000000 0.000000
vn -0.000000 0.000000 -1.000000
vn -0.000000 0.000000 -1.000000
vn -0.000000 0.000000 -1.000000
vn -0.000000 0.000000 -1.000000
vn -0.000000 0.000000 -1.000000
vn -0.000000 0.000000 -1.000000
vn -0.000000 0.000000 -1.000000
vn -0.000000 0.000000 -1.000000
vn 1.000000 0.000000 0.000000
vn 1.000000 0.000000 0.000000
vn 1.000000 0.000000 0.000000
vn 1.000000 0.000000 0.000000
vn 1.000000 0.000000 0.000000
vn 1.000000 0.000000 0.000000
vn -0.000000 1.000000 0.000000
vn -0.000000 1.000000 0.000000
vn -0.000000 1.000000 0.000000
vn -0.000000 1.000000 0.000000
vn 1.000000 0.000000 0.000000
vn 1.000000 0.000000 0.000000
vn 1.000000 0.000000 0.000000
vn 1.000000 0.000000 0.000000
vn 1.000000 0.000000 0.000000
vn -0.000000 1.000000 0.000000
vn -0.000000 1.000000 0.000000
vn -0.000000 1.000000 0.000000
vn -0.000000 1.000000 0.000000
vn -0.000000 1.000000 0.000000
vn -0.000000 1.000000 0.000000
vn -0.000000 -1.000000 -0.000000
vn -0.000000 -1.000000 -0.000000
vn -0.000000 -1.000000 -0.000000
vn -0.000000 -1.000000 -0.000000
vn -0.000000 -1.000000 -0.000000
vn -0.000000 -1.000000 -0.000000
vn -0.000000 -0.000000 -1.000000
vn -0.000000 -0.000000 -1.000000
vn -0.000000 -0.000000 -1.000000
vn -0.000000 -0.000000 -1.000000
vn -0.000000 1.000000 -0.000000
vn -0.000000 1.000000 -0.000000
vn -0.000000 1.000000 -0.000000
vn -0.000000 1.000000 -0.000000
vn 1.000000 -0.000000 -0.000000
vn 1.000000 -0.000000 -0.000000
vn 1.000000 -0.000000 -0.000000
vn 1.000000 -0.000000 -0.000000
vn 0.000000 -1.000000 0.000000
vn 0.000000 -1.000000 0.000000
vn 0.000000 -1.000000 0.000000
vn 0.000000 -1.000000 0.000000
vn 0.000000 0.000000 1.000000
vn 0.000000 0.000000 1.000000
vn 0.000000 0.000000 1.000000
vn 0.000000 0.000000 1.000000
vn 0.000000 0.000000 1.000000
vn 0.000000 0.000000 1.000000
vn 0.000000 0.000000 1.000000
f 109/325/325 110/326/326 108/327/327
f 108/327/327 110/326/326 111/328/328
f 110/329/329 109/330/330 114/331/331
f 114/331/331 109/330/330 112/332/332
f 114/331/331 112/332/332 113/333/333
f 114/331/331 115/334/334 110/329/329
f 110/329/329 115/334/334 117/335/335
f 117/335/335 115/334/334 116/336/336
f 116/337/337 118/338/338 117/339/339
f 117/339/339 118/338/338 121/340/340
f 121/340/340 118/338/338 120/341/341
f 120/341/341 118/338/338 119/342/342
f 123/343/343 124/344/344 122/345/345
f 122/345/345 124/344/344 125/346/346
f 125/347/347 126/348/348 122/349/349
f 122/349/349 126/348/348 113/350/350
f 122/349/349 113/350/350 112/351/351
f 122/352/352 112/353/353 123/354/354
f 123/354/354 112/353/353 109/355/355
f 123/354/354 109/355/355 108/356/356
f 108/356/356 124/357/357 123/354/354
f 127/358/358 114/359/359 119/360/360
f 119/360/360 114/359/359 113/361/361
f 119/360/360 113/361/361 126/362/362
f 126/362/362 120/363/363 119/360/360
f 128/364/364 127/365/365 118/366/366
f 118/366/366 127/365/365 119/367/367
f 115/368/368 128/369/369 116/370/370
f 116/370/370 128/369/369 118/371/371
f 114/372/372 127/373/373 115/374/374
f 115/374/374 127/373/373 128/375/375
f 121/376/376 111/377/377 117/378/378
f 117/378/378 111/377/377 110/379/379
f 125/380/380 124/381/381 120/382/382
f 120/382/382 124/381/381 108/383/383
f 120/382/382 108/383/383 111/384/384
f 111/384/384 121/385/385 120/382/382
f 120/382/382 126/386/386 125/380/380
g Cuerpo 8

v 11.650000 3.800000 0.000000
v 11.650000 3.800000 1.000000
v 0.550000 3.800000 1.000000
v -0.150000 3.800000 1.000000
v -0.150000 3.800000 0.000000
v 5.750000 3.800000 0.000000
v -0.150000 -0.050000 1.000000
v -0.150000 -0.050000 0.000000
v 3.300000 -0.050000 1.000000
v 3.300000 -0.050000 0.000000
v -0.200000 3.850000 0.000000
v -0.200000 -0.100000 0.000000
v -0.200000 -0.100000 1.000000
v -0.200000 3.850000 1.000000
v 3.300000 -0.100000 0.000000
v 3.300000 -0.100000 1.000000
v 0.500000 3.850000 1.000000
v 0.500000 3.850000 0.000000
v 11.679389 3.850006 0.000000
v 11.679389 3.850006 1.000000
v 11.679390 3.800000 0.000000
v 11.679390 3.800000 1.000000
v 7.650000 -0.450000 0.000000
v 7.650000 -0.050000 0.000000
v 7.650000 -0.050000 1.000000
v 7.650000 -0.450000 1.000000
v 4.500000 -0.100000 0.000000
v 7.600000 -0.100000 0.000000
v 7.600000 -0.100000 1.000000
v 4.500000 -0.100000 1.000000
v 4.500000 -0.050000 0.000000
v 4.500000 -0.050000 1.000000
v 8.380000 -0.450000 1.000000
v 8.380000 -0.450000 0.000000
v 11.650000 -0.450000 1.000000
v 11.650000 -0.450000 0.000000
v 11.679390 3.782440 0.000000
v 11.679390 3.782440 1.000000
v 11.700000 1.000000 0.000000
v 11.700000 1.000000 1.000000
v 8.400000 -0.450000 0.000000
v 8.400000 -0.450000 1.000000
v 11.700000 -0.500000 1.000000
v 11.700000 -0.500000 0.000000
v 7.600000 -0.500000 1.000000
v 8.400000 -0.500000 1.000000
v 7.600000 -0.500000 0.000000
v 8.400000 -0.500000 0.000000
vt 11.100000 0.000000 0.000000
vt 11.100000 1.000000 0.000000
vt 5.200000 0.000000 0.000000
vt 0.000000 1.000000 0.000000
vt -0.700000 0.000000 0.000000
vt -0.700000 1.000000 0.000000
vt -0.000000 3.850000 0.000000
vt -1.000000 3.850000 0.000000
vt -0.000000 0.000000 0.000000
vt -1.000000 0.000000 0.000000
vt 3.450000 1.000000 0.000000
vt 0.000000 1.000000 0.000000
vt 3.450000 0.000000 0.000000
vt 0.000000 0.000000 0.000000
vt 0.000000 -3.950000 0.000000
vt 1.000000 -3.950000 0.000000
vt 0.000000 0.000000 0.000000
vt 1.000000 0.000000 0.000000
vt 0.000000 0.000000 0.000000
vt 0.050000 0.000000 0.000000
vt 0.000000 1.000000 0.000000
vt 0.050000 1.000000 0.000000
vt -0.700000 0.000000 0.000000
vt 2.800000 0.000000 0.000000
vt -0.700000 1.000000 0.000000
vt 2.800000 1.000000 0.000000
vt -0.000000 0.000000 0.000000
vt 1.000000 0.000000 0.000000
vt 0.000000 0.700000 0.000000
vt 1.000000 0.700000 0.000000
vt -0.000000 0.000000 0.000000
vt 11.179389 0.000000 0.000000
vt -0.000000 1.000000 0.000000
vt 11.179389 1.000000 0.000000
vt 0.000000 0.000000 0.000000
vt 0.050006 0.000000 0.000000
vt 0.000000 1.000000 0.000000
vt 0.050006 1.000000 0.000000
vt 0.000000 0.000000 0.000000
vt 0.400000 0.000000 0.000000
vt 0.000000 1.000000 0.000000
vt 0.400000 1.000000 0.000000
vt 0.000000 0.000000 0.000000
vt 3.100000 0.000000 0.000000
vt 0.000000 1.000000 0.000000
vt 3.100000 1.000000 0.000000
vt 0.000000 0.000000 0.000000
vt 0.050000 0.000000 0.000000
vt 0.000000 1.000000 0.000000
vt 0.050000 1.000000 0.000000
vt 0.000000 0.000000 0.000000
vt 3.150000 0.000000 0.000000
vt 0.000000 1.000000 0.000000
vt 3.150000 1.000000 0.000000
vt 0.730000 1.000000 0.000000
vt 0.000000 1.000000 0.000000
vt 0.730000 0.000000 0.000000
vt 0.000000 0.000000 0.000000
vt 4.250000 1.000000 0.000000
vt -0.000000 1.000000 0.000000
vt 4.250000 0.000000 0.000000
vt -0.000000 0.000000 0.000000
vt 0.000000 0.000000 0.000000
vt 0.017560 0.000000 0.000000
vt 0.000000 1.000000 0.000000
vt 0.017560 1.000000 0.000000
vt 0.000000 0.000000 0.000000
vt 2.782516 0.000000 0.000000
vt 0.000000 1.000000 0.000000
vt 2.782516 1.000000 0.000000
vt -0.000000 0.000000 0.000000
vt 3.250000 0.000000 0.000000
vt -0.000000 1.000000 0.000000
vt 3.250000 1.000000 0.000000
vt 1.500000 1.000000 0.000000
vt 0.000000 1.000000 0.000000
vt 1.500000 0.000000 0.000000
vt 0.000000 0.000000 0.000000
vt 2.300000 -2.125003 0.000000
vt 2.300000 -2.175003 0.000000
vt 5.550000 -2.125003 0.000000
vt 5.600000 -2.175003 0.000000
vt 5.600000 -0.675003 0.000000
vt 2.280000 -2.125003 0.000000
vt 1.550000 -2.125003 0.000000
vt 1.500000 -2.175003 0.000000
vt 1.500000 -1.775003 0.000000
vt 1.550000 -1.725003 0.000000
vt -1.600000 -1.725003 0.000000
vt -1.600000 -1.775003 0.000000
vt 5.550000 2.124997 0.000000
vt 5.579389 2.107437 0.000000
vt 5.579389 2.124997 0.000000
vt 5.579389 2.175003 0.000000
vt -5.550000 2.124997 0.000000
vt -5.600000 2.174997 0.000000
vt -6.250000 2.124997 0.000000
vt -6.300000 2.174997 0.000000
vt -6.300000 -1.775003 0.000000
vt -6.250000 -1.725003 0.000000
vt -2.800000 -1.775003 0.000000
vt -2.800000 -1.725003 0.000000
vt 0.000000 0.000000 0.000000
vt 0.400000 0.000000 0.000000
vt 0.000000 1.000000 0.000000
vt 0.400000 1.000000 0.000000
vt -0.000000 0.000000 0.000000
vt 0.020000 0.000000 0.000000
vt -0.000000 1.000000 0.000000
vt 0.020000 1.000000 0.000000
vt 0.000000 0.000000 0.000000
vt 3.300000 0.000000 0.000000
vt 0.000000 1.000000 0.000000
vt 3.300000 1.000000 0.000000
vt 0.000000 0.000000 0.000000
vt 0.800000 0.000000 0.000000
vt 0.000000 1.000000 0.000000
vt 0.800000 1.000000 0.000000
vt -2.280000 -2.125003 0.000000
vt -2.300000 -2.125003 0.000000
vt -2.300000 -2.175003 0.000000
vt -5.550000 -2.125003 0.000000
vt -5.600000 -2.175003 0.000000
vt -5.600000 -0.675003 0.000000
vt -5.550000 2.124997 0.000000
vt -5.579389 2.107437 0.000000
vt -5.579389 2.124997 0.000000
vt -5.579389 2.175003 0.000000
vt 0.350000 2.124997 0.000000
vt 5.600000 2.174997 0.000000
vt 6.250000 2.124997 0.000000
vt 6.300000 2.174997 0.000000
vt 6.300000 -1.775003 0.000000
vt 6.250000 -1.725003 0.000000
vt 2.800000 -1.775003 0.000000
vt 2.800000 -1.725003 0.000000
vt -1.550000 -2.125003 0.000000
vt -1.500000 -2.175003 0.000000
vt -1.500000 -1.775003 0.000000
vt 1.600000 -1.775003 0.000000
vt 1.600000 -1.725003 0.000000
vt -1.550000 -1.725003 0.000000
vn 0.000000 -1.000000 0.000000
vn 0.000000 -1.000000 0.000000
vn 0.000000 -1.000000 0.000000
vn 0.000000 -1.000000 0.000000
vn 0.000000 -1.000000 0.000000
vn 0.000000 -1.000000 0.000000
vn 1.000000 -0.000000 -0.000000
vn 1.000000 -0.000000 -0.000000
vn 1.000000 -0.000000 -0.000000
vn 1.000000 -0.000000 -0.000000
vn 0.000000 1.000000 -0.000000
vn 0.000000 1.000000 -0.000000
vn 0.000000 1.000000 -0.000000
vn 0.000000 1.000000 -0.000000
vn -1.000000 0.000000 0.000000
vn -1.000000 0.000000 0.000000
vn -1.000000 0.000000 0.000000
vn -1.000000 0.000000 0.000000
vn 1.000000 0.000000 0.000000
vn 1.000000 0.000000 0.000000
vn 1.000000 0.000000 0.000000
vn 1.000000 0.000000 0.000000
vn 0.000000 -1.000000 0.000000
vn 0.000000 -1.000000 0.000000
vn 0.000000 -1.000000 0.000000
vn 0.000000 -1.000000 0.000000
vn 0.000000 1.000000 -0.000000
vn 0.000000 1.000000 -0.000000
vn 0.000000 1.000000 -0.000000
vn 0.000000 1.000000 -0.000000
vn -0.000001 1.000000 0.000000
vn -0.000001 1.000000 0.000000
vn -0.000001 1.000000 0.000000
vn -0.000001 1.000000 0.000000
vn 1.000000 0.000001 -0.000000
vn 1.000000 0.000001 -0.000000
vn 1.000000 0.000001 -0.000000
vn 1.000000 0.000001 -0.000000
vn 1.000000 0.000000 0.000000
vn 1.000000 0.000000 0.000000
vn 1.000000 0.000000 0.000000
vn 1.000000 0.000000 0.000000
vn 0.000000 -1.000000 0.000000
vn 0.000000 -1.000000 0.000000
vn 0.000000 -1.000000 0.000000
vn 0.000000 -1.000000 0.000000
vn -1.000000 0.000000 0.000000
vn -1.000000 0.000000 0.000000
vn -1.000000 0.000000 0.000000
vn -1.000000 0.000000 0.000000
vn 0.000000 1.000000 -0.000000
vn 0.000000 1.000000 -0.000000
vn 0.000000 1.000000 -0.000000
vn 0.000000 1.000000 -0.000000
vn -0.000000 1.000000 0.000000
vn -0.000000 1.000000 0.000000
vn -0.000000 1.000000 0.000000
vn -0.000000 1.000000 0.000000
vn -1.000000 0.000000 0.000000
vn -1.000000 0.000000 0.000000
vn -1.000000 0.000000 0.000000
vn -1.000000 0.000000 0.000000
vn 1.000000 0.000000 -0.000000
vn 1.000000 0.000000 -0.000000
vn 1.000000 0.000000 -0.000000
vn 1.000000 0.000000 -0.000000
vn 0.999973 0.007407 -0.000000
vn 0.999973 0.007407 -0.000000
vn 0.999973 0.007407 -0.000000
vn 0.999973 0.007407 -0.000000
vn 0.000000 1.000000 0.000000
vn 0.000000 1.000000 0.000000
vn 0.000000 1.000000 0.000000
vn 0.000000 1.000000 0.000000
vn 1.000000 0.000000 -0.000000
vn 1.000000 0.000000 -0.000000
vn 1.000000 0.000000 -0.000000
vn 1.000000 0.000000 -0.000000
vn 0.000000 0.000000 1.000000
vn 0.000000 0.000000 1.000000
vn 0.000000 0.000000 1.000000
vn 0.000000 0.000000 1.000000
vn 0.000000 0.000000 1.000000
vn 0.000000 0.000000 1.000000
vn 0.000000 0.000000 1.000000
vn 0.000000 0.000000 1.000000
vn 0.000000 0.000000 1.000000
vn 0.000000 0.000000 1.000000
vn 0.000000 0.000000 1.000000
vn 0.000000 0.000000 1.000000
vn 0.000000 0.000000 1.000000
vn 0.000000 0.000000 1.000000
vn 0.000000 0.000000 1.000000
vn 0.000000 0.000000 1.000000
vn 0.000000 0.000000 1.000000
vn 0.000000 0.000000 1.000000
vn 0.000000 0.000000 1.000000
vn 0.000000 0.000000 1.000000
vn 0.000000 0.000000 1.000000
vn 0.000000 0.000000 1.000000
vn 0.000000 0.000000 1.000000
vn 0.000000 0.000000 1.000000
vn -1.000000 0.000000 0.000000
vn -1.000000 0.000000 0.000000
vn -1.000000 0.000000 0.000000
vn -1.000000 0.000000 0.000000
vn -0.000000 1.000000 0.000000
vn -0.000000 1.000000 0.000000
vn -0.000000 1.000000 0.000000
vn -0.000000 1.000000 0.000000
vn -0.000000 -1.000000 0.000000
vn -0.000000 -1.000000 0.000000
vn -0.000000 -1.000000 0.000000
vn -0.000000 -1.000000 0.000000
vn 0.000000 -1.000000 0.000000
vn 0.000000 -1.000000 0.000000
vn 0.000000 -1.000000 0.000000
vn 0.000000 -1.000000 0.000000
vn -0.000000 0.000000 -1.000000
vn -0.000000 0.000000 -1.000000
vn -0.000000 0.000000 -1.000000
vn -0.000000 0.000000 -1.000000
vn -0.000000 0.000000 -1.000000
vn -0.000000 0.000000 -1.000000
vn -0.000000 0.000000 -1.000000
vn -0.000000 0.000000 -1.000000
vn -0.000000 0.000000 -1.000000
vn -0.000000 0.000000 -1.000000
vn -0.000000 0.000000 -1.000000
vn -0.000000 0.000000 -1.000000
vn -0.000000 0.000000 -1.000000
vn -0.000000 0.000000 -1.000000
vn -0.000000 0.000000 -1.000000
vn -0.000000 0.000000 -1.000000
vn -0.000000 0.000000 -1.000000
vn -0.000000 0.000000 -1.000000
vn -0.000000 0.000000 -1.000000
vn -0.000000 0.000000 -1.000000
vn -0.000000 0.000000 -1.000000
vn -0.000000 0.000000 -1.000000
vn -0.000000 0.000000 -1.000000
vn -0.000000 0.000000 -1.000000
usemtl Acero_-_Satinado
f 129/387/387 130/388/388 134/389/389
f 134/389/389 130/388/388 131/390/390
f 134/389/389 131/390/390 133/391/391
f 133/391/391 131/390/390 132/392/392
f 133/393/393 132/394/394 136/395/395
f 136/395/395 132/394/394 135/396/396
f 135/397/397 137/398/398 136/399/399
f 136/399/399 137/398/398 138/400/400
f 140/401/401 141/402/402 139/403/403
f 139/403/403 141/402/402 142/404/404
f 143/405/405 138/406/406 144/407/407
f 144/407/407 138/406/406 137/408/408
f 140/409/409 143/410/410 141/411/411
f 141/411/411 143/410/410 144/412/412
f 145/413/413 146/414/414 142/415/415
f 142/415/415 146/414/414 139/416/416
f 147/417/417 146/418/418 148/419/419
f 148/419/419 146/418/418 145/420/420
f 149/421/421 147/422/422 150/423/423
f 150/423/423 147/422/422 148/424/424
f 151/425/425 152/426/426 154/427/427
f 154/427/427 152/426/426 153/428/428
f 155/429/429 156/430/430 158/431/431
f 158/431/431 156/430/430 157/432/432
f 159/433/433 155/434/434 160/435/435
f 160/435/435 155/434/434 158/436/436
f 152/437/437 159/438/438 153/439/439
f 153/439/439 159/438/438 160/440/440
f 154/441/441 161/442/442 151/443/443
f 151/443/443 161/442/442 162/444/444
f 163/445/445 130/446/446 164/447/447
f 164/447/447 130/446/446 129/448/448
f 165/449/449 149/450/450 166/451/451
f 166/451/451 149/450/450 150/452/452
f 167/453/453 165/454/454 168/455/455
f 168/455/455 165/454/454 166/456/456
f 164/457/457 169/458/458 163/459/459
f 163/459/459 169/458/458 170/460/460
f 168/461/461 171/462/462 167/463/463
f 167/463/463 171/462/462 172/464/464
f 170/465/465 174/466/466 163/467/467
f 163/467/467 174/466/466 171/468/468
f 163/467/467 171/468/468 168/469/469
f 170/465/465 161/470/470 174/466/466
f 174/466/466 161/470/470 154/471/471
f 174/466/466 154/471/471 173/472/472
f 173/472/472 154/471/471 157/473/473
f 157/473/473 154/471/471 153/474/474
f 157/473/473 153/474/474 160/475/475
f 160/475/475 158/476/476 157/473/473
f 163/467/467 168/469/469 130/477/477
f 130/477/477 168/469/469 166/478/478
f 130/477/477 166/478/478 150/479/479
f 150/479/479 148/480/480 130/477/477
f 130/477/477 148/480/480 131/481/481
f 131/481/481 148/480/480 145/482/482
f 131/481/481 145/482/482 132/483/483
f 132/483/483 145/482/482 142/484/484
f 132/483/483 142/484/484 141/485/485
f 132/483/483 141/485/485 135/486/486
f 135/486/486 141/485/485 144/487/487
f 135/486/486 144/487/487 137/488/488
f 156/489/489 175/490/490 157/491/491
f 157/491/491 175/490/490 173/492/492
f 169/493/493 162/494/494 170/495/495
f 170/495/495 162/494/494 161/496/496
f 176/497/497 172/498/498 174/499/499
f 174/499/499 172/498/498 171/500/500
f 175/501/501 176/502/502 173/503/503
f 173/503/503 176/502/502 174/504/504
f 162/505/505 169/506/506 176/507/507
f 176/507/507 169/506/506 164/508/508
f 176/507/507 164/508/508 172/509/509
f 172/509/509 164/508/508 167/510/510
f 167/510/510 164/508/508 129/511/511
f 167/510/510 129/511/511 165/512/512
f 165/512/512 129/511/511 149/513/513
f 149/513/513 129/511/511 147/514/514
f 147/514/514 129/511/511 134/515/515
f 147/514/514 134/515/515 146/516/516
f 146/516/516 134/515/515 133/517/517
f 146/516/516 133/517/517 139/518/518
f 139/518/518 133/517/517 140/519/519
f 140/519/519 133/517/517 136/520/520
f 140/519/519 136/520/520 143/521/521
f 143/521/521 136/520/520 138/522/522
f 162/505/505 176/507/507 151/523/523
f 151/523/523 176/507/507 175/524/524
f 151/523/523 175/524/524 156/525/525
f 155/526/526 159/527/527 156/525/525
f 156/525/525 159/527/527 152/528/528
f 156/525/525 152/528/528 151/523/523
g Cuerpo 9

v 11.700000 -0.100000 0.000000
v 11.700000 -0.050000 0.000000
v 11.700000 -0.050000 0.500000
v 11.700000 -0.100000 0.500000
v 8.000000 -0.050000 0.000000
v 8.000000 -0.100000 0.000000
v 8.000000 -0.100000 0.500000
v 8.000000 -0.050000 0.500000
v 8.500000 -0.100000 0.000000
v 8.400000 -0.100000 0.000000
v 8.400000 -0.100000 -0.100000
v 8.600000 -0.100000 -0.100000
v 8.600000 -0.450000 -0.100000
v 8.400000 -0.450000 -0.100000
v 8.500000 -0.450000 -0.050000
v 8.500000 -0.450000 0.000000
v 8.400000 -0.450000 0.000000
v 8.600000 -0.450000 -0.050000
v 8.600000 -0.100000 -0.050000
v 8.500000 -0.100000 -0.050000
v 8.600000 -0.100000 -0.150000
v 8.700000 -0.100000 -0.150000
v 8.700000 -0.450000 -0.150000
v 8.600000 -0.450000 -0.150000
v 8.700000 -0.450000 -0.100000
v 8.700000 -0.100000 -0.100000
v 8.700000 -0.100000 -0.200000
v 8.800000 -0.100000 -0.200000
v 8.800000 -0.450000 -0.200000
v 8.700000 -0.450000 -0.200000
v 8.800000 -0.450000 -0.150000
v 8.800000 -0.100000 -0.150000
v 8.800000 -0.100000 -0.250000
v 8.900000 -0.100000 -0.250000
v 8.900000 -0.450000 -0.250000
v 8.800000 -0.450000 -0.250000
v 8.900000 -0.450000 -0.200000
v 8.900000 -0.100000 -0.200000
v 8.900000 -0.100000 -0.300000
v 9.000000 -0.100000 -0.300000
v 9.000000 -0.450000 -0.300000
v 8.900000 -0.450000 -0.300000
v 9.000000 -0.450000 -0.250000
v 9.000000 -0.100000 -0.250000
v 9.000000 -0.100000 -0.350000
v 9.100000 -0.100000 -0.350000
v 9.100000 -0.450000 -0.350000
v 9.000000 -0.450000 -0.350000
v 9.100000 -0.450000 -0.300000
v 9.100000 -0.100000 -0.300000
v 9.100000 -0.100000 -0.400000
v 9.200000 -0.100000 -0.400000
v 9.200000 -0.450000 -0.400000
v 9.100000 -0.450000 -0.400000
v 9.200000 -0.450000 -0.350000
v 9.200000 -0.100000 -0.350000
v 9.200000 -0.100000 -0.450000
v 9.300000 -0.100000 -0.450000
v 9.300000 -0.450000 -0.450000
v 9.200000 -0.450000 -0.450000
v 9.300000 -0.450000 -0.400000
v 9.300000 -0.100000 -0.400000
v 9.300000 -0.100000 -0.500000
v 9.400000 -0.100000 -0.500000
v 9.400000 -0.450000 -0.500000
v 9.300000 -0.450000 -0.500000
v 9.400000 -0.450000 -0.450000
v 9.400000 -0.100000 -0.450000
v 9.500000 -0.100000 -0.500000
v 9.500000 -0.450000 -0.500000
v 9.400000 -0.100000 -0.550000
v 9.400000 -0.450000 -0.550000
v 9.500000 -0.100000 -0.550000
v 9.500000 -0.450000 -0.550000
vt 0.000000 0.050000 0.000000
vt -0.500000 0.050000 0.000000
vt 0.000000 0.000000 0.000000
vt -0.500000 0.000000 0.000000
vt -0.000000 0.000000 0.000000
vt 0.050000 0.000000 0.000000
vt -0.000000 0.500000 0.000000
vt 0.050000 0.500000 0.000000
vt -0.700000 0.000000 0.000000
vt 3.000000 0.000000 0.000000
vt -0.700000 0.500000 0.000000
vt 3.000000 0.500000 0.000000
vt 3.700000 0.000000 0.000000
vt 3.700000 0.500000 0.000000
vt 0.500000 0.000000 0.000000
vt 0.000000 0.500000 0.000000
vt 0.400000 0.000000 0.000000
vt 0.000000 0.000000 0.000000
vt 2.200000 -0.025000 0.000000
vt 2.200000 0.025000 0.000000
vt -1.500000 -0.025000 0.000000
vt -1.500000 0.025000 0.000000
vt -2.200000 -0.025000 0.000000
vt 1.000000 -0.025000 0.000000
vt -2.200000 0.025000 0.000000
vt 1.500000 0.025000 0.000000
vt 1.100000 -0.025000 0.000000
vt 1.500000 -0.025000 0.000000
vt 0.050000 0.175000 0.000000
vt -0.150000 0.175000 0.000000
vt 0.050000 -0.175000 0.000000
vt -0.150000 -0.175000 0.000000
vt 0.000000 0.000000 0.000000
vt 0.100000 0.000000 0.000000
vt 0.000000 0.050000 0.000000
vt 0.100000 0.100000 0.000000
vt -0.100000 0.100000 0.000000
vt -0.100000 0.050000 0.000000
vt 0.000000 0.000000 0.000000
vt 0.350000 0.000000 0.000000
vt 0.000000 0.100000 0.000000
vt 0.350000 0.100000 0.000000
vt 0.000000 0.050000 0.000000
vt 0.350000 0.050000 0.000000
vt 0.000000 0.100000 0.000000
vt 0.350000 0.100000 0.000000
vt 0.100000 0.000000 0.000000
vt 0.100000 0.050000 0.000000
vt 0.000000 0.000000 0.000000
vt 0.000000 0.100000 0.000000
vt 0.200000 0.100000 0.000000
vt 0.200000 0.050000 0.000000
vt 0.050000 0.175000 0.000000
vt -0.050000 0.175000 0.000000
vt 0.050000 -0.175000 0.000000
vt -0.050000 -0.175000 0.000000
vt 0.050000 0.175000 0.000000
vt -0.050000 0.175000 0.000000
vt 0.050000 -0.175000 0.000000
vt -0.050000 -0.175000 0.000000
vt -0.350000 0.000000 0.000000
vt -0.000000 0.000000 0.000000
vt -0.350000 0.050000 0.000000
vt -0.000000 0.050000 0.000000
vt 0.050000 0.175000 0.000000
vt -0.050000 0.175000 0.000000
vt 0.050000 -0.175000 0.000000
vt -0.050000 -0.175000 0.000000
vt 0.000000 0.100000 0.000000
vt 0.100000 0.100000 0.000000
vt 0.000000 0.150000 0.000000
vt 0.100000 0.150000 0.000000
vt 0.000000 0.100000 0.000000
vt 0.350000 0.100000 0.000000
vt 0.000000 0.150000 0.000000
vt 0.350000 0.150000 0.000000
vt 0.050000 0.175000 0.000000
vt -0.050000 0.175000 0.000000
vt 0.050000 -0.175000 0.000000
vt -0.050000 -0.175000 0.000000
vt 0.050000 0.175000 0.000000
vt -0.050000 0.175000 0.000000
vt 0.050000 -0.175000 0.000000
vt -0.050000 -0.175000 0.000000
vt 0.000000 0.150000 0.000000
vt 0.350000 0.150000 0.000000
vt 0.000000 0.200000 0.000000
vt 0.350000 0.200000 0.000000
vt -0.100000 0.150000 0.000000
vt 0.000000 0.150000 0.000000
vt -0.100000 0.200000 0.000000
vt 0.000000 0.200000 0.000000
vt 0.000000 0.150000 0.000000
vt 0.350000 0.150000 0.000000
vt 0.000000 0.200000 0.000000
vt 0.350000 0.200000 0.000000
vt 0.100000 0.150000 0.000000
vt 0.000000 0.150000 0.000000
vt 0.100000 0.100000 0.000000
vt 0.000000 0.100000 0.000000
vt 0.200000 0.150000 0.000000
vt 0.100000 0.200000 0.000000
vt 0.200000 0.200000 0.000000
vt 0.050000 0.175000 0.000000
vt -0.050000 0.175000 0.000000
vt 0.050000 -0.175000 0.000000
vt -0.050000 -0.175000 0.000000
vt -0.350000 0.100000 0.000000
vt -0.000000 0.100000 0.000000
vt -0.350000 0.150000 0.000000
vt -0.000000 0.150000 0.000000
vt 0.050000 0.175000 0.000000
vt -0.050000 0.175000 0.000000
vt 0.050000 -0.175000 0.000000
vt -0.050000 -0.175000 0.000000
vt 0.000000 0.200000 0.000000
vt 0.100000 0.200000 0.000000
vt 0.000000 0.250000 0.000000
vt 0.100000 0.250000 0.000000
vt 0.000000 0.200000 0.000000
vt 0.350000 0.200000 0.000000
vt 0.000000 0.250000 0.000000
vt 0.350000 0.250000 0.000000
vt 0.050000 0.175000 0.000000
vt -0.050000 0.175000 0.000000
vt 0.050000 -0.175000 0.000000
vt -0.050000 -0.175000 0.000000
vt 0.050000 0.175000 0.000000
vt -0.050000 0.175000 0.000000
vt 0.050000 -0.175000 0.000000
vt -0.050000 -0.175000 0.000000
vt 0.000000 0.250000 0.000000
vt 0.350000 0.250000 0.000000
vt 0.000000 0.300000 0.000000
vt 0.350000 0.300000 0.000000
vt -0.100000 0.250000 0.000000
vt 0.000000 0.250000 0.000000
vt -0.100000 0.300000 0.000000
vt 0.000000 0.300000 0.000000
vt 0.000000 0.250000 0.000000
vt 0.350000 0.250000 0.000000
vt 0.000000 0.300000 0.000000
vt 0.350000 0.300000 0.000000
vt 0.100000 0.250000 0.000000
vt 0.000000 0.250000 0.000000
vt 0.100000 0.200000 0.000000
vt 0.000000 0.200000 0.000000
vt 0.200000 0.250000 0.000000
vt 0.100000 0.300000 0.000000
vt 0.200000 0.300000 0.000000
vt 0.050000 0.175000 0.000000
vt -0.050000 0.175000 0.000000
vt 0.050000 -0.175000 0.000000
vt -0.050000 -0.175000 0.000000
vt -0.350000 0.200000 0.000000
vt -0.000000 0.200000 0.000000
vt -0.350000 0.250000 0.000000
vt -0.000000 0.250000 0.000000
vt 0.050000 0.175000 0.000000
vt -0.050000 0.175000 0.000000
vt 0.050000 -0.175000 0.000000
vt -0.050000 -0.175000 0.000000
vt 0.000000 0.300000 0.000000
vt 0.100000 0.300000 0.000000
vt 0.000000 0.350000 0.000000
vt 0.100000 0.350000 0.000000
vt 0.000000 0.300000 0.000000
vt 0.350000 0.300000 0.000000
vt 0.000000 0.350000 0.000000
vt 0.350000 0.350000 0.000000
vt 0.050000 0.175000 0.000000
vt -0.050000 0.175000 0.000000
vt 0.050000 -0.175000 0.000000
vt -0.050000 -0.175000 0.000000
vt 0.050000 0.175000 0.000000
vt -0.050000 0.175000 0.000000
vt 0.050000 -0.175000 0.000000
vt -0.050000 -0.175000 0.000000
vt 0.000000 0.350000 0.000000
vt 0.350000 0.350000 0.000000
vt 0.000000 0.400000 0.000000
vt 0.350000 0.400000 0.000000
vt -0.100000 0.350000 0.000000
vt 0.000000 0.350000 0.000000
vt -0.100000 0.400000 0.000000
vt 0.000000 0.400000 0.000000
vt 0.000000 0.350000 0.000000
vt 0.350000 0.350000 0.000000
vt 0.000000 0.400000 0.000000
vt 0.350000 0.400000 0.000000
vt 0.100000 0.350000 0.000000
vt 0.000000 0.350000 0.000000
vt 0.100000 0.300000 0.000000
vt 0.000000 0.300000 0.000000
vt 0.200000 0.350000 0.000000
vt 0.100000 0.400000 0.000000
vt 0.200000 0.400000 0.000000
vt 0.050000 0.175000 0.000000
vt -0.050000 0.175000 0.000000
vt 0.050000 -0.175000 0.000000
vt -0.050000 -0.175000 0.000000
vt -0.350000 0.300000 0.000000
vt -0.000000 0.300000 0.000000
vt -0.350000 0.350000 0.000000
vt -0.000000 0.350000 0.000000
vt -0.050000 0.175000 0.000000
vt -0.050000 -0.175000 0.000000
vt 0.050000 0.175000 0.000000
vt 0.050000 -0.175000 0.000000
vt 0.000000 0.400000 0.000000
vt 0.100000 0.400000 0.000000
vt 0.000000 0.450000 0.000000
vt 0.100000 0.450000 0.000000
vt 0.000000 0.400000 0.000000
vt 0.350000 0.400000 0.000000
vt 0.000000 0.450000 0.000000
vt 0.350000 0.450000 0.000000
vt 0.050000 0.175000 0.000000
vt -0.050000 0.175000 0.000000
vt 0.050000 -0.175000 0.000000
vt -0.050000 -0.175000 0.000000
vt 0.050000 0.175000 0.000000
vt -0.050000 0.175000 0.000000
vt 0.050000 -0.175000 0.000000
vt -0.050000 -0.175000 0.000000
vt 0.000000 0.450000 0.000000
vt 0.350000 0.450000 0.000000
vt 0.000000 0.500000 0.000000
vt 0.350000 0.500000 0.000000
vt -0.100000 0.450000 0.000000
vt 0.000000 0.450000 0.000000
vt -0.100000 0.500000 0.000000
vt 0.000000 0.500000 0.000000
vt 0.000000 0.450000 0.000000
vt 0.350000 0.450000 0.000000
vt 0.000000 0.500000 0.000000
vt 0.350000 0.500000 0.000000
vt 0.100000 0.450000 0.000000
vt 0.000000 0.450000 0.000000
vt 0.100000 0.400000 0.000000
vt 0.000000 0.400000 0.000000
vt 0.200000 0.450000 0.000000
vt 0.100000 0.500000 0.000000
vt 0.200000 0.500000 0.000000
vt -0.050000 0.175000 0.000000
vt -0.050000 -0.175000 0.000000
vt 0.050000 0.175000 0.000000
vt 0.050000 -0.175000 0.000000
vt -0.350000 0.400000 0.000000
vt -0.000000 0.400000 0.000000
vt -0.350000 0.450000 0.000000
vt -0.000000 0.450000 0.000000
vt 0.050000 0.175000 0.000000
vt -0.050000 0.175000 0.000000
vt 0.050000 -0.175000 0.000000
vt -0.050000 -0.175000 0.000000
vt 0.000000 0.500000 0.000000
vt 0.350000 0.500000 0.000000
vt 0.000000 0.550000 0.000000
vt 0.350000 0.550000 0.000000
vt 0.000000 0.500000 0.000000
vt 0.100000 0.500000 0.000000
vt 0.000000 0.550000 0.000000
vt 0.100000 0.550000 0.000000
vt 0.000000 0.500000 0.000000
vt 0.100000 0.500000 0.000000
vt 0.000000 0.550000 0.000000
vt 0.100000 0.550000 0.000000
vt 0.000000 0.500000 0.000000
vt 0.350000 0.500000 0.000000
vt 0.000000 0.550000 0.000000
vt 0.350000 0.550000 0.000000
vt -0.050000 0.175000 0.000000
vt -0.050000 -0.175000 0.000000
vt 0.050000 0.175000 0.000000
vt 0.050000 -0.175000 0.000000
vn 1.000000 0.000000 0.000000
vn 1.000000 0.000000 0.000000
vn 1.000000 0.000000 0.000000
vn 1.000000 0.000000 0.000000
vn -1.000000 0.000000 0.000000
vn -1.000000 0.000000 0.000000
vn -1.000000 0.000000 0.000000
vn -1.000000 0.000000 0.000000
vn 0.000000 1.000000 0.000000
vn 0.000000 1.000000 0.000000
vn 0.000000 1.000000 0.000000
vn 0.000000 1.000000 0.000000
vn 0.000000 -1.000000 0.000000
vn 0.000000 -1.000000 0.000000
vn 0.000000 -1.000000 0.000000
vn 0.000000 -1.000000 0.000000
vn 0.000000 -1.000000 0.000000
vn 0.000000 -1.000000 0.000000
vn 0.000000 0.000000 1.000000
vn 0.000000 0.000000 1.000000
vn 0.000000 0.000000 1.000000
vn 0.000000 0.000000 1.000000
vn -0.000000 -0.000000 -1.000000
vn -0.000000 -0.000000 -1.000000
vn -0.000000 -0.000000 -1.000000
vn -0.000000 -0.000000 -1.000000
vn -0.000000 -0.000000 -1.000000
vn -0.000000 -0.000000 -1.000000
vn 0.000000 0.000000 -1.000000
vn 0.000000 0.000000 -1.000000
vn 0.000000 0.000000 -1.000000
vn 0.000000 0.000000 -1.000000
vn -0.000000 -1.000000 -0.000000
vn -0.000000 -1.000000 -0.000000
vn -0.000000 -1.000000 -0.000000
vn -0.000000 -1.000000 -0.000000
vn -0.000000 -1.000000 -0.000000
vn -0.000000 -1.000000 -0.000000
vn -1.000000 -0.000000 -0.000000
vn -1.000000 -0.000000 -0.000000
vn -1.000000 -0.000000 -0.000000
vn -1.000000 -0.000000 -0.000000
vn 1.000000 0.000000 0.000000
vn 1.000000 0.000000 0.000000
vn 1.000000 0.000000 0.000000
vn 1.000000 0.000000 0.000000
vn 0.000000 1.000000 0.000000
vn 0.000000 1.000000 0.000000
vn 0.000000 1.000000 0.000000
vn 0.000000 1.000000 0.000000
vn 0.000000 1.000000 0.000000
vn 0.000000 1.000000 0.000000
vn 0.000000 -0.000000 1.000000
vn 0.000000 -0.000000 1.000000
vn 0.000000 -0.000000 1.000000
vn 0.000000 -0.000000 1.000000
vn -0.000000 -0.000000 1.000000
vn -0.000000 -0.000000 1.000000
vn -0.000000 -0.000000 1.000000
vn -0.000000 -0.000000 1.000000
vn 1.000000 0.000000 0.000000
vn 1.000000 0.000000 0.000000
vn 1.000000 0.000000 0.000000
vn 1.000000 0.000000 0.000000
vn 0.000000 0.000000 -1.000000
vn 0.000000 0.000000 -1.000000
vn 0.000000 0.000000 -1.000000
vn 0.000000 0.000000 -1.000000
vn 0.000000 -1.000000 0.000000
vn 0.000000 -1.000000 0.000000
vn 0.000000 -1.000000 0.000000
vn -1.000000 -0.000000 -0.000000
vn -1.000000 -0.000000 -0.000000
vn -1.000000 -0.000000 -0.000000
vn -1.000000 -0.000000 -0.000000
vn -0.000000 -0.000000 1.000000
vn -0.000000 -0.000000 1.000000
vn -0.000000 -0.000000 1.000000
vn -0.000000 -0.000000 1.000000
vn 0.000000 0.000000 -1.000000
vn 0.000000 0.000000 -1.000000
vn 0.000000 0.000000 -1.000000
vn 0.000000 0.000000 -1.000000
vn -1.000000 -0.000000 -0.000000
vn -1.000000 -0.000000 -0.000000
vn -1.000000 -0.000000 -0.000000
vn -1.000000 -0.000000 -0.000000
vn 0.000000 -1.000000 0.000000
vn 0.000000 -1.000000 0.000000
vn 0.000000 -1.000000 0.000000
vn 1.000000 0.000000 0.000000
vn 1.000000 0.000000 0.000000
vn 1.000000 0.000000 0.000000
vn 1.000000 0.000000 0.000000
vn 0.000000 1.000000 0.000000
vn 0.000000 1.000000 0.000000
vn 0.000000 1.000000 0.000000
vn 0.000000 1.000000 0.000000
vn 0.000000 1.000000 0.000000
vn 0.000000 1.000000 0.000000
vn -0.000000 -0.000000 1.000000
vn -0.000000 -0.000000 1.000000
vn -0.000000 -0.000000 1.000000
vn -0.000000 -0.000000 1.000000
vn 1.000000 0.000000 0.000000
vn 1.000000 0.000000 0.000000
vn 1.000000 0.000000 0.000000
vn 1.000000 0.000000 0.000000
vn 0.000000 0.000000 -1.000000
vn 0.000000 0.000000 -1.000000
vn 0.000000 0.000000 -1.000000
vn 0.000000 0.000000 -1.000000
vn 0.000000 -1.000000 0.000000
vn 0.000000 -1.000000 0.000000
vn 0.000000 -1.000000 0.000000
vn -1.000000 -0.000000 -0.000000
vn -1.000000 -0.000000 -0.000000
vn -1.000000 -0.000000 -0.000000
vn -1.000000 -0.000000 -0.000000
vn -0.000000 -0.000000 1.000000
vn -0.000000 -0.000000 1.000000
vn -0.000000 -0.000000 1.000000
vn -0.000000 -0.000000 1.000000
vn 0.000000 0.000000 -1.000000
vn 0.000000 0.000000 -1.000000
vn 0.000000 0.000000 -1.000000
vn 0.000000 0.000000 -1.000000
vn -1.000000 -0.000000 -0.000000
vn -1.000000 -0.000000 -0.000000
vn -1.000000 -0.000000 -0.000000
vn -1.000000 -0.000000 -0.000000
vn 0.000000 -1.000000 0.000000
vn 0.000000 -1.000000 0.000000
vn 0.000000 -1.000000 0.000000
vn 1.000000 0.000000 0.000000
vn 1.000000 0.000000 0.000000
vn 1.000000 0.000000 0.000000
vn 1.000000 0.000000 0.000000
vn 0.000000 1.000000 0.000000
vn 0.000000 1.000000 0.000000
vn 0.000000 1.000000 0.000000
vn 0.000000 1.000000 0.000000
vn 0.000000 1.000000 0.000000
vn 0.000000 1.000000 0.000000
vn -0.000000 -0.000000 1.000000
vn -0.000000 -0.000000 1.000000
vn -0.000000 -0.000000 1.000000
vn -0.000000 -0.000000 1.000000
vn 1.000000 0.000000 0.000000
vn 1.000000 0.000000 0.000000
vn 1.000000 0.000000 0.000000
vn 1.000000 0.000000 0.000000
vn 0.000000 0.000000 -1.000000
vn 0.000000 0.000000 -1.000000
vn 0.000000 0.000000 -1.000000
vn 0.000000 0.000000 -1.000000
vn 0.000000 -1.000000 0.000000
vn 0.000000 -1.000000 0.000000
vn 0.000000 -1.000000 0.000000
vn -1.000000 -0.000000 -0.000000
vn -1.000000 -0.000000 -0.000000
vn -1.000000 -0.000000 -0.000000
vn -1.000000 -0.000000 -0.000000
vn -0.000000 -0.000000 1.000000
vn -0.000000 -0.000000 1.000000
vn -0.000000 -0.000000 1.000000
vn -0.000000 -0.000000 1.000000
vn 0.000000 0.000000 -1.000000
vn 0.000000 0.000000 -1.000000
vn 0.000000 0.000000 -1.000000
vn 0.000000 0.000000 -1.000000
vn -1.000000 -0.000000 -0.000000
vn -1.000000 -0.000000 -0.000000
vn -1.000000 -0.000000 -0.000000
vn -1.000000 -0.000000 -0.000000
vn 0.000000 -1.000000 0.000000
vn 0.000000 -1.000000 0.000000
vn 0.000000 -1.000000 0.000000
vn 1.000000 0.000000 0.000000
vn 1.000000 0.000000 0.000000
vn 1.000000 0.000000 0.000000
vn 1.000000 0.000000 0.000000
vn 0.000000 1.000000 0.000000
vn 0.000000 1.000000 0.000000
vn 0.000000 1.000000 0.000000
vn 0.000000 1.000000 0.000000
vn 0.000000 1.000000 0.000000
vn 0.000000 1.000000 0.000000
vn -0.000000 -0.000000 1.000000
vn -0.000000 -0.000000 1.000000
vn -0.000000 -0.000000 1.000000
vn -0.000000 -0.000000 1.000000
vn 1.000000 0.000000 0.000000
vn 1.000000 0.000000 0.000000
vn 1.000000 0.000000 0.000000
vn 1.000000 0.000000 0.000000
vn 0.000000 0.000000 -1.000000
vn 0.000000 0.000000 -1.000000
vn 0.000000 0.000000 -1.000000
vn 0.000000 0.000000 -1.000000
vn 0.000000 -1.000000 0.000000
vn 0.000000 -1.000000 0.000000
vn 0.000000 -1.000000 0.000000
vn -1.000000 -0.000000 -0.000000
vn -1.000000 -0.000000 -0.000000
vn -1.000000 -0.000000 -0.000000
vn -1.000000 -0.000000 -0.000000
vn -0.000000 -0.000000 1.000000
vn -0.000000 -0.000000 1.000000
vn -0.000000 -0.000000 1.000000
vn -0.000000 -0.000000 1.000000
vn 0.000000 0.000000 -1.000000
vn 0.000000 0.000000 -1.000000
vn 0.000000 0.000000 -1.000000
vn 0.000000 0.000000 -1.000000
vn -1.000000 -0.000000 -0.000000
vn -1.000000 -0.000000 -0.000000
vn -1.000000 -0.000000 -0.000000
vn -1.000000 -0.000000 -0.000000
vn 0.000000 -1.000000 0.000000
vn 0.000000 -1.000000 0.000000
vn 0.000000 -1.000000 0.000000
vn 1.000000 0.000000 0.000000
vn 1.000000 0.000000 0.000000
vn 1.000000 0.000000 0.000000
vn 1.000000 0.000000 0.000000
vn 0.000000 1.000000 0.000000
vn 0.000000 1.000000 0.000000
vn 0.000000 1.000000 0.000000
vn 0.000000 1.000000 0.000000
vn 0.000000 1.000000 0.000000
vn 0.000000 1.000000 0.000000
vn -0.000000 -0.000000 1.000000
vn -0.000000 -0.000000 1.000000
vn -0.000000 -0.000000 1.000000
vn -0.000000 -0.000000 1.000000
vn 1.000000 0.000000 0.000000
vn 1.000000 0.000000 0.000000
vn 1.000000 0.000000 0.000000
vn 1.000000 0.000000 0.000000
vn -0.000000 -0.000000 1.000000
vn -0.000000 -0.000000 1.000000
vn -0.000000 -0.000000 1.000000
vn -0.000000 -0.000000 1.000000
vn -1.000000 -0.000000 -0.000000
vn -1.000000 -0.000000 -0.000000
vn -1.000000 -0.000000 -0.000000
vn -1.000000 -0.000000 -0.000000
vn 0.000000 1.000000 0.000000
vn 0.000000 1.000000 0.000000
vn 0.000000 1.000000 0.000000
vn 0.000000 -1.000000 0.000000
vn 0.000000 -1.000000 0.000000
vn 0.000000 -1.000000 0.000000
vn 1.000000 0.000000 0.000000
vn 1.000000 0.000000 0.000000
vn 1.000000 0.000000 0.000000
vn 1.000000 0.000000 0.000000
vn 0.000000 0.000000 -1.000000
vn 0.000000 0.000000 -1.000000
vn 0.000000 0.000000 -1.000000
vn 0.000000 0.000000 -1.000000
f 178/529/529 179/530/530 177/531/531
f 177/531/531 179/530/530 180/532/532
f 181/533/533 182/534/534 184/535/535
f 184/535/535 182/534/534 183/536/536
f 178/537/537 181/538/538 179/539/539
f 179/539/539 181/538/538 184/540/540
f 177/541/541 180/542/542 185/543/543
f 185/543/543 180/542/542 183/544/544
f 185/543/543 183/544/544 186/545/545
f 186/545/545 183/544/544 182/546/546
f 180/547/547 179/548/548 183/549/549
f 183/549/549 179/548/548 184/550/550
f 177/551/551 185/552/552 178/553/553
f 178/553/553 185/552/552 181/554/554
f 181/554/554 185/552/552 186/555/555
f 181/554/554 186/555/555 182/556/556
f 187/557/557 188/558/558 190/559/559
f 190/559/559 188/558/558 189/560/560
f 192/561/561 193/562/562 191/563/563
f 191/563/563 193/562/562 190/564/564
f 191/563/563 190/564/564 189/565/565
f 189/565/565 194/566/566 191/563/563
f 193/567/567 186/568/568 190/569/569
f 190/569/569 186/568/568 187/570/570
f 195/571/571 194/572/572 188/573/573
f 188/573/573 194/572/572 189/574/574
f 185/575/575 196/576/576 186/577/577
f 186/577/577 196/576/576 187/578/578
f 187/578/578 196/576/576 188/579/579
f 188/579/579 196/576/576 195/580/580
f 185/581/581 186/582/582 192/583/583
f 192/583/583 186/582/582 193/584/584
f 195/585/585 196/586/586 194/587/587
f 194/587/587 196/586/586 191/588/588
f 185/589/589 192/590/590 196/591/591
f 196/591/591 192/590/590 191/592/592
f 197/593/593 198/594/594 200/595/595
f 200/595/595 198/594/594 199/596/596
f 201/597/597 189/598/565 199/599/598
f 199/599/598 189/598/565 200/600/599
f 189/601/600 188/602/601 200/603/602
f 200/603/602 188/602/601 197/604/603
f 202/605/604 188/606/605 201/607/606
f 201/607/606 188/606/605 189/608/607
f 203/609/608 204/610/609 206/611/610
f 206/611/610 204/610/609 205/612/611
f 199/613/612 198/614/613 206/615/614
f 206/615/614 198/614/613 203/616/615
f 207/617/616 199/618/598 205/619/617
f 205/619/617 199/618/598 206/620/618
f 208/621/619 207/622/620 204/623/621
f 204/623/621 207/622/620 205/624/622
f 198/625/623 197/626/624 202/627/625
f 202/627/625 197/626/624 188/628/579
f 198/625/623 208/629/626 203/630/627
f 203/630/627 208/629/626 204/631/628
f 208/632/629 198/633/630 207/634/631
f 207/634/631 198/633/630 199/635/632
f 202/636/633 201/637/634 198/638/635
f 198/638/635 201/637/634 199/639/636
f 209/640/637 210/641/638 212/642/639
f 212/642/639 210/641/638 211/643/640
f 213/644/641 205/645/617 211/646/642
f 211/646/642 205/645/617 212/647/643
f 205/648/644 204/649/645 212/650/646
f 212/650/646 204/649/645 209/651/647
f 214/652/648 204/653/649 213/654/650
f 213/654/650 204/653/649 205/655/651
f 215/656/652 216/657/653 218/658/654
f 218/658/654 216/657/653 217/659/655
f 211/660/656 210/661/657 218/662/658
f 218/662/658 210/661/657 215/663/659
f 219/664/660 211/665/642 217/666/661
f 217/666/661 211/665/642 218/667/662
f 220/668/663 219/669/664 216/670/665
f 216/670/665 219/669/664 217/671/666
f 210/672/667 209/673/668 214/674/669
f 214/674/669 209/673/668 204/675/628
f 210/672/667 220/676/670 215/677/671
f 215/677/671 220/676/670 216/678/672
f 220/679/673 210/680/674 219/681/675
f 219/681/675 210/680/674 211/682/676
f 214/683/677 213/684/678 210/685/679
f 210/685/679 213/684/678 211/686/680
f 221/687/681 222/688/682 224/689/683
f 224/689/683 222/688/682 223/690/684
f 225/691/685 217/692/661 223/693/686
f 223/693/686 217/692/661 224/694/687
f 217/695/688 216/696/689 224/697/690
f 224/697/690 216/696/689 221/698/691
f 226/699/692 216/700/693 225/701/694
f 225/701/694 216/700/693 217/702/695
f 227/703/696 228/704/697 230/705/698
f 230/705/698 228/704/697 229/706/699
f 223/707/700 222/708/701 230/709/702
f 230/709/702 222/708/701 227/710/703
f 231/711/704 223/712/686 229/713/705
f 229/713/705 223/712/686 230/714/706
f 232/715/707 231/716/708 228/717/709
f 228/717/709 231/716/708 229/718/710
f 222/719/711 221/720/712 226/721/713
f 226/721/713 221/720/712 216/722/672
f 222/719/711 232/723/714 227/724/715
f 227/724/715 232/723/714 228/725/716
f 232/726/717 222/727/718 231/728/719
f 231/728/719 222/727/718 223/729/720
f 226/730/721 225/731/722 222/732/723
f 222/732/723 225/731/722 223/733/724
f 234/734/725 235/735/726 233/736/727
f 233/736/727 235/735/726 236/737/728
f 237/738/729 229/739/705 235/740/730
f 235/740/730 229/739/705 236/741/731
f 229/742/732 228/743/733 236/744/734
f 236/744/734 228/743/733 233/745/735
f 238/746/736 228/747/737 237/748/738
f 237/748/738 228/747/737 229/749/739
f 239/750/740 240/751/741 242/752/742
f 242/752/742 240/751/741 241/753/743
f 235/754/744 234/755/745 242/756/746
f 242/756/746 234/755/745 239/757/747
f 243/758/748 235/759/730 241/760/749
f 241/760/749 235/759/730 242/761/750
f 244/762/751 243/763/752 240/764/753
f 240/764/753 243/763/752 241/765/754
f 234/766/755 233/767/756 238/768/757
f 238/768/757 233/767/756 228/769/716
f 234/766/755 244/770/758 239/771/759
f 239/771/759 244/770/758 240/772/760
f 234/773/761 235/774/762 244/775/763
f 244/775/763 235/774/762 243/776/764
f 238/777/765 237/778/766 234/779/767
f 234/779/767 237/778/766 235/780/768
f 245/781/769 240/782/770 246/783/771
f 246/783/771 240/782/770 241/784/772
f 241/785/773 240/786/774 248/787/775
f 248/787/775 240/786/774 247/788/776
f 240/789/760 245/790/777 247/791/778
f 247/791/778 245/790/777 249/792/779
f 246/793/780 241/794/749 250/795/781
f 250/795/781 241/794/749 248/796/782
f 245/797/783 246/798/784 249/799/785
f 249/799/785 246/798/784 250/800/786
f 249/801/787 250/802/788 247/803/789
f 247/803/789 250/802/788 248/804/790
g Cuerpo 0

v 8.400000 -0.444535 -0.100000
v 11.700000 -0.444535 -0.100000
v 11.700000 -0.500000 -0.100000
v 7.600000 -0.500000 -0.100000
v 7.600000 -0.100000 -0.100000
v -0.200000 -0.100000 -0.100000
v -0.200000 3.800000 -0.100000
v 5.726702 3.813528 -0.100000
v 11.653405 3.827057 -0.100000
v 11.700000 -0.100000 -0.100000
v 8.400000 -0.100000 -0.100000
v 8.400000 -0.100000 0.000000
v 8.400000 -0.444535 0.000000
v 11.700000 -0.100000 0.000000
v 11.700000 -0.444535 0.000000
v -0.200000 3.800000 0.000000
v 5.726702 3.813528 0.000000
v 11.653405 3.827057 0.000000
v -0.200000 -0.100000 0.000000
v 7.600000 -0.100000 0.000000
v 7.600000 -0.500000 0.000000
v 11.700000 -0.500000 0.000000
vt -5.950000 -2.108063 0.000000
vt -5.950000 -2.163528 0.000000
vt -2.650000 -2.108063 0.000000
vt -1.850000 -2.163528 0.000000
vt -1.850000 -1.763528 0.000000
vt 5.950000 -1.763528 0.000000
vt 0.023298 2.150000 0.000000
vt -2.650000 -1.763528 0.000000
vt 5.950000 2.136472 0.000000
vt -5.903405 2.163528 0.000000
vt -5.950000 -1.763528 0.000000
vt 0.000000 0.000000 0.000000
vt 0.344535 0.000000 0.000000
vt 0.000000 0.100000 0.000000
vt 0.344535 0.100000 0.000000
vt -2.200000 0.000000 0.000000
vt 1.100000 0.000000 0.000000
vt -2.200000 0.100000 0.000000
vt 1.100000 0.100000 0.000000
vt 0.000000 0.000000 0.000000
vt 3.300000 0.000000 0.000000
vt 0.000000 0.100000 0.000000
vt 3.300000 0.100000 0.000000
vt 0.000000 0.000000 0.000000
vt 5.926718 0.000000 0.000000
vt 0.000000 0.100000 0.000000
vt 5.926718 0.100000 0.000000
vt 11.853436 0.000000 0.000000
vt 11.853436 0.100000 0.000000
vt 0.000000 0.000000 0.000000
vt 3.900000 0.000000 0.000000
vt 0.000000 0.100000 0.000000
vt 3.900000 0.100000 0.000000
vt -0.000000 0.000000 0.000000
vt 7.800000 0.000000 0.000000
vt 0.000000 0.100000 0.000000
vt 7.800000 0.100000 0.000000
vt 0.000000 0.000000 0.000000
vt 0.400000 0.000000 0.000000
vt 0.000000 0.100000 0.000000
vt 0.400000 0.100000 0.000000
vt -0.000000 0.000000 0.000000
vt 4.100000 0.000000 0.000000
vt 0.000000 0.100000 0.000000
vt 4.100000 0.100000 0.000000
vt 0.344535 -0.000000 0.000000
vt 0.400000 0.000000 0.000000
vt 0.344535 0.100000 0.000000
vt 0.400000 0.100000 0.000000
vt 0.000000 0.000000 0.000000
vt 3.927333 0.000000 0.000000
vt 0.000000 0.100000 0.000000
vt 3.927333 0.100000 0.000000
vt 5.950000 -2.108063 0.000000
vt 2.650000 -2.108063 0.000000
vt 5.950000 -2.163528 0.000000
vt 1.850000 -2.163528 0.000000
vt 1.850000 -1.763528 0.000000
vt 2.650000 -1.763528 0.000000
vt -0.023298 2.150000 0.000000
vt 5.903405 2.163528 0.000000
vt 5.950000 -1.763528 0.000000
vt -5.950000 2.136472 0.000000
vt -5.950000 -1.763528 0.000000
vn 0.000000 0.000000 -1.000000
vn 0.000000 0.000000 -1.000000
vn 0.000000 0.000000 -1.000000
vn 0.000000 0.000000 -1.000000
vn 0.000000 0.000000 -1.000000
vn 0.000000 0.000000 -1.000000
vn 0.000000 0.000000 -1.000000
vn 0.000000 0.000000 -1.000000
vn 0.000000 0.000000 -1.000000
vn 0.000000 0.000000 -1.000000
vn 0.000000 0.000000 -1.000000
vn 1.000000 0.000000 0.000000
vn 1.000000 0.000000 0.000000
vn 1.000000 0.000000 0.000000
vn 1.000000 0.000000 0.000000
vn 0.000000 -1.000000 0.000000
vn 0.000000 -1.000000 0.000000
vn 0.000000 -1.000000 0.000000
vn 0.000000 -1.000000 0.000000
vn -0.000000 1.000000 0.000000
vn -0.000000 1.000000 0.000000
vn -0.000000 1.000000 0.000000
vn -0.000000 1.000000 0.000000
vn -0.002283 0.999997 0.000000
vn -0.002283 0.999997 0.000000
vn -0.002283 0.999997 0.000000
vn -0.002283 0.999997 0.000000
vn -0.002283 0.999997 0.000000
vn -0.002283 0.999997 0.000000
vn -1.000000 -0.000000 -0.000000
vn -1.000000 -0.000000 -0.000000
vn -1.000000 -0.000000 -0.000000
vn -1.000000 -0.000000 -0.000000
vn 0.000000 -1.000000 0.000000
vn 0.000000 -1.000000 0.000000
vn 0.000000 -1.000000 0.000000
vn 0.000000 -1.000000 0.000000
vn -1.000000 -0.000000 -0.000000
vn -1.000000 -0.000000 -0.000000
vn -1.000000 -0.000000 -0.000000
vn -1.000000 -0.000000 -0.000000
vn 0.000000 -1.000000 0.000000
vn 0.000000 -1.000000 0.000000
vn 0.000000 -1.000000 0.000000
vn 0.000000 -1.000000 0.000000
vn 1.000000 0.000000 0.000000
vn 1.000000 0.000000 0.000000
vn 1.000000 0.000000 0.000000
vn 1.000000 0.000000 0.000000
vn 0.999930 0.011864 0.000000
vn 0.999930 0.011864 0.000000
vn 0.999930 0.011864 0.000000
vn 0.999930 0.011864 0.000000
vn -0.000000 0.000000 1.000000
vn -0.000000 0.000000 1.000000
vn -0.000000 0.000000 1.000000
vn -0.000000 0.000000 1.000000
vn -0.000000 0.000000 1.000000
vn -0.000000 0.000000 1.000000
vn -0.000000 0.000000 1.000000
vn -0.000000 0.000000 1.000000
vn -0.000000 0.000000 1.000000
vn -0.000000 0.000000 1.000000
vn -0.000000 0.000000 1.000000
f 252/805/791 253/806/792 251/807/793
f 251/807/793 253/806/792 254/808/794
f 251/807/793 254/808/794 255/809/795
f 256/810/796 258/811/797 255/809/795
f 255/809/795 258/811/797 261/812/798
f 255/809/795 261/812/798 251/807/793
f 256/810/796 257/813/799 258/811/797
f 258/811/797 259/814/800 261/812/798
f 261/812/798 259/814/800 260/815/801
f 262/816/802 263/817/803 261/818/804
f 261/818/804 263/817/803 251/819/805
f 264/820/806 262/821/807 260/822/808
f 260/822/808 262/821/807 261/823/809
f 263/824/810 265/825/811 251/826/812
f 251/826/812 265/825/811 252/827/813
f 266/828/814 267/829/815 257/830/816
f 257/830/816 267/829/815 258/831/817
f 258/831/817 267/829/815 268/832/818
f 258/831/817 268/832/818 259/833/819
f 269/834/820 266/835/821 256/836/822
f 256/836/822 266/835/821 257/837/823
f 270/838/824 269/839/825 255/840/826
f 255/840/826 269/839/825 256/841/827
f 271/842/828 270/843/829 254/844/830
f 254/844/830 270/843/829 255/845/831
f 272/846/832 271/847/833 253/848/834
f 253/848/834 271/847/833 254/849/835
f 265/850/836 272/851/837 252/852/838
f 252/852/838 272/851/837 253/853/839
f 268/854/840 264/855/841 259/856/842
f 259/856/842 264/855/841 260/857/843
f 265/858/844 263/859/845 272/860/846
f 272/860/846 263/859/845 271/861/847
f 271/861/847 263/859/845 270/862/848
f 270/862/848 263/859/845 262/863/849
f 270/862/848 262/863/849 267/864/850
f 267/864/850 262/863/849 268/865/851
f 268/865/851 262/863/849 264/866/852
f 266/867/853 269/868/854 267/864/850
f 267/864/850 269/868/854 270/862/848
# 272 vertices
# 868 texture params
# 854 normals
# 508 facets

# 9 groups
