# WaveFront *.obj file (generated by Autodesk ATF)

mtllib Edificio B - Piso 1.mtl

g Cuerpo 1

v 2.802377 0.700000 0.000000
v 2.802377 0.700000 1.500000
v 0.802377 0.700000 1.500000
v 0.802377 0.700000 0.000000
v 2.802377 0.200000 1.500000
v 0.802377 0.200000 1.500000
v 2.802377 0.200000 0.000000
v 0.802377 0.200000 0.000000
v 2.802377 1.000000 0.000000
v 2.802377 1.000000 2.000000
v 2.802377 -0.050000 2.000000
v 2.802377 -0.050000 0.000000
v 0.550000 -0.050000 0.000000
v 0.550000 -0.050000 2.000000
v 0.550000 3.600000 0.000000
v 0.550000 3.600000 2.000000
v 2.380640 3.613560 0.000000
v 2.380640 3.613560 2.000000
v 2.400000 1.000000 0.000000
v 2.400000 1.000000 2.000000
vt -1.500000 0.000000 0.000000
vt -0.000000 0.000000 0.000000
vt -1.500000 2.000000 0.000000
vt -0.000000 2.000000 0.000000
vt -0.500000 0.000000 0.000000
vt -0.000000 0.000000 0.000000
vt -0.500000 2.000000 0.000000
vt -0.000000 2.000000 0.000000
vt -1.500000 0.000000 0.000000
vt -0.000000 0.000000 0.000000
vt -1.500000 2.000000 0.000000
vt -0.000000 2.000000 0.000000
vt 0.750000 0.250000 0.000000
vt -0.750000 0.250000 0.000000
vt 0.750000 -0.250000 0.000000
vt -0.750000 -0.250000 0.000000
vt 0.250000 0.000000 0.000000
vt 0.250000 1.500000 0.000000
vt 0.000000 0.000000 0.000000
vt 0.000000 2.000000 0.000000
vt 0.750000 1.500000 0.000000
vt 1.050000 2.000000 0.000000
vt 1.050000 0.000000 0.000000
vt 0.750000 0.000000 0.000000
vt 0.000000 0.000000 0.000000
vt 2.252377 0.000000 0.000000
vt 0.000000 2.000000 0.000000
vt 2.252377 2.000000 0.000000
vt -0.000000 0.000000 0.000000
vt 3.650000 0.000000 0.000000
vt -0.000000 2.000000 0.000000
vt 3.650000 2.000000 0.000000
vt -0.000000 0.000000 0.000000
vt 1.830691 0.000000 0.000000
vt -0.000000 2.000000 0.000000
vt 1.830691 2.000000 0.000000
vt 0.000000 0.000000 0.000000
vt 2.613632 0.000000 0.000000
vt 0.000000 2.000000 0.000000
vt 2.613632 2.000000 0.000000
vt 0.000000 0.000000 0.000000
vt 0.402377 0.000000 0.000000
vt 0.000000 2.000000 0.000000
vt 0.402377 2.000000 0.000000
vt 1.126188 -0.781780 0.000000
vt 0.723812 -0.781780 0.000000
vt 1.126188 -1.831780 0.000000
vt -1.126188 -1.831780 0.000000
vt -1.126188 1.818220 0.000000
vt 0.704452 1.831780 0.000000
vt -1.126188 -1.581780 0.000000
vt -1.126188 -1.831780 0.000000
vt 0.873812 -1.581780 0.000000
vt 1.126188 -1.831780 0.000000
vt 0.873812 -1.081780 0.000000
vt 1.126188 1.818220 0.000000
vt -0.723812 -0.781780 0.000000
vt -0.704452 1.831780 0.000000
vt -1.126188 -0.781780 0.000000
vt -1.126188 -1.081780 0.000000
vn -0.000000 -1.000000 -0.000000
vn -0.000000 -1.000000 -0.000000
vn -0.000000 -1.000000 -0.000000
vn -0.000000 -1.000000 -0.000000
vn -0.000000 0.000000 -1.000000
vn -0.000000 0.000000 -1.000000
vn -0.000000 0.000000 -1.000000
vn -0.000000 0.000000 -1.000000
vn -0.000000 1.000000 -0.000000
vn -0.000000 1.000000 -0.000000
vn -0.000000 1.000000 -0.000000
vn -0.000000 1.000000 -0.000000
vn 1.000000 -0.000000 -0.000000
vn 1.000000 -0.000000 -0.000000
vn 1.000000 -0.000000 -0.000000
vn 1.000000 -0.000000 -0.000000
vn 1.000000 0.000000 0.000000
vn 1.000000 0.000000 0.000000
vn 1.000000 0.000000 0.000000
vn 1.000000 0.000000 0.000000
vn 1.000000 0.000000 0.000000
vn 1.000000 0.000000 0.000000
vn 1.000000 0.000000 0.000000
vn 1.000000 0.000000 0.000000
vn 0.000000 -1.000000 0.000000
vn 0.000000 -1.000000 0.000000
vn 0.000000 -1.000000 0.000000
vn 0.000000 -1.000000 0.000000
vn -1.000000 0.000000 0.000000
vn -1.000000 0.000000 0.000000
vn -1.000000 0.000000 0.000000
vn -1.000000 0.000000 0.000000
vn -0.007407 0.999973 0.000000
vn -0.007407 0.999973 0.000000
vn -0.007407 0.999973 0.000000
vn -0.007407 0.999973 0.000000
vn 0.999973 0.007407 -0.000000
vn 0.999973 0.007407 -0.000000
vn 0.999973 0.007407 -0.000000
vn 0.999973 0.007407 -0.000000
vn 0.000000 1.000000 -0.000000
vn 0.000000 1.000000 -0.000000
vn 0.000000 1.000000 -0.000000
vn 0.000000 1.000000 -0.000000
vn 0.000000 0.000000 1.000000
vn 0.000000 0.000000 1.000000
vn 0.000000 0.000000 1.000000
vn 0.000000 0.000000 1.000000
vn 0.000000 0.000000 1.000000
vn 0.000000 0.000000 1.000000
vn -0.000000 0.000000 -1.000000
vn -0.000000 0.000000 -1.000000
vn -0.000000 0.000000 -1.000000
vn -0.000000 0.000000 -1.000000
vn -0.000000 0.000000 -1.000000
vn -0.000000 0.000000 -1.000000
vn -0.000000 0.000000 -1.000000
vn -0.000000 0.000000 -1.000000
vn -0.000000 0.000000 -1.000000
vn -0.000000 0.000000 -1.000000
usemtl Acero_-_Satinado_(1)
f 1/1/1 2/2/2 4/3/3
f 4/3/3 2/2/2 3/4/4
f 2/5/5 5/6/6 3/7/7
f 3/7/7 5/6/6 6/8/8
f 5/9/9 7/10/10 6/11/11
f 6/11/11 7/10/10 8/12/12
f 4/13/13 3/14/14 8/15/15
f 8/15/15 3/14/14 6/16/16
f 7/17/17 5/18/18 12/19/19
f 12/19/19 5/18/18 11/20/20
f 11/20/20 5/18/18 2/21/21
f 11/20/20 2/21/21 10/22/22
f 10/22/22 2/21/21 9/23/23
f 9/23/23 2/21/21 1/24/24
f 13/25/25 12/26/26 14/27/27
f 14/27/27 12/26/26 11/28/28
f 15/29/29 13/30/30 16/31/31
f 16/31/31 13/30/30 14/32/32
f 17/33/33 15/34/34 18/35/35
f 18/35/35 15/34/34 16/36/36
f 19/37/37 17/38/38 20/39/39
f 20/39/39 17/38/38 18/40/40
f 9/41/41 19/42/42 10/43/43
f 10/43/43 19/42/42 20/44/44
f 10/45/45 20/46/46 11/47/47
f 11/47/47 20/46/46 14/48/48
f 14/48/48 20/46/46 16/49/49
f 16/49/49 20/46/46 18/50/50
f 7/51/51 12/52/52 8/53/53
f 8/53/53 12/52/52 13/54/54
f 8/53/53 13/54/54 4/55/55
f 4/55/55 13/54/54 15/56/56
f 4/55/55 15/56/56 19/57/57
f 19/57/57 15/56/56 17/58/58
f 9/59/59 1/60/60 19/57/57
f 19/57/57 1/60/60 4/55/55
g Cuerpo 2

v 3.800000 3.624074 1.300000
v 4.500000 3.629259 1.300000
v 4.500000 1.048368 1.300000
v 3.800000 1.048368 1.300000
v 3.800000 3.624074 0.000000
v 3.800000 1.048368 0.000000
v 4.500000 3.629259 0.000000
v 4.500000 1.048368 0.000000
v 2.443443 3.614026 0.000000
v 2.443443 3.614026 2.000000
v 4.730511 3.630967 2.000000
v 4.730511 3.630967 0.000000
v 2.443443 1.048368 0.000000
v 2.443443 1.048368 2.000000
v 4.749642 1.048368 0.000000
v 4.749642 1.048368 2.000000
vt -0.700000 2.580892 0.000000
vt -0.700000 -0.000000 0.000000
vt -0.000000 2.575706 0.000000
vt -0.000000 0.000000 0.000000
vt -0.000000 2.575706 0.000000
vt -1.300000 2.575706 0.000000
vt -0.000000 0.000000 0.000000
vt -1.300000 0.000000 0.000000
vt 0.000000 2.580892 0.000000
vt -1.300000 2.580892 0.000000
vt 0.000000 0.000000 0.000000
vt -1.300000 0.000000 0.000000
vt 0.230518 0.000000 0.000000
vt 0.230518 1.300000 0.000000
vt 0.000000 0.000000 0.000000
vt 0.000000 2.000000 0.000000
vt 0.930537 1.300000 0.000000
vt 2.287131 2.000000 0.000000
vt 2.287131 0.000000 0.000000
vt 0.930537 0.000000 0.000000
vt -0.203458 1.284407 0.000000
vt -0.203458 -1.291300 0.000000
vt 1.153099 1.274358 0.000000
vt 1.153099 -1.291300 0.000000
vt 0.000000 0.000000 0.000000
vt 2.565658 0.000000 0.000000
vt 0.000000 2.000000 0.000000
vt 2.565658 2.000000 0.000000
vt 0.000000 0.000000 0.000000
vt 2.582670 0.000000 0.000000
vt 0.000000 2.000000 0.000000
vt 2.582670 2.000000 0.000000
vt 2.056557 0.000000 0.000000
vt 2.306199 0.000000 0.000000
vt 2.056557 1.300000 0.000000
vt 2.306199 2.000000 0.000000
vt 1.356557 1.300000 0.000000
vt -0.000000 2.000000 0.000000
vt -0.000000 0.000000 0.000000
vt 1.356557 0.000000 0.000000
vt -1.153099 -1.291300 0.000000
vt 1.153099 -1.291300 0.000000
vt -1.153099 1.274358 0.000000
vt 1.133969 1.291300 0.000000
vt -0.903458 1.289592 0.000000
vt -1.133969 1.291300 0.000000
vt -0.903458 -1.291300 0.000000
vt -1.153099 -1.291300 0.000000
vn -0.000000 0.000000 -1.000000
vn -0.000000 0.000000 -1.000000
vn -0.000000 0.000000 -1.000000
vn -0.000000 0.000000 -1.000000
vn 1.000000 -0.000000 -0.000000
vn 1.000000 -0.000000 -0.000000
vn 1.000000 -0.000000 -0.000000
vn 1.000000 -0.000000 -0.000000
vn -1.000000 -0.000000 -0.000000
vn -1.000000 -0.000000 -0.000000
vn -1.000000 -0.000000 -0.000000
vn -1.000000 -0.000000 -0.000000
vn -0.007407 0.999973 0.000000
vn -0.007407 0.999973 0.000000
vn -0.007407 0.999973 0.000000
vn -0.007407 0.999973 0.000000
vn -0.007407 0.999973 0.000000
vn -0.007407 0.999973 0.000000
vn -0.007407 0.999973 0.000000
vn -0.007407 0.999973 0.000000
vn -0.000000 0.000000 -1.000000
vn -0.000000 0.000000 -1.000000
vn -0.000000 0.000000 -1.000000
vn -0.000000 0.000000 -1.000000
vn -1.000000 0.000000 0.000000
vn -1.000000 0.000000 0.000000
vn -1.000000 0.000000 0.000000
vn -1.000000 0.000000 0.000000
vn 0.999973 0.007407 -0.000000
vn 0.999973 0.007407 -0.000000
vn 0.999973 0.007407 -0.000000
vn 0.999973 0.007407 -0.000000
vn -0.000000 -1.000000 0.000000
vn -0.000000 -1.000000 0.000000
vn -0.000000 -1.000000 0.000000
vn -0.000000 -1.000000 0.000000
vn -0.000000 -1.000000 0.000000
vn -0.000000 -1.000000 0.000000
vn -0.000000 -1.000000 0.000000
vn -0.000000 -1.000000 0.000000
vn 0.000000 0.000000 1.000000
vn 0.000000 0.000000 1.000000
vn 0.000000 0.000000 1.000000
vn 0.000000 0.000000 1.000000
vn -0.000000 0.000000 -1.000000
vn -0.000000 0.000000 -1.000000
vn -0.000000 0.000000 -1.000000
vn -0.000000 0.000000 -1.000000
f 22/61/61 23/62/62 21/63/63
f 21/63/63 23/62/62 24/64/64
f 25/65/65 21/66/66 26/67/67
f 26/67/67 21/66/66 24/68/68
f 22/69/69 27/70/70 23/71/71
f 23/71/71 27/70/70 28/72/72
f 27/73/73 22/74/74 32/75/75
f 32/75/75 22/74/74 31/76/76
f 31/76/76 22/74/74 21/77/77
f 31/76/76 21/77/77 30/78/78
f 30/78/78 21/77/77 29/79/79
f 29/79/79 21/77/77 25/80/80
f 25/81/81 26/82/82 29/83/83
f 29/83/83 26/82/82 33/84/84
f 29/85/85 33/86/86 30/87/87
f 30/87/87 33/86/86 34/88/88
f 35/89/89 32/90/90 36/91/91
f 36/91/91 32/90/90 31/92/92
f 28/93/93 35/94/94 23/95/95
f 23/95/95 35/94/94 36/96/96
f 23/95/95 36/96/96 24/97/97
f 24/97/97 36/96/96 34/98/98
f 24/97/97 34/98/98 33/99/99
f 33/99/99 26/100/100 24/97/97
f 34/101/101 36/102/102 30/103/103
f 30/103/103 36/102/102 31/104/104
f 27/105/105 32/106/106 28/107/107
f 28/107/107 32/106/106 35/108/108
g Cuerpo 3

v 5.800000 3.638889 1.300000
v 5.800000 3.638889 0.000000
v 5.800000 1.050000 0.000000
v 5.800000 1.050000 1.300000
v 5.000000 3.632963 1.300000
v 5.000000 1.050000 1.300000
v 5.000000 3.632963 0.000000
v 5.000000 1.050000 0.000000
v 6.000000 1.050000 0.000000
v 6.000000 1.050000 2.000000
v 4.799630 1.050000 2.000000
v 4.799630 1.050000 0.000000
v 7.500000 3.651482 0.000000
v 7.500000 1.000000 0.000000
v 6.000000 1.000000 0.000000
v 6.000000 1.000000 2.000000
v 4.780509 3.631337 0.000000
v 4.780509 3.631337 2.000000
v 7.500000 3.651482 2.000000
v 7.500000 1.000000 2.000000
vt -0.000000 2.588889 0.000000
vt -1.300000 2.588889 0.000000
vt -0.000000 0.000000 0.000000
vt -1.300000 0.000000 0.000000
vt -0.800000 2.588889 0.000000
vt -0.800000 0.000000 0.000000
vt -0.000000 2.582963 0.000000
vt -0.000000 0.000000 0.000000
vt -0.000000 2.582963 0.000000
vt -1.300000 2.582963 0.000000
vt -0.000000 0.000000 0.000000
vt -1.300000 0.000000 0.000000
vt 0.200370 0.000000 0.000000
vt 0.200370 1.300000 0.000000
vt 0.000000 0.000000 0.000000
vt 0.000000 2.000000 0.000000
vt 1.200370 2.000000 0.000000
vt 1.000370 1.300000 0.000000
vt 1.200370 0.000000 0.000000
vt 1.000370 0.000000 0.000000
vt 0.340254 -1.275741 0.000000
vt 0.340254 1.313148 0.000000
vt 0.140254 -1.275741 0.000000
vt -1.359746 1.325741 0.000000
vt -1.359746 -1.325741 0.000000
vt 0.140254 -1.325741 0.000000
vt -0.000000 0.000000 0.000000
vt 0.050000 0.000000 0.000000
vt -0.000000 2.000000 0.000000
vt 0.050000 2.000000 0.000000
vt 0.000000 0.000000 0.000000
vt 2.581408 0.000000 0.000000
vt 0.000000 2.000000 0.000000
vt 2.581408 2.000000 0.000000
vt 2.500069 0.000000 0.000000
vt 2.719566 0.000000 0.000000
vt 2.500069 1.300000 0.000000
vt 2.719566 2.000000 0.000000
vt 1.700047 1.300000 0.000000
vt -0.000000 2.000000 0.000000
vt -0.000000 0.000000 0.000000
vt 1.700047 0.000000 0.000000
vt 0.000000 0.000000 0.000000
vt 2.651482 0.000000 0.000000
vt 0.000000 2.000000 0.000000
vt 2.651482 2.000000 0.000000
vt 0.000000 0.000000 0.000000
vt 1.500000 0.000000 0.000000
vt 0.000000 2.000000 0.000000
vt 1.500000 2.000000 0.000000
vt -0.140254 -1.325741 0.000000
vt 1.359746 -1.325741 0.000000
vt -0.140254 -1.275741 0.000000
vt 1.359746 1.325741 0.000000
vt -1.359746 1.305596 0.000000
vt -1.340625 -1.275741 0.000000
vt 1.140254 -1.275741 0.000000
vt 1.340625 -1.275741 0.000000
vt 1.140254 1.307222 0.000000
vt 1.359746 1.305596 0.000000
vn -1.000000 0.000000 -0.000000
vn -1.000000 0.000000 -0.000000
vn -1.000000 0.000000 -0.000000
vn -1.000000 0.000000 -0.000000
vn -0.000000 -0.000000 -1.000000
vn -0.000000 -0.000000 -1.000000
vn -0.000000 -0.000000 -1.000000
vn -0.000000 -0.000000 -1.000000
vn 1.000000 -0.000000 -0.000000
vn 1.000000 -0.000000 -0.000000
vn 1.000000 -0.000000 -0.000000
vn 1.000000 -0.000000 -0.000000
vn 0.000000 -1.000000 0.000000
vn 0.000000 -1.000000 0.000000
vn 0.000000 -1.000000 0.000000
vn 0.000000 -1.000000 0.000000
vn 0.000000 -1.000000 0.000000
vn 0.000000 -1.000000 0.000000
vn 0.000000 -1.000000 0.000000
vn 0.000000 -1.000000 0.000000
vn 0.000000 -0.000000 -1.000000
vn 0.000000 -0.000000 -1.000000
vn 0.000000 -0.000000 -1.000000
vn 0.000000 -0.000000 -1.000000
vn 0.000000 -0.000000 -1.000000
vn 0.000000 -0.000000 -1.000000
vn -1.000000 0.000000 0.000000
vn -1.000000 0.000000 0.000000
vn -1.000000 0.000000 0.000000
vn -1.000000 0.000000 0.000000
vn -0.999973 -0.007407 0.000000
vn -0.999973 -0.007407 0.000000
vn -0.999973 -0.007407 0.000000
vn -0.999973 -0.007407 0.000000
vn -0.007407 0.999973 0.000000
vn -0.007407 0.999973 0.000000
vn -0.007407 0.999973 0.000000
vn -0.007407 0.999973 0.000000
vn -0.007407 0.999973 0.000000
vn -0.007407 0.999973 0.000000
vn -0.007407 0.999973 0.000000
vn -0.007407 0.999973 0.000000
vn 1.000000 0.000000 0.000000
vn 1.000000 0.000000 0.000000
vn 1.000000 0.000000 0.000000
vn 1.000000 0.000000 0.000000
vn 0.000000 -1.000000 0.000000
vn 0.000000 -1.000000 0.000000
vn 0.000000 -1.000000 0.000000
vn 0.000000 -1.000000 0.000000
vn 0.000000 0.000000 1.000000
vn 0.000000 0.000000 1.000000
vn 0.000000 0.000000 1.000000
vn 0.000000 0.000000 1.000000
vn 0.000000 0.000000 1.000000
vn 0.000000 0.000000 1.000000
vn 0.000000 -0.000000 -1.000000
vn 0.000000 -0.000000 -1.000000
vn 0.000000 -0.000000 -1.000000
vn 0.000000 -0.000000 -1.000000
f 37/109/109 38/110/110 40/111/111
f 40/111/111 38/110/110 39/112/112
f 37/113/113 40/114/114 41/115/115
f 41/115/115 40/114/114 42/116/116
f 43/117/117 41/118/118 44/119/119
f 44/119/119 41/118/118 42/120/120
f 44/121/121 42/122/122 48/123/123
f 48/123/123 42/122/122 47/124/124
f 47/124/124 42/122/122 46/125/125
f 46/125/125 42/122/122 40/126/126
f 46/125/125 40/126/126 45/127/127
f 45/127/127 40/126/126 39/128/128
f 39/129/129 38/130/130 45/131/131
f 45/131/131 38/130/130 49/132/132
f 45/131/131 49/132/132 50/133/133
f 50/133/133 51/134/134 45/131/131
f 45/135/135 51/136/136 46/137/137
f 46/137/137 51/136/136 52/138/138
f 53/139/139 48/140/140 54/141/141
f 54/141/141 48/140/140 47/142/142
f 43/143/143 53/144/144 41/145/145
f 41/145/145 53/144/144 54/146/146
f 41/145/145 54/146/146 37/147/147
f 37/147/147 54/146/146 55/148/148
f 37/147/147 55/148/148 49/149/149
f 49/149/149 38/150/150 37/147/147
f 50/151/151 49/152/152 56/153/153
f 56/153/153 49/152/152 55/154/154
f 51/155/155 50/156/156 52/157/157
f 52/157/157 50/156/156 56/158/158
f 52/159/159 56/160/160 46/161/161
f 46/161/161 56/160/160 55/162/162
f 46/161/161 55/162/162 54/163/163
f 54/163/163 47/164/164 46/161/161
f 44/165/165 48/166/166 43/167/167
f 43/167/167 48/166/166 53/168/168
g Cuerpo 4

v 10.600000 2.400000 1.500000
v 10.600000 2.400000 0.000000
v 10.600000 2.300000 0.000000
v 10.600000 2.300000 1.500000
v 11.650000 2.300000 0.000000
v 11.650000 2.300000 1.500000
v 8.650000 3.200000 0.000000
v 8.650000 1.500000 0.000000
v 8.400000 1.500000 0.000000
v 8.400000 1.400000 0.000000
v 7.600000 1.400000 0.000000
v 7.600000 3.652222 0.000000
v 11.650000 3.682222 0.000000
v 11.650000 3.200000 0.000000
v 11.650000 2.400000 0.000000
v 7.600000 1.100000 1.700000
v 7.600000 1.400000 1.700000
v 8.400000 1.400000 1.700000
v 8.400000 1.100000 1.700000
v 7.600000 1.100000 0.000000
v 8.400000 1.100000 0.000000
v 7.600000 1.000000 0.000000
v 7.600000 1.000000 2.000000
v 7.600000 3.652222 2.000000
v 8.400000 1.000000 0.000000
v 8.650000 1.500000 1.500000
v 8.800000 1.500000 1.500000
v 8.800000 1.500000 2.000000
v 8.400000 1.500000 2.000000
v 8.400000 1.000000 2.000000
v 8.800000 1.000000 2.000000
v 11.650000 1.000000 2.000000
v 11.650000 3.682222 2.000000
v 8.800000 1.000000 0.000000
v 8.800000 1.500000 0.000000
v 11.650000 1.500000 0.000000
v 11.650000 1.000000 0.000000
v 11.650000 3.200000 1.500000
v 8.650000 3.200000 1.500000
v 11.650000 2.400000 1.500000
v 11.650000 1.500000 1.500000
vt 0.000000 0.100000 0.000000
vt -1.500000 0.100000 0.000000
vt 0.000000 0.000000 0.000000
vt -1.500000 0.000000 0.000000
vt -0.000000 1.050000 0.000000
vt -1.500000 1.050000 0.000000
vt -0.000000 0.000000 0.000000
vt -1.500000 0.000000 0.000000
vt 0.975000 -0.841111 0.000000
vt 1.225000 -0.841111 0.000000
vt 0.975000 0.858889 0.000000
vt 2.025000 -0.941111 0.000000
vt 2.025000 1.311111 0.000000
vt 1.225000 -0.941111 0.000000
vt -2.025000 1.341111 0.000000
vt -2.025000 0.858889 0.000000
vt -0.975000 0.058889 0.000000
vt -2.025000 0.058889 0.000000
vt -0.975000 -0.041111 0.000000
vt -2.025000 -0.041111 0.000000
vt -0.000000 0.800000 0.000000
vt -0.300000 0.800000 0.000000
vt -0.000000 0.000000 0.000000
vt -0.300000 0.000000 0.000000
vt -0.000000 0.800000 0.000000
vt -1.700000 0.800000 0.000000
vt -0.000000 0.000000 0.000000
vt -1.700000 0.000000 0.000000
vt -0.000000 0.800000 0.000000
vt -1.700000 0.800000 0.000000
vt -0.000000 0.000000 0.000000
vt -1.700000 0.000000 0.000000
vt 2.252222 0.000000 0.000000
vt 2.252222 1.700000 0.000000
vt -0.000000 0.000000 0.000000
vt -0.000000 2.000000 0.000000
vt 2.652222 2.000000 0.000000
vt 2.552222 1.700000 0.000000
vt 2.652222 0.000000 0.000000
vt 2.552222 0.000000 0.000000
vt 2.025000 -1.241111 0.000000
vt 1.225000 -1.241111 0.000000
vt 2.025000 -1.341111 0.000000
vt 1.225000 -1.341111 0.000000
vt -0.000000 0.250000 0.000000
vt -1.500000 0.250000 0.000000
vt -0.000000 0.000000 0.000000
vt -2.000000 0.000000 0.000000
vt -2.000000 0.400000 0.000000
vt -1.500000 0.400000 0.000000
vt -1.225000 -1.341111 0.000000
vt -1.225000 -0.841111 0.000000
vt -2.025000 -1.341111 0.000000
vt -2.025000 1.311111 0.000000
vt -0.825000 -0.841111 0.000000
vt 2.025000 1.341111 0.000000
vt 2.025000 -1.341111 0.000000
vt -0.825000 -1.341111 0.000000
vt 0.825000 -1.341111 0.000000
vt 0.825000 -0.841111 0.000000
vt -2.025000 -1.341111 0.000000
vt -2.025000 -0.841111 0.000000
vt -1.500000 0.000000 0.000000
vt -0.000000 0.000000 0.000000
vt -1.500000 3.000000 0.000000
vt -0.000000 3.000000 0.000000
vt -0.000000 1.050000 0.000000
vt -1.500000 1.050000 0.000000
vt -0.000000 0.000000 0.000000
vt -1.500000 0.000000 0.000000
vt 1.300000 0.000000 0.000000
vt 1.400000 0.000000 0.000000
vt 1.300000 1.500000 0.000000
vt 1.400000 1.500000 0.000000
vt 2.682222 2.000000 0.000000
vt 2.200000 1.500000 0.000000
vt 2.682222 0.000000 0.000000
vt 2.200000 0.000000 0.000000
vt 0.000000 2.000000 0.000000
vt 0.500000 1.500000 0.000000
vt 0.000000 0.000000 0.000000
vt 0.500000 0.000000 0.000000
vt -0.800000 0.000000 0.000000
vt -0.000000 0.000000 0.000000
vt -0.800000 1.050000 0.000000
vt 0.000000 2.850000 0.000000
vt -0.900000 1.050000 0.000000
vt -1.700000 3.000000 0.000000
vt -1.700000 0.000000 0.000000
vt -0.000000 3.000000 0.000000
vt -0.900000 0.000000 0.000000
vt -0.000000 2.850000 0.000000
vt -1.500000 2.850000 0.000000
vt -0.000000 0.000000 0.000000
vt -1.500000 0.000000 0.000000
vt 0.750000 1.300000 0.000000
vt -0.750000 1.300000 0.000000
vt 0.750000 -0.400000 0.000000
vt -0.750000 -0.400000 0.000000
vt 0.000000 0.000000 0.000000
vt 4.050111 0.000000 0.000000
vt 0.000000 2.000000 0.000000
vt 4.050111 2.000000 0.000000
vt 0.000000 0.000000 0.000000
vt 2.850000 0.000000 0.000000
vt 0.000000 2.000000 0.000000
vt 2.850000 2.000000 0.000000
vt -0.300000 0.000000 0.000000
vt 0.200000 0.000000 0.000000
vt -0.300000 1.500000 0.000000
vt 0.200000 2.000000 0.000000
vt -0.300000 2.000000 0.000000
vt 0.400000 0.000000 0.000000
vt 0.500000 0.000000 0.000000
vt 0.400000 1.700000 0.000000
vt 0.500000 2.000000 0.000000
vt 0.100000 1.700000 0.000000
vt 0.000000 2.000000 0.000000
vt 0.000000 0.000000 0.000000
vt 0.100000 0.000000 0.000000
vt 0.000000 0.000000 0.000000
vt 0.800000 0.000000 0.000000
vt 0.000000 2.000000 0.000000
vt 0.800000 2.000000 0.000000
vn -1.000000 -0.000000 -0.000000
vn -1.000000 -0.000000 -0.000000
vn -1.000000 -0.000000 -0.000000
vn -1.000000 -0.000000 -0.000000
vn -0.000000 -1.000000 -0.000000
vn -0.000000 -1.000000 -0.000000
vn -0.000000 -1.000000 -0.000000
vn -0.000000 -1.000000 -0.000000
vn -0.000000 0.000000 -1.000000
vn -0.000000 0.000000 -1.000000
vn -0.000000 0.000000 -1.000000
vn -0.000000 0.000000 -1.000000
vn -0.000000 0.000000 -1.000000
vn -0.000000 0.000000 -1.000000
vn -0.000000 0.000000 -1.000000
vn -0.000000 0.000000 -1.000000
vn -0.000000 0.000000 -1.000000
vn -0.000000 0.000000 -1.000000
vn -0.000000 0.000000 -1.000000
vn -0.000000 0.000000 -1.000000
vn -0.000000 0.000000 -1.000000
vn -0.000000 0.000000 -1.000000
vn -0.000000 0.000000 -1.000000
vn -0.000000 0.000000 -1.000000
vn -0.000000 1.000000 -0.000000
vn -0.000000 1.000000 -0.000000
vn -0.000000 1.000000 -0.000000
vn -0.000000 1.000000 -0.000000
vn -0.000000 -1.000000 -0.000000
vn -0.000000 -1.000000 -0.000000
vn -0.000000 -1.000000 -0.000000
vn -0.000000 -1.000000 -0.000000
vn -1.000000 0.000000 0.000000
vn -1.000000 0.000000 0.000000
vn -1.000000 0.000000 0.000000
vn -1.000000 0.000000 0.000000
vn -1.000000 0.000000 0.000000
vn -1.000000 0.000000 0.000000
vn -1.000000 0.000000 0.000000
vn -1.000000 0.000000 0.000000
vn -0.000000 0.000000 -1.000000
vn -0.000000 0.000000 -1.000000
vn -0.000000 0.000000 -1.000000
vn -0.000000 0.000000 -1.000000
vn -0.000000 -1.000000 -0.000000
vn -0.000000 -1.000000 -0.000000
vn -0.000000 -1.000000 -0.000000
vn -0.000000 -1.000000 -0.000000
vn -0.000000 -1.000000 -0.000000
vn -0.000000 -1.000000 -0.000000
vn 0.000000 0.000000 1.000000
vn 0.000000 0.000000 1.000000
vn 0.000000 0.000000 1.000000
vn 0.000000 0.000000 1.000000
vn 0.000000 0.000000 1.000000
vn 0.000000 0.000000 1.000000
vn 0.000000 0.000000 1.000000
vn 0.000000 0.000000 1.000000
vn -0.000000 0.000000 -1.000000
vn -0.000000 0.000000 -1.000000
vn -0.000000 0.000000 -1.000000
vn -0.000000 0.000000 -1.000000
vn -0.000000 -1.000000 -0.000000
vn -0.000000 -1.000000 -0.000000
vn -0.000000 -1.000000 -0.000000
vn -0.000000 -1.000000 -0.000000
vn -0.000000 1.000000 -0.000000
vn -0.000000 1.000000 -0.000000
vn -0.000000 1.000000 -0.000000
vn -0.000000 1.000000 -0.000000
vn 1.000000 0.000000 0.000000
vn 1.000000 0.000000 0.000000
vn 1.000000 0.000000 0.000000
vn 1.000000 0.000000 0.000000
vn 1.000000 0.000000 0.000000
vn 1.000000 0.000000 0.000000
vn 1.000000 0.000000 0.000000
vn 1.000000 0.000000 0.000000
vn 1.000000 0.000000 0.000000
vn 1.000000 0.000000 0.000000
vn 1.000000 0.000000 0.000000
vn 1.000000 0.000000 0.000000
vn -0.000000 0.000000 -1.000000
vn -0.000000 0.000000 -1.000000
vn -0.000000 0.000000 -1.000000
vn -0.000000 0.000000 -1.000000
vn -0.000000 0.000000 -1.000000
vn -0.000000 0.000000 -1.000000
vn -0.000000 0.000000 -1.000000
vn -0.000000 0.000000 -1.000000
vn -0.000000 0.000000 -1.000000
vn -0.000000 1.000000 -0.000000
vn -0.000000 1.000000 -0.000000
vn -0.000000 1.000000 -0.000000
vn -0.000000 1.000000 -0.000000
vn 1.000000 -0.000000 -0.000000
vn 1.000000 -0.000000 -0.000000
vn 1.000000 -0.000000 -0.000000
vn 1.000000 -0.000000 -0.000000
vn -0.007407 0.999973 0.000000
vn -0.007407 0.999973 0.000000
vn -0.007407 0.999973 0.000000
vn -0.007407 0.999973 0.000000
vn 0.000000 -1.000000 0.000000
vn 0.000000 -1.000000 0.000000
vn 0.000000 -1.000000 0.000000
vn 0.000000 -1.000000 0.000000
vn -1.000000 0.000000 0.000000
vn -1.000000 0.000000 0.000000
vn -1.000000 0.000000 0.000000
vn -1.000000 0.000000 0.000000
vn -1.000000 0.000000 0.000000
vn 1.000000 0.000000 0.000000
vn 1.000000 0.000000 0.000000
vn 1.000000 0.000000 0.000000
vn 1.000000 0.000000 0.000000
vn 1.000000 0.000000 0.000000
vn 1.000000 0.000000 0.000000
vn 1.000000 0.000000 0.000000
vn 1.000000 0.000000 0.000000
vn 0.000000 -1.000000 0.000000
vn 0.000000 -1.000000 0.000000
vn 0.000000 -1.000000 0.000000
vn 0.000000 -1.000000 0.000000
f 57/169/169 58/170/170 60/171/171
f 60/171/171 58/170/170 59/172/172
f 60/173/173 59/174/174 62/175/175
f 62/175/175 59/174/174 61/176/176
f 64/177/177 65/178/178 63/179/179
f 63/179/179 65/178/178 67/180/180
f 63/179/179 67/180/180 68/181/181
f 65/178/178 66/182/182 67/180/180
f 68/181/181 69/183/183 63/179/179
f 63/179/179 69/183/183 70/184/184
f 58/185/185 71/186/186 59/187/187
f 59/187/187 71/186/186 61/188/188
f 72/189/189 73/190/190 75/191/191
f 75/191/191 73/190/190 74/192/192
f 76/193/193 72/194/194 77/195/195
f 77/195/195 72/194/194 75/196/196
f 73/197/197 67/198/198 74/199/199
f 74/199/199 67/198/198 66/200/200
f 67/201/201 73/202/202 68/203/203
f 68/203/203 73/202/202 80/204/204
f 80/204/204 73/202/202 79/205/205
f 79/205/205 73/202/202 72/206/206
f 79/205/205 72/206/206 78/207/207
f 78/207/207 72/206/206 76/208/208
f 76/209/209 77/210/210 78/211/211
f 78/211/211 77/210/210 81/212/212
f 64/213/213 82/214/214 65/215/215
f 65/215/215 82/214/214 85/216/216
f 85/216/216 82/214/214 84/217/217
f 84/217/217 82/214/214 83/218/218
f 86/219/219 85/220/220 79/221/221
f 79/221/221 85/220/220 80/222/222
f 80/222/222 85/220/220 84/223/223
f 80/222/222 84/223/223 89/224/224
f 89/224/224 84/223/223 88/225/225
f 88/225/225 84/223/223 87/226/226
f 90/227/227 91/228/228 93/229/229
f 93/229/229 91/228/228 92/230/230
f 70/231/231 94/232/232 63/233/233
f 63/233/233 94/232/232 95/234/234
f 58/235/235 57/236/236 71/237/237
f 71/237/237 57/236/236 96/238/238
f 61/239/239 71/240/240 62/241/241
f 62/241/241 71/240/240 96/242/242
f 62/241/241 96/242/242 89/243/243
f 89/243/243 96/242/242 94/244/244
f 89/243/243 94/244/244 69/245/245
f 69/245/245 94/244/244 70/246/246
f 89/243/243 88/247/247 62/241/241
f 62/241/241 88/247/247 97/248/248
f 97/248/248 88/247/247 93/249/249
f 97/248/248 93/249/249 92/250/250
f 62/251/251 97/252/252 60/253/253
f 60/253/253 97/252/252 83/254/254
f 60/253/253 83/254/254 57/255/255
f 57/255/255 83/254/254 95/256/256
f 57/255/255 95/256/256 94/257/257
f 83/254/254 82/258/258 95/256/256
f 94/257/257 96/259/259 57/255/255
f 91/260/260 83/261/261 92/262/262
f 92/262/262 83/261/261 97/263/263
f 63/264/264 95/265/265 64/266/266
f 64/266/266 95/265/265 82/267/267
f 69/268/268 68/269/269 89/270/270
f 89/270/270 68/269/269 80/271/271
f 90/272/272 93/273/273 87/274/274
f 87/274/274 93/273/273 88/275/275
f 91/276/276 90/277/277 83/278/278
f 83/278/278 90/277/277 87/279/279
f 83/278/278 87/279/279 84/280/280
f 66/281/281 65/282/282 74/283/283
f 74/283/283 65/282/282 85/284/284
f 74/283/283 85/284/284 75/285/285
f 75/285/285 85/284/284 86/286/286
f 75/285/285 86/286/286 81/287/287
f 81/287/287 77/288/288 75/285/285
f 78/289/289 81/290/290 79/291/291
f 79/291/291 81/290/290 86/292/292
g Cuerpo 8

v 4.900000 -0.100000 0.000000
v 4.900000 -0.050000 0.000000
v 4.900000 -0.050000 1.000000
v 4.900000 -0.100000 1.000000
v 4.100000 -0.100000 0.000000
v 4.100000 -0.100000 1.000000
v 4.100000 -0.050000 0.000000
v 4.100000 -0.050000 1.000000
vt 0.000000 0.000000 0.000000
vt 0.050000 0.000000 0.000000
vt 0.000000 1.000000 0.000000
vt 0.050000 1.000000 0.000000
vt 0.000000 0.000000 0.000000
vt 0.800000 0.000000 0.000000
vt 0.000000 1.000000 0.000000
vt 0.800000 1.000000 0.000000
vt 0.000000 0.000000 0.000000
vt 0.050000 0.000000 0.000000
vt 0.000000 1.000000 0.000000
vt 0.050000 1.000000 0.000000
vt 0.000000 0.000000 0.000000
vt 0.800000 0.000000 0.000000
vt 0.000000 1.000000 0.000000
vt 0.800000 1.000000 0.000000
vt 0.400000 0.025000 0.000000
vt -0.400000 0.025000 0.000000
vt 0.400000 -0.025000 0.000000
vt -0.400000 -0.025000 0.000000
vt 0.400000 0.025000 0.000000
vt -0.400000 0.025000 0.000000
vt 0.400000 -0.025000 0.000000
vt -0.400000 -0.025000 0.000000
vn 1.000000 0.000000 0.000000
vn 1.000000 0.000000 0.000000
vn 1.000000 0.000000 0.000000
vn 1.000000 0.000000 0.000000
vn -0.000000 -1.000000 0.000000
vn -0.000000 -1.000000 0.000000
vn -0.000000 -1.000000 0.000000
vn -0.000000 -1.000000 0.000000
vn -1.000000 0.000000 0.000000
vn -1.000000 0.000000 0.000000
vn -1.000000 0.000000 0.000000
vn -1.000000 0.000000 0.000000
vn -0.000000 1.000000 0.000000
vn -0.000000 1.000000 0.000000
vn -0.000000 1.000000 0.000000
vn -0.000000 1.000000 0.000000
vn 0.000000 0.000000 1.000000
vn 0.000000 0.000000 1.000000
vn 0.000000 0.000000 1.000000
vn 0.000000 0.000000 1.000000
vn -0.000000 -0.000000 -1.000000
vn -0.000000 -0.000000 -1.000000
vn -0.000000 -0.000000 -1.000000
vn -0.000000 -0.000000 -1.000000
usemtl Acero_-_Satinado
f 98/293/293 99/294/294 101/295/295
f 101/295/295 99/294/294 100/296/296
f 102/297/297 98/298/298 103/299/299
f 103/299/299 98/298/298 101/300/300
f 104/301/301 102/302/302 105/303/303
f 105/303/303 102/302/302 103/304/304
f 99/305/305 104/306/306 100/307/307
f 100/307/307 104/306/306 105/308/308
f 100/309/309 105/310/310 101/311/311
f 101/311/311 105/310/310 103/312/312
f 104/313/313 99/314/314 102/315/315
f 102/315/315 99/314/314 98/316/316
g Cuerpo 6

v 14.100000 1.500000 0.000000
v 14.050000 1.500000 0.000000
v 14.050000 1.500000 1.000000
v 14.100000 1.500000 1.000000
v 14.100000 1.100000 0.000000
v 14.100000 1.100000 1.000000
v 14.050000 1.100000 0.000000
v 14.050000 1.100000 1.000000
vt -0.000000 0.000000 0.000000
vt 0.050000 0.000000 0.000000
vt -0.000000 1.000000 0.000000
vt 0.050000 1.000000 0.000000
vt 0.000000 0.000000 0.000000
vt 0.400000 0.000000 0.000000
vt 0.000000 1.000000 0.000000
vt 0.400000 1.000000 0.000000
vt 0.000000 0.000000 0.000000
vt 0.050000 0.000000 0.000000
vt 0.000000 1.000000 0.000000
vt 0.050000 1.000000 0.000000
vt -0.000000 0.000000 0.000000
vt 0.400000 0.000000 0.000000
vt -0.000000 1.000000 0.000000
vt 0.400000 1.000000 0.000000
vt -0.025000 -0.200000 0.000000
vt 0.025000 -0.200000 0.000000
vt -0.025000 0.200000 0.000000
vt 0.025000 0.200000 0.000000
vt 0.025000 0.200000 0.000000
vt -0.025000 0.200000 0.000000
vt 0.025000 -0.200000 0.000000
vt -0.025000 -0.200000 0.000000
vn 0.000000 1.000000 0.000000
vn 0.000000 1.000000 0.000000
vn 0.000000 1.000000 0.000000
vn 0.000000 1.000000 0.000000
vn 1.000000 0.000000 -0.000000
vn 1.000000 0.000000 -0.000000
vn 1.000000 0.000000 -0.000000
vn 1.000000 0.000000 -0.000000
vn 0.000000 -1.000000 0.000000
vn 0.000000 -1.000000 0.000000
vn 0.000000 -1.000000 0.000000
vn 0.000000 -1.000000 0.000000
vn -1.000000 0.000000 0.000000
vn -1.000000 0.000000 0.000000
vn -1.000000 0.000000 0.000000
vn -1.000000 0.000000 0.000000
vn 0.000000 0.000000 1.000000
vn 0.000000 0.000000 1.000000
vn 0.000000 0.000000 1.000000
vn 0.000000 0.000000 1.000000
vn -0.000000 0.000000 -1.000000
vn -0.000000 0.000000 -1.000000
vn -0.000000 0.000000 -1.000000
vn -0.000000 0.000000 -1.000000
f 106/317/317 107/318/318 109/319/319
f 109/319/319 107/318/318 108/320/320
f 110/321/321 106/322/322 111/323/323
f 111/323/323 106/322/322 109/324/324
f 112/325/325 110/326/326 113/327/327
f 113/327/327 110/326/326 111/328/328
f 107/329/329 112/330/330 108/331/331
f 108/331/331 112/330/330 113/332/332
f 113/333/333 111/334/334 108/335/335
f 108/335/335 111/334/334 109/336/336
f 107/337/337 106/338/338 112/339/339
f 112/339/339 106/338/338 110/340/340
g Cuerpo 7

v 12.100000 -0.450000 0.000000
v 12.100000 -0.050000 0.000000
v 12.100000 -0.050000 2.000000
v 12.100000 -0.450000 2.000000
v 11.501245 -0.450000 0.000000
v 11.501245 -0.450000 2.000000
v 11.501245 -0.050000 0.000000
v 11.501245 -0.050000 2.000000
vt 0.000000 0.000000 0.000000
vt 0.400000 0.000000 0.000000
vt 0.000000 2.000000 0.000000
vt 0.400000 2.000000 0.000000
vt 0.000000 0.000000 0.000000
vt 0.598755 0.000000 0.000000
vt 0.000000 2.000000 0.000000
vt 0.598755 2.000000 0.000000
vt -0.000000 0.000000 0.000000
vt 0.400000 0.000000 0.000000
vt -0.000000 2.000000 0.000000
vt 0.400000 2.000000 0.000000
vt -0.000000 0.000000 0.000000
vt 0.598755 0.000000 0.000000
vt -0.000000 2.000000 0.000000
vt 0.598755 2.000000 0.000000
vt 0.299378 0.200000 0.000000
vt -0.299378 0.200000 0.000000
vt 0.299378 -0.200000 0.000000
vt -0.299378 -0.200000 0.000000
vt 0.299378 0.200000 0.000000
vt -0.299378 0.200000 0.000000
vt 0.299378 -0.200000 0.000000
vt -0.299378 -0.200000 0.000000
vn 1.000000 0.000000 -0.000000
vn 1.000000 0.000000 -0.000000
vn 1.000000 0.000000 -0.000000
vn 1.000000 0.000000 -0.000000
vn 0.000000 -1.000000 0.000000
vn 0.000000 -1.000000 0.000000
vn 0.000000 -1.000000 0.000000
vn 0.000000 -1.000000 0.000000
vn -1.000000 0.000000 0.000000
vn -1.000000 0.000000 0.000000
vn -1.000000 0.000000 0.000000
vn -1.000000 0.000000 0.000000
vn 0.000000 1.000000 0.000000
vn 0.000000 1.000000 0.000000
vn 0.000000 1.000000 0.000000
vn 0.000000 1.000000 0.000000
vn 0.000000 0.000000 1.000000
vn 0.000000 0.000000 1.000000
vn 0.000000 0.000000 1.000000
vn 0.000000 0.000000 1.000000
vn -0.000000 0.000000 -1.000000
vn -0.000000 0.000000 -1.000000
vn -0.000000 0.000000 -1.000000
vn -0.000000 0.000000 -1.000000
f 114/341/341 115/342/342 117/343/343
f 117/343/343 115/342/342 116/344/344
f 118/345/345 114/346/346 119/347/347
f 119/347/347 114/346/346 117/348/348
f 120/349/349 118/350/350 121/351/351
f 121/351/351 118/350/350 119/352/352
f 115/353/353 120/354/354 116/355/355
f 116/355/355 120/354/354 121/356/356
f 116/357/357 121/358/358 117/359/359
f 117/359/359 121/358/358 119/360/360
f 120/361/361 115/362/362 118/363/363
f 118/363/363 115/362/362 114/364/364
g Cuerpo 0

v 0.500000 -0.050000 0.000000
v 0.500000 3.650388 0.000000
v 0.500000 3.650388 -0.100000
v 0.500000 -0.050000 -0.100000
v 4.900000 -0.050000 0.000000
v 4.900000 -0.050000 -0.100000
v 4.900000 -0.900000 0.000000
v 4.900000 -0.900000 -0.100000
v 6.600000 -0.900000 0.000000
v 6.600000 -0.900000 -0.100000
v 6.600000 -0.050000 0.000000
v 6.600000 -0.050000 -0.100000
v 7.600000 -0.050000 0.000000
v 7.600000 -0.050000 -0.100000
v 7.600000 -0.500000 0.000000
v 7.600000 -0.500000 -0.100000
v 14.100000 -0.500000 0.000000
v 14.100000 -0.500000 -0.100000
v 14.100000 3.750000 0.000000
v 14.100000 3.750000 -0.100000
v 7.300000 3.700194 0.000000
v 7.300000 3.700194 -0.100000
vt 0.000000 0.000000 0.000000
vt 3.700388 0.000000 0.000000
vt 0.000000 0.100000 0.000000
vt 3.700388 0.100000 0.000000
vt 0.000000 0.000000 0.000000
vt 4.400000 0.000000 0.000000
vt 0.000000 0.100000 0.000000
vt 4.400000 0.100000 0.000000
vt 0.000000 0.000000 0.000000
vt 0.850000 0.000000 0.000000
vt 0.000000 0.100000 0.000000
vt 0.850000 0.100000 0.000000
vt 0.000000 0.000000 0.000000
vt 1.700000 0.000000 0.000000
vt 0.000000 0.100000 0.000000
vt 1.700000 0.100000 0.000000
vt 0.000000 0.000000 0.000000
vt 0.850000 0.000000 0.000000
vt 0.000000 0.100000 0.000000
vt 0.850000 0.100000 0.000000
vt 0.000000 0.000000 0.000000
vt 1.000000 0.000000 0.000000
vt 0.000000 0.100000 0.000000
vt 1.000000 0.100000 0.000000
vt 0.000000 0.000000 0.000000
vt 0.450000 0.000000 0.000000
vt 0.000000 0.100000 0.000000
vt 0.450000 0.100000 0.000000
vt 0.000000 0.000000 0.000000
vt 6.500000 0.000000 0.000000
vt 0.000000 0.100000 0.000000
vt 6.500000 0.100000 0.000000
vt 0.000000 0.000000 0.000000
vt 4.250000 0.000000 0.000000
vt 0.000000 0.100000 0.000000
vt 4.250000 0.100000 0.000000
vt 0.000000 0.000000 0.000000
vt 6.800182 0.000000 0.000000
vt 0.000000 0.100000 0.000000
vt 6.800182 0.100000 0.000000
vt 13.600365 0.000000 0.000000
vt 13.600365 0.100000 0.000000
vt 6.800000 -1.925000 0.000000
vt 6.800000 2.325000 0.000000
vt 0.300000 -1.475000 0.000000
vt 0.000000 2.275194 0.000000
vt -0.700000 -1.475000 0.000000
vt -2.400000 -1.475000 0.000000
vt -0.700000 -2.325000 0.000000
vt -2.400000 -2.325000 0.000000
vt -6.800000 2.225388 0.000000
vt -6.800000 -1.475000 0.000000
vt 0.300000 -1.925000 0.000000
vt 6.800000 -1.475000 0.000000
vt 6.800000 2.225388 0.000000
vt 2.400000 -1.475000 0.000000
vt 0.000000 2.275194 0.000000
vt 0.700000 -1.475000 0.000000
vt -0.300000 -1.475000 0.000000
vt -6.800000 2.325000 0.000000
vt -6.800000 -1.925000 0.000000
vt -0.300000 -1.925000 0.000000
vt 0.700000 -2.325000 0.000000
vt 2.400000 -2.325000 0.000000
vn -1.000000 -0.000000 -0.000000
vn -1.000000 -0.000000 -0.000000
vn -1.000000 -0.000000 -0.000000
vn -1.000000 -0.000000 -0.000000
vn -0.000000 -1.000000 -0.000000
vn -0.000000 -1.000000 -0.000000
vn -0.000000 -1.000000 -0.000000
vn -0.000000 -1.000000 -0.000000
vn -1.000000 0.000000 0.000000
vn -1.000000 0.000000 0.000000
vn -1.000000 0.000000 0.000000
vn -1.000000 0.000000 0.000000
vn -0.000000 -1.000000 -0.000000
vn -0.000000 -1.000000 -0.000000
vn -0.000000 -1.000000 -0.000000
vn -0.000000 -1.000000 -0.000000
vn 1.000000 0.000000 0.000000
vn 1.000000 0.000000 0.000000
vn 1.000000 0.000000 0.000000
vn 1.000000 0.000000 0.000000
vn -0.000000 -1.000000 -0.000000
vn -0.000000 -1.000000 -0.000000
vn -0.000000 -1.000000 -0.000000
vn -0.000000 -1.000000 -0.000000
vn -1.000000 0.000000 0.000000
vn -1.000000 0.000000 0.000000
vn -1.000000 0.000000 0.000000
vn -1.000000 0.000000 0.000000
vn -0.000000 -1.000000 -0.000000
vn -0.000000 -1.000000 -0.000000
vn -0.000000 -1.000000 -0.000000
vn -0.000000 -1.000000 -0.000000
vn 1.000000 0.000000 0.000000
vn 1.000000 0.000000 0.000000
vn 1.000000 0.000000 0.000000
vn 1.000000 0.000000 0.000000
vn -0.007324 0.999973 0.000000
vn -0.007324 0.999973 0.000000
vn -0.007324 0.999973 0.000000
vn -0.007324 0.999973 0.000000
vn -0.007324 0.999973 0.000000
vn -0.007324 0.999973 0.000000
vn 0.000000 -0.000000 1.000000
vn 0.000000 -0.000000 1.000000
vn 0.000000 -0.000000 1.000000
vn 0.000000 -0.000000 1.000000
vn 0.000000 -0.000000 1.000000
vn 0.000000 -0.000000 1.000000
vn 0.000000 -0.000000 1.000000
vn 0.000000 -0.000000 1.000000
vn 0.000000 -0.000000 1.000000
vn 0.000000 -0.000000 1.000000
vn 0.000000 -0.000000 1.000000
vn 0.000000 0.000000 -1.000000
vn 0.000000 0.000000 -1.000000
vn 0.000000 0.000000 -1.000000
vn 0.000000 0.000000 -1.000000
vn 0.000000 0.000000 -1.000000
vn 0.000000 0.000000 -1.000000
vn 0.000000 0.000000 -1.000000
vn 0.000000 0.000000 -1.000000
vn 0.000000 0.000000 -1.000000
vn 0.000000 0.000000 -1.000000
vn 0.000000 0.000000 -1.000000
f 122/365/365 123/366/366 125/367/367
f 125/367/367 123/366/366 124/368/368
f 126/369/369 122/370/370 127/371/371
f 127/371/371 122/370/370 125/372/372
f 128/373/373 126/374/374 129/375/375
f 129/375/375 126/374/374 127/376/376
f 130/377/377 128/378/378 131/379/379
f 131/379/379 128/378/378 129/380/380
f 132/381/381 130/382/382 133/383/383
f 133/383/383 130/382/382 131/384/384
f 134/385/385 132/386/386 135/387/387
f 135/387/387 132/386/386 133/388/388
f 136/389/389 134/390/390 137/391/391
f 137/391/391 134/390/390 135/392/392
f 138/393/393 136/394/394 139/395/395
f 139/395/395 136/394/394 137/396/396
f 140/397/397 138/398/398 141/399/399
f 141/399/399 138/398/398 139/400/400
f 123/401/401 142/402/402 124/403/403
f 124/403/403 142/402/402 143/404/404
f 143/404/404 142/402/402 140/405/405
f 143/404/404 140/405/405 141/406/406
f 138/407/407 140/408/408 134/409/409
f 134/409/409 140/408/408 142/410/410
f 134/409/409 142/410/410 132/411/411
f 132/411/411 142/410/410 126/412/412
f 132/411/411 126/412/412 130/413/413
f 130/413/413 126/412/412 128/414/414
f 142/410/410 123/415/415 126/412/412
f 126/412/412 123/415/415 122/416/416
f 134/409/409 136/417/417 138/407/407
f 125/418/418 124/419/419 127/420/420
f 127/420/420 124/419/419 143/421/421
f 127/420/420 143/421/421 133/422/422
f 133/422/422 143/421/421 135/423/423
f 135/423/423 143/421/421 141/424/424
f 135/423/423 141/424/424 139/425/425
f 139/425/425 137/426/426 135/423/423
f 131/427/427 129/428/428 133/422/422
f 133/422/422 129/428/428 127/420/420
g Cuerpo 5

v 7.700000 -0.050000 0.000000
v 7.700000 -0.050000 1.000000
v 7.700000 -0.400000 1.000000
v 7.700000 -0.400000 0.000000
v 8.200000 -0.050000 1.000000
v 8.200000 -0.400000 1.000000
v 8.200000 -0.050000 0.000000
v 8.200000 -0.400000 0.000000
v 11.000000 -0.050000 0.400000
v 8.400000 -0.050000 1.500000
v 8.400000 -0.100000 1.500000
v 11.000000 -0.100000 0.400000
v 11.000000 -0.100000 0.000000
v 11.000000 -0.050000 0.000000
v 7.650000 -0.100000 1.500000
v 7.650000 -0.100000 1.300000
v 8.400000 -0.100000 1.300000
v 8.400000 -0.100000 1.250000
v 8.500000 -0.100000 1.250000
v 8.500000 -0.100000 1.200000
v 8.600000 -0.100000 1.200000
v 8.600000 -0.100000 1.150000
v 8.700000 -0.100000 1.150000
v 8.700000 -0.100000 1.100000
v 8.800000 -0.100000 1.100000
v 8.800000 -0.100000 1.050000
v 8.900000 -0.100000 1.050000
v 8.900000 -0.100000 1.000000
v 9.000000 -0.100000 1.000000
v 9.000000 -0.100000 0.950000
v 9.100000 -0.100000 0.950000
v 9.100000 -0.100000 0.900000
v 9.200000 -0.100000 0.900000
v 9.200000 -0.100000 0.850000
v 9.300000 -0.100000 0.850000
v 9.300000 -0.100000 0.800000
v 9.400000 -0.100000 0.800000
v 9.400000 -0.100000 0.750000
v 9.500000 -0.100000 0.750000
v 9.500000 -0.100000 0.700000
v 9.600000 -0.100000 0.700000
v 9.600000 -0.100000 0.650000
v 9.700000 -0.100000 0.650000
v 9.700000 -0.100000 0.600000
v 9.800000 -0.100000 0.600000
v 9.800000 -0.100000 0.550000
v 9.900000 -0.100000 0.550000
v 9.900000 -0.100000 0.500000
v 10.000000 -0.100000 0.500000
v 10.000000 -0.100000 0.455000
v 10.100000 -0.100000 0.455000
v 10.100000 -0.100000 0.400000
v 10.200000 -0.100000 0.400000
v 10.200000 -0.100000 0.350000
v 10.300000 -0.100000 0.350000
v 10.300000 -0.100000 0.300000
v 10.400000 -0.100000 0.300000
v 10.400000 -0.100000 0.250000
v 10.500000 -0.100000 0.250000
v 10.500000 -0.100000 0.200000
v 10.600000 -0.100000 0.200000
v 10.600000 -0.100000 0.150000
v 10.700000 -0.100000 0.150000
v 10.700000 -0.100000 0.100000
v 10.800000 -0.100000 0.100000
v 10.800000 -0.100000 0.050000
v 10.900000 -0.100000 0.050000
v 10.900000 -0.100000 0.000000
v 7.650000 -0.050000 1.500000
v 7.650000 -0.450000 0.000000
v 7.650000 -0.450000 1.300000
v 7.650000 -0.050000 0.000000
v 10.900000 -0.450000 0.000000
v 10.900000 -0.450000 0.050000
v 10.800000 -0.450000 0.050000
v 10.800000 -0.450000 0.100000
v 10.700000 -0.450000 0.100000
v 10.700000 -0.450000 0.150000
v 10.600000 -0.450000 0.150000
v 10.600000 -0.450000 0.200000
v 10.500000 -0.450000 0.200000
v 10.500000 -0.450000 0.250000
v 10.400000 -0.450000 0.250000
v 10.400000 -0.450000 0.300000
v 10.300000 -0.450000 0.300000
v 10.300000 -0.450000 0.350000
v 10.200000 -0.450000 0.350000
v 10.200000 -0.450000 0.400000
v 10.100000 -0.450000 0.400000
v 10.100000 -0.450000 0.455000
v 10.000000 -0.450000 0.455000
v 10.000000 -0.450000 0.500000
v 9.900000 -0.450000 0.500000
v 9.900000 -0.450000 0.550000
v 9.800000 -0.450000 0.550000
v 9.800000 -0.450000 0.600000
v 9.700000 -0.450000 0.600000
v 9.700000 -0.450000 0.650000
v 9.600000 -0.450000 0.650000
v 9.600000 -0.450000 0.700000
v 9.500000 -0.450000 0.700000
v 9.500000 -0.450000 0.750000
v 9.400000 -0.450000 0.750000
v 9.400000 -0.450000 0.800000
v 9.300000 -0.450000 0.800000
v 9.300000 -0.450000 0.850000
v 9.200000 -0.450000 0.850000
v 9.200000 -0.450000 0.900000
v 9.100000 -0.450000 0.900000
v 9.100000 -0.450000 0.950000
v 9.000000 -0.450000 0.950000
v 9.000000 -0.450000 1.000000
v 8.900000 -0.450000 1.000000
v 8.900000 -0.450000 1.050000
v 8.800000 -0.450000 1.050000
v 8.800000 -0.450000 1.100000
v 8.700000 -0.450000 1.100000
v 8.700000 -0.450000 1.150000
v 8.600000 -0.450000 1.150000
v 8.600000 -0.450000 1.200000
v 8.500000 -0.450000 1.200000
v 8.500000 -0.450000 1.250000
v 8.400000 -0.450000 1.250000
v 8.400000 -0.450000 1.000000
v 8.380000 -0.450000 1.000000
v 8.380000 -0.450000 1.300000
v 8.400000 -0.450000 1.300000
vt -1.000000 0.000000 0.000000
vt -0.000000 0.000000 0.000000
vt -1.000000 0.350000 0.000000
vt -0.000000 0.350000 0.000000
vt -0.500000 0.000000 0.000000
vt -0.000000 0.000000 0.000000
vt -0.500000 0.350000 0.000000
vt -0.000000 0.350000 0.000000
vt -1.000000 0.000000 0.000000
vt -0.000000 0.000000 0.000000
vt -1.000000 0.350000 0.000000
vt -0.000000 0.350000 0.000000
vt -0.500000 -0.250000 0.000000
vt 0.500000 -0.250000 0.000000
vt -0.500000 0.250000 0.000000
vt 0.500000 0.250000 0.000000
vt 1.411559 0.037500 0.000000
vt -1.411559 0.037500 0.000000
vt 1.411559 -0.012500 0.000000
vt -1.411559 -0.012500 0.000000
vt 0.050000 0.400000 0.000000
vt 0.000000 0.400000 0.000000
vt 0.050000 0.000000 0.000000
vt 0.000000 0.000000 0.000000
vt 0.750000 1.500000 0.000000
vt 1.550000 0.900000 0.000000
vt 3.350000 0.400000 0.000000
vt 1.650000 0.850000 0.000000
vt 1.750000 0.800000 0.000000
vt 1.650000 0.800000 0.000000
vt 0.000000 1.500000 0.000000
vt 0.750000 1.300000 0.000000
vt 0.850000 1.250000 0.000000
vt 0.950000 1.200000 0.000000
vt 0.850000 1.200000 0.000000
vt 0.000000 1.300000 0.000000
vt 0.750000 1.250000 0.000000
vt 0.950000 1.150000 0.000000
vt 1.050000 1.150000 0.000000
vt 1.050000 1.100000 0.000000
vt 1.150000 1.100000 0.000000
vt 1.150000 1.050000 0.000000
vt 1.250000 1.050000 0.000000
vt 1.250000 1.000000 0.000000
vt 1.350000 1.000000 0.000000
vt 1.350000 0.950000 0.000000
vt 1.450000 0.950000 0.000000
vt 1.450000 0.900000 0.000000
vt 1.550000 0.850000 0.000000
vt 1.750000 0.750000 0.000000
vt 1.850000 0.750000 0.000000
vt 1.850000 0.700000 0.000000
vt 1.950000 0.700000 0.000000
vt 1.950000 0.650000 0.000000
vt 2.050000 0.650000 0.000000
vt 2.050000 0.600000 0.000000
vt 2.150000 0.600000 0.000000
vt 2.150000 0.550000 0.000000
vt 2.250000 0.550000 0.000000
vt 2.250000 0.500000 0.000000
vt 2.350000 0.500000 0.000000
vt 2.350000 0.455000 0.000000
vt 2.450000 0.455000 0.000000
vt 2.450000 0.400000 0.000000
vt 2.550000 0.400000 0.000000
vt 2.550000 0.350000 0.000000
vt 2.650000 0.350000 0.000000
vt 2.650000 0.300000 0.000000
vt 2.750000 0.300000 0.000000
vt 2.750000 0.250000 0.000000
vt 2.850000 0.250000 0.000000
vt 2.850000 0.200000 0.000000
vt 2.950000 0.200000 0.000000
vt 2.950000 0.150000 0.000000
vt 3.050000 0.150000 0.000000
vt 3.050000 0.100000 0.000000
vt 3.150000 0.100000 0.000000
vt 3.150000 0.050000 0.000000
vt 3.250000 0.050000 0.000000
vt 3.250000 0.000000 0.000000
vt 3.350000 0.000000 0.000000
vt -0.924999 -0.024999 0.000000
vt -0.924999 0.025001 0.000000
vt -1.674999 -0.024999 0.000000
vt -1.675000 0.025001 0.000000
vt 0.350000 1.300000 0.000000
vt -0.000000 1.300000 0.000000
vt 0.350000 0.000000 0.000000
vt -0.050000 0.000000 0.000000
vt -0.050000 1.500000 0.000000
vt -0.000000 1.500000 0.000000
vt 0.730000 1.300000 0.000000
vt 0.000000 1.300000 0.000000
vt 0.730000 1.000000 0.000000
vt 0.000000 0.000000 0.000000
vt 1.650000 0.800000 0.000000
vt 1.750000 0.750000 0.000000
vt 1.750000 0.800000 0.000000
vt 3.250000 0.000000 0.000000
vt 3.150000 0.050000 0.000000
vt 3.050000 0.100000 0.000000
vt 2.950000 0.150000 0.000000
vt 3.050000 0.150000 0.000000
vt 3.250000 0.050000 0.000000
vt 3.150000 0.100000 0.000000
vt 2.950000 0.200000 0.000000
vt 2.850000 0.200000 0.000000
vt 2.850000 0.250000 0.000000
vt 2.750000 0.250000 0.000000
vt 2.750000 0.300000 0.000000
vt 2.650000 0.300000 0.000000
vt 2.650000 0.350000 0.000000
vt 2.550000 0.350000 0.000000
vt 2.550000 0.400000 0.000000
vt 2.450000 0.400000 0.000000
vt 2.450000 0.455000 0.000000
vt 2.350000 0.455000 0.000000
vt 2.350000 0.500000 0.000000
vt 2.250000 0.500000 0.000000
vt 2.250000 0.550000 0.000000
vt 2.150000 0.550000 0.000000
vt 2.150000 0.600000 0.000000
vt 2.050000 0.600000 0.000000
vt 2.050000 0.650000 0.000000
vt 1.950000 0.650000 0.000000
vt 1.950000 0.700000 0.000000
vt 1.850000 0.700000 0.000000
vt 1.850000 0.750000 0.000000
vt 1.650000 0.850000 0.000000
vt 1.550000 0.850000 0.000000
vt 1.550000 0.900000 0.000000
vt 1.450000 0.900000 0.000000
vt 0.750000 1.000000 0.000000
vt 1.450000 0.950000 0.000000
vt 1.350000 0.950000 0.000000
vt 1.350000 1.000000 0.000000
vt 1.250000 1.000000 0.000000
vt 1.250000 1.050000 0.000000
vt 1.150000 1.050000 0.000000
vt 1.150000 1.100000 0.000000
vt 1.050000 1.100000 0.000000
vt 1.050000 1.150000 0.000000
vt 0.950000 1.150000 0.000000
vt 0.950000 1.200000 0.000000
vt 0.850000 1.200000 0.000000
vt 0.850000 1.250000 0.000000
vt 0.750000 1.250000 0.000000
vt 0.020000 1.000000 0.000000
vt 0.020000 1.250000 0.000000
vt 0.000000 1.000000 0.000000
vt 0.000000 1.300000 0.000000
vt 0.020000 1.300000 0.000000
vt 0.000000 1.250000 0.000000
vt 0.350000 1.250000 0.000000
vt 0.000000 1.300000 0.000000
vt 0.350000 1.300000 0.000000
vt 0.375001 -0.175001 0.000000
vt 0.375001 0.174999 0.000000
vt 0.355000 -0.175001 0.000000
vt -0.374999 0.174999 0.000000
vt -0.375000 -0.175001 0.000000
vt 0.000000 1.200000 0.000000
vt 0.350000 1.200000 0.000000
vt 0.000000 1.250000 0.000000
vt 0.350000 1.250000 0.000000
vt -0.050000 -0.175000 0.000000
vt 0.050000 -0.175000 0.000000
vt -0.050000 0.175000 0.000000
vt 0.050000 0.175000 0.000000
vt 0.000000 1.150000 0.000000
vt 0.350000 1.150000 0.000000
vt 0.000000 1.200000 0.000000
vt 0.350000 1.200000 0.000000
vt -0.050000 -0.175000 0.000000
vt 0.050000 -0.175000 0.000000
vt -0.050000 0.175000 0.000000
vt 0.050000 0.175000 0.000000
vt 0.000000 1.100000 0.000000
vt 0.350000 1.100000 0.000000
vt 0.000000 1.150000 0.000000
vt 0.350000 1.150000 0.000000
vt -0.050000 -0.175000 0.000000
vt 0.050000 -0.175000 0.000000
vt -0.050000 0.175000 0.000000
vt 0.050000 0.175000 0.000000
vt 0.000000 1.050000 0.000000
vt 0.350000 1.050000 0.000000
vt 0.000000 1.100000 0.000000
vt 0.350000 1.100000 0.000000
vt -0.050000 -0.175000 0.000000
vt 0.050000 -0.175000 0.000000
vt -0.050000 0.175000 0.000000
vt 0.050000 0.175000 0.000000
vt 0.000000 1.000000 0.000000
vt 0.350000 1.000000 0.000000
vt 0.000000 1.050000 0.000000
vt 0.350000 1.050000 0.000000
vt -0.050000 -0.175000 0.000000
vt 0.050000 -0.175000 0.000000
vt -0.050000 0.175000 0.000000
vt 0.050000 0.175000 0.000000
vt 0.000000 0.950000 0.000000
vt 0.350000 0.950000 0.000000
vt 0.000000 1.000000 0.000000
vt 0.350000 1.000000 0.000000
vt 0.000000 0.900000 0.000000
vt 0.350000 0.900000 0.000000
vt 0.000000 0.950000 0.000000
vt 0.350000 0.950000 0.000000
vt -0.050000 -0.175000 0.000000
vt 0.050000 -0.175000 0.000000
vt -0.050000 0.175000 0.000000
vt 0.050000 0.175000 0.000000
vt 0.000000 0.850000 0.000000
vt 0.350000 0.850000 0.000000
vt 0.000000 0.900000 0.000000
vt 0.350000 0.900000 0.000000
vt -0.050000 -0.175000 0.000000
vt 0.050000 -0.175000 0.000000
vt -0.050000 0.175000 0.000000
vt 0.050000 0.175000 0.000000
vt 0.000000 0.800000 0.000000
vt 0.350000 0.800000 0.000000
vt 0.000000 0.850000 0.000000
vt 0.350000 0.850000 0.000000
vt -0.050000 -0.175000 0.000000
vt 0.050000 -0.175000 0.000000
vt -0.050000 0.175000 0.000000
vt 0.050000 0.175000 0.000000
vt 0.000000 0.750000 0.000000
vt 0.350000 0.750000 0.000000
vt 0.000000 0.800000 0.000000
vt 0.350000 0.800000 0.000000
vt -0.050000 -0.175000 0.000000
vt 0.050000 -0.175000 0.000000
vt -0.050000 0.175000 0.000000
vt 0.050000 0.175000 0.000000
vt 0.000000 0.700000 0.000000
vt 0.350000 0.700000 0.000000
vt 0.000000 0.750000 0.000000
vt 0.350000 0.750000 0.000000
vt -0.050000 -0.175000 0.000000
vt 0.050000 -0.175000 0.000000
vt -0.050000 0.175000 0.000000
vt 0.050000 0.175000 0.000000
vt 0.000000 0.650000 0.000000
vt 0.350000 0.650000 0.000000
vt 0.000000 0.700000 0.000000
vt 0.350000 0.700000 0.000000
vt -0.050000 -0.175000 0.000000
vt 0.050000 -0.175000 0.000000
vt -0.050000 0.175000 0.000000
vt 0.050000 0.175000 0.000000
vt 0.000000 0.600000 0.000000
vt 0.350000 0.600000 0.000000
vt 0.000000 0.650000 0.000000
vt 0.350000 0.650000 0.000000
vt -0.050000 0.175000 0.000000
vt -0.050000 -0.175000 0.000000
vt 0.050000 0.175000 0.000000
vt 0.050000 -0.175000 0.000000
vt 0.000000 0.550000 0.000000
vt 0.350000 0.550000 0.000000
vt 0.000000 0.600000 0.000000
vt 0.350000 0.600000 0.000000
vt -0.050000 -0.175000 0.000000
vt 0.050000 -0.175000 0.000000
vt -0.050000 0.175000 0.000000
vt 0.050000 0.175000 0.000000
vt 0.000000 0.500000 0.000000
vt 0.350000 0.500000 0.000000
vt 0.000000 0.550000 0.000000
vt 0.350000 0.550000 0.000000
vt -0.050000 -0.175000 0.000000
vt 0.050000 -0.175000 0.000000
vt -0.050000 0.175000 0.000000
vt 0.050000 0.175000 0.000000
vt 0.000000 0.455000 0.000000
vt 0.350000 0.455000 0.000000
vt 0.000000 0.500000 0.000000
vt 0.350000 0.500000 0.000000
vt -0.050000 -0.175000 0.000000
vt 0.050000 -0.175000 0.000000
vt -0.050000 0.175000 0.000000
vt 0.050000 0.175000 0.000000
vt 0.000000 0.400000 0.000000
vt 0.350000 0.400000 0.000000
vt 0.000000 0.455000 0.000000
vt 0.350000 0.455000 0.000000
vt -0.050000 -0.175000 0.000000
vt 0.050000 -0.175000 0.000000
vt -0.050000 0.175000 0.000000
vt 0.050000 0.175000 0.000000
vt 0.000000 0.350000 0.000000
vt 0.350000 0.350000 0.000000
vt 0.000000 0.400000 0.000000
vt 0.350000 0.400000 0.000000
vt -0.050000 -0.175000 0.000000
vt 0.050000 -0.175000 0.000000
vt -0.050000 0.175000 0.000000
vt 0.050000 0.175000 0.000000
vt 0.000000 0.300000 0.000000
vt 0.350000 0.300000 0.000000
vt 0.000000 0.350000 0.000000
vt 0.350000 0.350000 0.000000
vt -0.050000 -0.175000 0.000000
vt 0.050000 -0.175000 0.000000
vt -0.050000 0.175000 0.000000
vt 0.050000 0.175000 0.000000
vt 0.000000 0.250000 0.000000
vt 0.350000 0.250000 0.000000
vt 0.000000 0.300000 0.000000
vt 0.350000 0.300000 0.000000
vt -0.050000 -0.175000 0.000000
vt 0.050000 -0.175000 0.000000
vt -0.050000 0.175000 0.000000
vt 0.050000 0.175000 0.000000
vt 0.000000 0.200000 0.000000
vt 0.350000 0.200000 0.000000
vt 0.000000 0.250000 0.000000
vt 0.350000 0.250000 0.000000
vt -0.050000 -0.175000 0.000000
vt 0.050000 -0.175000 0.000000
vt -0.050000 0.175000 0.000000
vt 0.050000 0.175000 0.000000
vt 0.000000 0.150000 0.000000
vt 0.350000 0.150000 0.000000
vt 0.000000 0.200000 0.000000
vt 0.350000 0.200000 0.000000
vt -0.050000 -0.175000 0.000000
vt 0.050000 -0.175000 0.000000
vt -0.050000 0.175000 0.000000
vt 0.050000 0.175000 0.000000
vt 0.000000 0.100000 0.000000
vt 0.350000 0.100000 0.000000
vt 0.000000 0.150000 0.000000
vt 0.350000 0.150000 0.000000
vt -0.050000 -0.175000 0.000000
vt 0.050000 -0.175000 0.000000
vt -0.050000 0.175000 0.000000
vt 0.050000 0.175000 0.000000
vt 0.000000 0.050000 0.000000
vt 0.350000 0.050000 0.000000
vt 0.000000 0.100000 0.000000
vt 0.350000 0.100000 0.000000
vt -0.050000 -0.175000 0.000000
vt 0.050000 -0.175000 0.000000
vt -0.050000 0.175000 0.000000
vt 0.050000 0.175000 0.000000
vt -0.050000 -0.175000 0.000000
vt 0.050000 -0.175000 0.000000
vt -0.050000 0.175000 0.000000
vt 0.050000 0.175000 0.000000
vt 0.350000 0.050000 0.000000
vt 0.000000 0.050000 0.000000
vt 0.350000 0.000000 0.000000
vt 0.000000 0.000000 0.000000
vt -1.950000 -0.175000 0.000000
vt -1.850000 -0.175000 0.000000
vt -1.950000 0.175000 0.000000
vt -1.850000 0.175000 0.000000
vt -0.050000 0.000000 0.000000
vt -0.000000 0.000000 0.000000
vt -0.050000 1.000000 0.000000
vt -0.000000 1.500000 0.000000
vt -0.550000 1.000000 0.000000
vt -0.750000 1.500000 0.000000
vt -3.350000 0.400000 0.000000
vt -3.350000 0.000000 0.000000
vt -0.550000 0.000000 0.000000
vt 3.200000 0.225000 0.000000
vt 3.150000 -0.125000 0.000000
vt 3.200000 -0.175000 0.000000
vt 2.650000 -0.125000 0.000000
vt -0.050000 -0.175000 0.000000
vt -0.050000 0.175000 0.000000
vt 2.650000 0.225000 0.000000
vt -0.150000 0.225000 0.000000
vt 3.150000 0.225000 0.000000
vt -0.150000 0.175000 0.000000
vn 1.000000 0.000000 0.000000
vn 1.000000 0.000000 0.000000
vn 1.000000 0.000000 0.000000
vn 1.000000 0.000000 0.000000
vn -0.000000 -0.000000 -1.000000
vn -0.000000 -0.000000 -1.000000
vn -0.000000 -0.000000 -1.000000
vn -0.000000 -0.000000 -1.000000
vn -1.000000 -0.000000 0.000000
vn -1.000000 -0.000000 0.000000
vn -1.000000 -0.000000 0.000000
vn -1.000000 -0.000000 0.000000
vn -0.000000 1.000000 -0.000000
vn -0.000000 1.000000 -0.000000
vn -0.000000 1.000000 -0.000000
vn -0.000000 1.000000 -0.000000
vn 0.389640 0.000000 0.920967
vn 0.389640 0.000000 0.920967
vn 0.389640 0.000000 0.920967
vn 0.389640 0.000000 0.920967
vn 1.000000 0.000000 -0.000000
vn 1.000000 0.000000 -0.000000
vn 1.000000 0.000000 -0.000000
vn 1.000000 0.000000 -0.000000
vn 0.000000 -1.000000 0.000000
vn 0.000000 -1.000000 0.000000
vn 0.000000 -1.000000 0.000000
vn 0.000000 -1.000000 0.000000
vn 0.000000 -1.000000 0.000000
vn 0.000000 -1.000000 0.000000
vn 0.000000 -1.000000 0.000000
vn 0.000000 -1.000000 0.000000
vn 0.000000 -1.000000 0.000000
vn 0.000000 -1.000000 0.000000
vn 0.000000 -1.000000 0.000000
vn 0.000000 -1.000000 0.000000
vn 0.000000 -1.000000 0.000000
vn 0.000000 -1.000000 0.000000
vn 0.000000 -1.000000 0.000000
vn 0.000000 -1.000000 0.000000
vn 0.000000 -1.000000 0.000000
vn 0.000000 -1.000000 0.000000
vn 0.000000 -1.000000 0.000000
vn 0.000000 -1.000000 0.000000
vn 0.000000 -1.000000 0.000000
vn 0.000000 -1.000000 0.000000
vn 0.000000 -1.000000 0.000000
vn 0.000000 -1.000000 0.000000
vn 0.000000 -1.000000 0.000000
vn 0.000000 -1.000000 0.000000
vn 0.000000 -1.000000 0.000000
vn 0.000000 -1.000000 0.000000
vn 0.000000 -1.000000 0.000000
vn 0.000000 -1.000000 0.000000
vn 0.000000 -1.000000 0.000000
vn 0.000000 -1.000000 0.000000
vn 0.000000 -1.000000 0.000000
vn 0.000000 -1.000000 0.000000
vn 0.000000 -1.000000 0.000000
vn 0.000000 -1.000000 0.000000
vn 0.000000 -1.000000 0.000000
vn 0.000000 -1.000000 0.000000
vn 0.000000 -1.000000 0.000000
vn 0.000000 -1.000000 0.000000
vn 0.000000 -1.000000 0.000000
vn 0.000000 -1.000000 0.000000
vn 0.000000 -1.000000 0.000000
vn 0.000000 -1.000000 0.000000
vn 0.000000 -1.000000 0.000000
vn 0.000000 -1.000000 0.000000
vn 0.000000 -1.000000 0.000000
vn 0.000000 -1.000000 0.000000
vn 0.000000 -1.000000 0.000000
vn 0.000000 -1.000000 0.000000
vn 0.000000 -1.000000 0.000000
vn 0.000000 -1.000000 0.000000
vn 0.000000 -1.000000 0.000000
vn 0.000000 -1.000000 0.000000
vn 0.000000 -1.000000 0.000000
vn 0.000000 -1.000000 0.000000
vn 0.000000 -1.000000 0.000000
vn 0.000000 0.000000 1.000000
vn 0.000000 0.000000 1.000000
vn 0.000000 0.000000 1.000000
vn 0.000000 0.000000 1.000000
vn -1.000000 0.000000 0.000000
vn -1.000000 0.000000 0.000000
vn -1.000000 0.000000 0.000000
vn -1.000000 0.000000 0.000000
vn -1.000000 0.000000 0.000000
vn -1.000000 0.000000 0.000000
vn 0.000000 -1.000000 0.000000
vn 0.000000 -1.000000 0.000000
vn 0.000000 -1.000000 0.000000
vn 0.000000 -1.000000 0.000000
vn 0.000000 -1.000000 0.000000
vn 0.000000 -1.000000 0.000000
vn 0.000000 -1.000000 0.000000
vn 0.000000 -1.000000 0.000000
vn 0.000000 -1.000000 0.000000
vn 0.000000 -1.000000 0.000000
vn 0.000000 -1.000000 0.000000
vn 0.000000 -1.000000 0.000000
vn 0.000000 -1.000000 0.000000
vn 0.000000 -1.000000 0.000000
vn 0.000000 -1.000000 0.000000
vn 0.000000 -1.000000 0.000000
vn 0.000000 -1.000000 0.000000
vn 0.000000 -1.000000 0.000000
vn 0.000000 -1.000000 0.000000
vn 0.000000 -1.000000 0.000000
vn 0.000000 -1.000000 0.000000
vn 0.000000 -1.000000 0.000000
vn 0.000000 -1.000000 0.000000
vn 0.000000 -1.000000 0.000000
vn 0.000000 -1.000000 0.000000
vn 0.000000 -1.000000 0.000000
vn 0.000000 -1.000000 0.000000
vn 0.000000 -1.000000 0.000000
vn 0.000000 -1.000000 0.000000
vn 0.000000 -1.000000 0.000000
vn 0.000000 -1.000000 0.000000
vn 0.000000 -1.000000 0.000000
vn 0.000000 -1.000000 0.000000
vn 0.000000 -1.000000 0.000000
vn 0.000000 -1.000000 0.000000
vn 0.000000 -1.000000 0.000000
vn 0.000000 -1.000000 0.000000
vn 0.000000 -1.000000 0.000000
vn 0.000000 -1.000000 0.000000
vn 0.000000 -1.000000 0.000000
vn 0.000000 -1.000000 0.000000
vn 0.000000 -1.000000 0.000000
vn 0.000000 -1.000000 0.000000
vn 0.000000 -1.000000 0.000000
vn 0.000000 -1.000000 0.000000
vn 0.000000 -1.000000 0.000000
vn 0.000000 -1.000000 0.000000
vn 0.000000 -1.000000 0.000000
vn 0.000000 -1.000000 0.000000
vn 0.000000 -1.000000 0.000000
vn 0.000000 -1.000000 0.000000
vn 0.000000 -1.000000 0.000000
vn 0.000000 -1.000000 0.000000
vn 0.000000 -1.000000 0.000000
vn 0.000000 -1.000000 0.000000
vn 0.000000 -1.000000 0.000000
vn 0.000000 -1.000000 0.000000
vn 0.000000 -1.000000 0.000000
vn 0.000000 -1.000000 0.000000
vn 0.000000 -1.000000 0.000000
vn 0.000000 -1.000000 0.000000
vn 1.000000 0.000000 -0.000000
vn 1.000000 0.000000 -0.000000
vn 1.000000 0.000000 -0.000000
vn 1.000000 0.000000 -0.000000
vn 0.000000 0.000000 1.000000
vn 0.000000 0.000000 1.000000
vn 0.000000 0.000000 1.000000
vn 0.000000 0.000000 1.000000
vn 0.000000 0.000000 1.000000
vn 1.000000 0.000000 -0.000000
vn 1.000000 0.000000 -0.000000
vn 1.000000 0.000000 -0.000000
vn 1.000000 0.000000 -0.000000
vn 0.000000 0.000000 1.000000
vn 0.000000 0.000000 1.000000
vn 0.000000 0.000000 1.000000
vn 0.000000 0.000000 1.000000
vn 1.000000 0.000000 -0.000000
vn 1.000000 0.000000 -0.000000
vn 1.000000 0.000000 -0.000000
vn 1.000000 0.000000 -0.000000
vn 0.000000 0.000000 1.000000
vn 0.000000 0.000000 1.000000
vn 0.000000 0.000000 1.000000
vn 0.000000 0.000000 1.000000
vn 1.000000 0.000000 -0.000000
vn 1.000000 0.000000 -0.000000
vn 1.000000 0.000000 -0.000000
vn 1.000000 0.000000 -0.000000
vn 0.000000 0.000000 1.000000
vn 0.000000 0.000000 1.000000
vn 0.000000 0.000000 1.000000
vn 0.000000 0.000000 1.000000
vn 1.000000 0.000000 -0.000000
vn 1.000000 0.000000 -0.000000
vn 1.000000 0.000000 -0.000000
vn 1.000000 0.000000 -0.000000
vn 0.000000 0.000000 1.000000
vn 0.000000 0.000000 1.000000
vn 0.000000 0.000000 1.000000
vn 0.000000 0.000000 1.000000
vn 1.000000 0.000000 -0.000000
vn 1.000000 0.000000 -0.000000
vn 1.000000 0.000000 -0.000000
vn 1.000000 0.000000 -0.000000
vn 0.000000 0.000000 1.000000
vn 0.000000 0.000000 1.000000
vn 0.000000 0.000000 1.000000
vn 0.000000 0.000000 1.000000
vn 1.000000 0.000000 -0.000000
vn 1.000000 0.000000 -0.000000
vn 1.000000 0.000000 -0.000000
vn 1.000000 0.000000 -0.000000
vn 1.000000 0.000000 -0.000000
vn 1.000000 0.000000 -0.000000
vn 1.000000 0.000000 -0.000000
vn 1.000000 0.000000 -0.000000
vn 0.000000 0.000000 1.000000
vn 0.000000 0.000000 1.000000
vn 0.000000 0.000000 1.000000
vn 0.000000 0.000000 1.000000
vn 1.000000 0.000000 -0.000000
vn 1.000000 0.000000 -0.000000
vn 1.000000 0.000000 -0.000000
vn 1.000000 0.000000 -0.000000
vn 0.000000 0.000000 1.000000
vn 0.000000 0.000000 1.000000
vn 0.000000 0.000000 1.000000
vn 0.000000 0.000000 1.000000
vn 1.000000 0.000000 -0.000000
vn 1.000000 0.000000 -0.000000
vn 1.000000 0.000000 -0.000000
vn 1.000000 0.000000 -0.000000
vn 0.000000 0.000000 1.000000
vn 0.000000 0.000000 1.000000
vn 0.000000 0.000000 1.000000
vn 0.000000 0.000000 1.000000
vn 1.000000 0.000000 -0.000000
vn 1.000000 0.000000 -0.000000
vn 1.000000 0.000000 -0.000000
vn 1.000000 0.000000 -0.000000
vn 0.000000 0.000000 1.000000
vn 0.000000 0.000000 1.000000
vn 0.000000 0.000000 1.000000
vn 0.000000 0.000000 1.000000
vn 1.000000 0.000000 -0.000000
vn 1.000000 0.000000 -0.000000
vn 1.000000 0.000000 -0.000000
vn 1.000000 0.000000 -0.000000
vn 0.000000 0.000000 1.000000
vn 0.000000 0.000000 1.000000
vn 0.000000 0.000000 1.000000
vn 0.000000 0.000000 1.000000
vn 1.000000 0.000000 -0.000000
vn 1.000000 0.000000 -0.000000
vn 1.000000 0.000000 -0.000000
vn 1.000000 0.000000 -0.000000
vn -0.000000 -0.000000 1.000000
vn -0.000000 -0.000000 1.000000
vn -0.000000 -0.000000 1.000000
vn -0.000000 -0.000000 1.000000
vn 1.000000 0.000000 -0.000000
vn 1.000000 0.000000 -0.000000
vn 1.000000 0.000000 -0.000000
vn 1.000000 0.000000 -0.000000
vn -0.000000 -0.000000 1.000000
vn -0.000000 -0.000000 1.000000
vn -0.000000 -0.000000 1.000000
vn -0.000000 -0.000000 1.000000
vn 1.000000 0.000000 -0.000000
vn 1.000000 0.000000 -0.000000
vn 1.000000 0.000000 -0.000000
vn 1.000000 0.000000 -0.000000
vn -0.000000 -0.000000 1.000000
vn -0.000000 -0.000000 1.000000
vn -0.000000 -0.000000 1.000000
vn -0.000000 -0.000000 1.000000
vn 1.000000 0.000000 -0.000000
vn 1.000000 0.000000 -0.000000
vn 1.000000 0.000000 -0.000000
vn 1.000000 0.000000 -0.000000
vn -0.000000 -0.000000 1.000000
vn -0.000000 -0.000000 1.000000
vn -0.000000 -0.000000 1.000000
vn -0.000000 -0.000000 1.000000
vn 1.000000 0.000000 -0.000000
vn 1.000000 0.000000 -0.000000
vn 1.000000 0.000000 -0.000000
vn 1.000000 0.000000 -0.000000
vn -0.000000 -0.000000 1.000000
vn -0.000000 -0.000000 1.000000
vn -0.000000 -0.000000 1.000000
vn -0.000000 -0.000000 1.000000
vn 1.000000 0.000000 -0.000000
vn 1.000000 0.000000 -0.000000
vn 1.000000 0.000000 -0.000000
vn 1.000000 0.000000 -0.000000
vn -0.000000 -0.000000 1.000000
vn -0.000000 -0.000000 1.000000
vn -0.000000 -0.000000 1.000000
vn -0.000000 -0.000000 1.000000
vn 1.000000 0.000000 -0.000000
vn 1.000000 0.000000 -0.000000
vn 1.000000 0.000000 -0.000000
vn 1.000000 0.000000 -0.000000
vn -0.000000 -0.000000 1.000000
vn -0.000000 -0.000000 1.000000
vn -0.000000 -0.000000 1.000000
vn -0.000000 -0.000000 1.000000
vn 1.000000 0.000000 -0.000000
vn 1.000000 0.000000 -0.000000
vn 1.000000 0.000000 -0.000000
vn 1.000000 0.000000 -0.000000
vn -0.000000 -0.000000 1.000000
vn -0.000000 -0.000000 1.000000
vn -0.000000 -0.000000 1.000000
vn -0.000000 -0.000000 1.000000
vn 1.000000 0.000000 -0.000000
vn 1.000000 0.000000 -0.000000
vn 1.000000 0.000000 -0.000000
vn 1.000000 0.000000 -0.000000
vn -0.000000 -0.000000 1.000000
vn -0.000000 -0.000000 1.000000
vn -0.000000 -0.000000 1.000000
vn -0.000000 -0.000000 1.000000
vn 1.000000 0.000000 -0.000000
vn 1.000000 0.000000 -0.000000
vn 1.000000 0.000000 -0.000000
vn 1.000000 0.000000 -0.000000
vn -0.000000 -0.000000 1.000000
vn -0.000000 -0.000000 1.000000
vn -0.000000 -0.000000 1.000000
vn -0.000000 -0.000000 1.000000
vn 1.000000 0.000000 -0.000000
vn 1.000000 0.000000 -0.000000
vn 1.000000 0.000000 -0.000000
vn 1.000000 0.000000 -0.000000
vn -0.000000 -0.000000 1.000000
vn -0.000000 -0.000000 1.000000
vn -0.000000 -0.000000 1.000000
vn -0.000000 -0.000000 1.000000
vn 1.000000 0.000000 -0.000000
vn 1.000000 0.000000 -0.000000
vn 1.000000 0.000000 -0.000000
vn 1.000000 0.000000 -0.000000
vn -0.000000 -0.000000 1.000000
vn -0.000000 -0.000000 1.000000
vn -0.000000 -0.000000 1.000000
vn -0.000000 -0.000000 1.000000
vn 1.000000 0.000000 -0.000000
vn 1.000000 0.000000 -0.000000
vn 1.000000 0.000000 -0.000000
vn 1.000000 0.000000 -0.000000
vn -0.000000 -0.000000 1.000000
vn -0.000000 -0.000000 1.000000
vn -0.000000 -0.000000 1.000000
vn -0.000000 -0.000000 1.000000
vn -0.000000 -0.000000 1.000000
vn -0.000000 -0.000000 1.000000
vn -0.000000 -0.000000 1.000000
vn -0.000000 -0.000000 1.000000
vn 1.000000 0.000000 -0.000000
vn 1.000000 0.000000 -0.000000
vn 1.000000 0.000000 -0.000000
vn 1.000000 0.000000 -0.000000
vn 0.000000 0.000000 1.000000
vn 0.000000 0.000000 1.000000
vn 0.000000 0.000000 1.000000
vn 0.000000 0.000000 1.000000
vn 0.000000 1.000000 0.000000
vn 0.000000 1.000000 0.000000
vn 0.000000 1.000000 0.000000
vn 0.000000 1.000000 0.000000
vn 0.000000 1.000000 0.000000
vn 0.000000 1.000000 0.000000
vn 0.000000 1.000000 0.000000
vn 0.000000 1.000000 0.000000
vn 0.000000 1.000000 0.000000
vn -0.000000 0.000000 -1.000000
vn -0.000000 0.000000 -1.000000
vn -0.000000 0.000000 -1.000000
vn -0.000000 0.000000 -1.000000
vn -0.000000 0.000000 -1.000000
vn -0.000000 0.000000 -1.000000
vn -0.000000 0.000000 -1.000000
vn -0.000000 0.000000 -1.000000
vn -0.000000 0.000000 -1.000000
vn -0.000000 0.000000 -1.000000
usemtl Acero_-_Satinado_(1)
f 144/429/429 145/430/430 147/431/431
f 147/431/431 145/430/430 146/432/432
f 145/433/433 148/434/434 146/435/435
f 146/435/435 148/434/434 149/436/436
f 148/437/437 150/438/438 149/439/439
f 149/439/439 150/438/438 151/440/440
f 147/441/441 146/442/442 151/443/443
f 151/443/443 146/442/442 149/444/444
f 152/445/445 153/446/446 155/447/447
f 155/447/447 153/446/446 154/448/448
f 152/449/449 155/450/450 157/451/451
f 157/451/451 155/450/450 156/452/452
f 154/453/453 176/454/454 155/455/455
f 155/455/455 176/454/454 178/456/456
f 155/455/455 178/456/456 180/457/457
f 180/457/457 178/456/456 179/458/458
f 158/459/459 160/460/460 154/453/453
f 154/453/453 160/460/460 162/461/461
f 154/453/453 162/461/461 164/462/462
f 164/462/462 162/461/461 163/463/463
f 158/459/459 159/464/464 160/460/460
f 160/460/460 161/465/465 162/461/461
f 165/466/466 166/467/467 164/462/462
f 164/462/462 166/467/467 154/453/453
f 167/468/468 168/469/469 166/467/467
f 166/467/467 168/469/469 154/453/453
f 169/470/470 170/471/471 168/469/469
f 168/469/469 170/471/471 154/453/453
f 171/472/472 172/473/473 170/471/471
f 170/471/471 172/473/473 154/453/453
f 173/474/474 174/475/475 172/473/473
f 172/473/473 174/475/475 154/453/453
f 175/476/476 176/454/454 174/475/475
f 174/475/475 176/454/454 154/453/453
f 176/454/454 177/477/477 178/456/456
f 181/478/478 182/479/479 180/457/457
f 180/457/457 182/479/479 155/455/455
f 183/480/480 184/481/481 182/479/479
f 182/479/479 184/481/481 155/455/455
f 185/482/482 186/483/483 184/481/481
f 184/481/481 186/483/483 155/455/455
f 187/484/484 188/485/485 186/483/483
f 186/483/483 188/485/485 155/455/455
f 189/486/486 190/487/487 188/485/485
f 188/485/485 190/487/487 155/455/455
f 191/488/488 192/489/489 190/487/487
f 190/487/487 192/489/489 155/455/455
f 193/490/490 194/491/491 192/489/489
f 192/489/489 194/491/491 155/455/455
f 195/492/492 196/493/493 194/491/491
f 194/491/491 196/493/493 155/455/455
f 197/494/494 198/495/495 196/493/493
f 196/493/493 198/495/495 155/455/455
f 199/496/496 200/497/497 198/495/495
f 198/495/495 200/497/497 155/455/455
f 201/498/498 202/499/499 200/497/497
f 200/497/497 202/499/499 155/455/455
f 203/500/500 204/501/501 202/499/499
f 202/499/499 204/501/501 155/455/455
f 205/502/502 206/503/503 204/501/501
f 204/501/501 206/503/503 155/455/455
f 207/504/504 208/505/505 206/503/503
f 206/503/503 208/505/505 155/455/455
f 209/506/506 210/507/507 208/505/505
f 208/505/505 210/507/507 155/455/455
f 211/508/508 156/509/509 210/507/507
f 210/507/507 156/509/509 155/455/455
f 154/510/510 153/511/511 158/512/512
f 158/512/512 153/511/511 212/513/513
f 214/514/514 159/515/515 213/516/516
f 213/516/516 159/515/515 215/517/517
f 215/517/517 159/515/515 212/518/518
f 212/518/518 159/515/515 158/519/519
f 269/520/520 214/521/521 268/522/522
f 268/522/522 214/521/521 213/523/523
f 268/522/522 213/523/523 248/524/524
f 248/524/524 213/523/523 246/525/525
f 248/524/524 246/525/525 247/526/526
f 216/527/527 218/528/528 213/523/523
f 213/523/523 218/528/528 220/529/529
f 213/523/523 220/529/529 222/530/530
f 222/530/530 220/529/529 221/531/531
f 216/527/527 217/532/532 218/528/528
f 218/528/528 219/533/533 220/529/529
f 223/534/534 224/535/535 222/530/530
f 222/530/530 224/535/535 213/523/523
f 225/536/536 226/537/537 224/535/535
f 224/535/535 226/537/537 213/523/523
f 227/538/538 228/539/539 226/537/537
f 226/537/537 228/539/539 213/523/523
f 229/540/540 230/541/541 228/539/539
f 228/539/539 230/541/541 213/523/523
f 231/542/542 232/543/543 230/541/541
f 230/541/541 232/543/543 213/523/523
f 233/544/544 234/545/545 232/543/543
f 232/543/543 234/545/545 213/523/523
f 235/546/546 236/547/547 234/545/545
f 234/545/545 236/547/547 213/523/523
f 237/548/548 238/549/549 236/547/547
f 236/547/547 238/549/549 213/523/523
f 239/550/550 240/551/551 238/549/549
f 238/549/549 240/551/551 213/523/523
f 241/552/552 242/553/553 240/551/551
f 240/551/551 242/553/553 213/523/523
f 243/554/554 244/555/555 242/553/553
f 242/553/553 244/555/555 213/523/523
f 245/556/556 246/525/525 244/555/555
f 244/555/555 246/525/525 213/523/523
f 249/557/557 250/558/558 248/524/524
f 248/524/524 250/558/558 268/522/522
f 251/559/559 252/560/560 250/558/558
f 250/558/558 252/560/560 267/561/561
f 250/558/558 267/561/561 268/522/522
f 253/562/562 254/563/563 252/560/560
f 252/560/560 254/563/563 267/561/561
f 255/564/564 256/565/565 254/563/563
f 254/563/563 256/565/565 267/561/561
f 257/566/566 258/567/567 256/565/565
f 256/565/565 258/567/567 267/561/561
f 259/568/568 260/569/569 258/567/567
f 258/567/567 260/569/569 267/561/561
f 261/570/570 262/571/571 260/569/569
f 260/569/569 262/571/571 267/561/561
f 263/572/572 264/573/573 262/571/571
f 262/571/571 264/573/573 267/561/561
f 265/574/574 266/575/575 264/573/573
f 264/573/573 266/575/575 267/561/561
f 267/576/576 266/577/577 268/578/578
f 268/578/578 266/577/577 269/579/579
f 269/579/579 266/577/577 270/580/580
f 266/581/581 161/582/582 270/583/583
f 270/583/583 161/582/582 160/584/584
f 270/585/585 160/586/586 269/587/587
f 269/587/587 160/586/586 159/588/588
f 269/587/587 159/588/588 214/589/589
f 264/590/590 163/591/591 265/592/592
f 265/592/592 163/591/591 162/593/593
f 266/594/594 265/595/595 161/596/596
f 161/596/596 265/595/595 162/597/597
f 262/598/598 165/599/599 263/600/600
f 263/600/600 165/599/599 164/601/601
f 264/602/602 263/603/603 163/604/604
f 163/604/604 263/603/603 164/605/605
f 260/606/606 167/607/607 261/608/608
f 261/608/608 167/607/607 166/609/609
f 262/610/610 261/611/611 165/612/612
f 165/612/612 261/611/611 166/613/613
f 258/614/614 169/615/615 259/616/616
f 259/616/616 169/615/615 168/617/617
f 260/618/618 259/619/619 167/620/620
f 167/620/620 259/619/619 168/621/621
f 256/622/622 171/623/623 257/624/624
f 257/624/624 171/623/623 170/625/625
f 258/626/626 257/627/627 169/628/628
f 169/628/628 257/627/627 170/629/629
f 254/630/630 173/631/631 255/632/632
f 255/632/632 173/631/631 172/633/633
f 252/634/634 175/635/635 253/636/636
f 253/636/636 175/635/635 174/637/637
f 254/638/638 253/639/639 173/640/640
f 173/640/640 253/639/639 174/641/641
f 250/642/642 177/643/643 251/644/644
f 251/644/644 177/643/643 176/645/645
f 252/646/646 251/647/647 175/648/648
f 175/648/648 251/647/647 176/649/649
f 248/650/650 179/651/651 249/652/652
f 249/652/652 179/651/651 178/653/653
f 250/654/654 249/655/655 177/656/656
f 177/656/656 249/655/655 178/657/657
f 246/658/658 181/659/659 247/660/660
f 247/660/660 181/659/659 180/661/661
f 248/662/662 247/663/663 179/664/664
f 179/664/664 247/663/663 180/665/665
f 244/666/666 183/667/667 245/668/668
f 245/668/668 183/667/667 182/669/669
f 246/670/670 245/671/671 181/672/672
f 181/672/672 245/671/671 182/673/673
f 242/674/674 185/675/675 243/676/676
f 243/676/676 185/675/675 184/677/677
f 244/678/678 243/679/679 183/680/680
f 183/680/680 243/679/679 184/681/681
f 240/682/682 187/683/683 241/684/684
f 241/684/684 187/683/683 186/685/685
f 185/686/686 242/687/687 186/688/688
f 186/688/688 242/687/687 241/689/689
f 238/690/690 189/691/691 239/692/692
f 239/692/692 189/691/691 188/693/693
f 240/694/694 239/695/695 187/696/696
f 187/696/696 239/695/695 188/697/697
f 236/698/698 191/699/699 237/700/700
f 237/700/700 191/699/699 190/701/701
f 238/702/702 237/703/703 189/704/704
f 189/704/704 237/703/703 190/705/705
f 234/706/706 193/707/707 235/708/708
f 235/708/708 193/707/707 192/709/709
f 236/710/710 235/711/711 191/712/712
f 191/712/712 235/711/711 192/713/713
f 232/714/714 195/715/715 233/716/716
f 233/716/716 195/715/715 194/717/717
f 234/718/718 233/719/719 193/720/720
f 193/720/720 233/719/719 194/721/721
f 230/722/722 197/723/723 231/724/724
f 231/724/724 197/723/723 196/725/725
f 232/726/726 231/727/727 195/728/728
f 195/728/728 231/727/727 196/729/729
f 228/730/730 199/731/731 229/732/732
f 229/732/732 199/731/731 198/733/733
f 230/734/734 229/735/735 197/736/736
f 197/736/736 229/735/735 198/737/737
f 226/738/738 201/739/739 227/740/740
f 227/740/740 201/739/739 200/741/741
f 228/742/742 227/743/743 199/744/744
f 199/744/744 227/743/743 200/745/745
f 224/746/746 203/747/747 225/748/748
f 225/748/748 203/747/747 202/749/749
f 226/750/750 225/751/751 201/752/752
f 201/752/752 225/751/751 202/753/753
f 222/754/754 205/755/755 223/756/756
f 223/756/756 205/755/755 204/757/757
f 224/758/758 223/759/759 203/760/760
f 203/760/760 223/759/759 204/761/761
f 220/762/762 207/763/763 221/764/764
f 221/764/764 207/763/763 206/765/765
f 222/766/766 221/767/767 205/768/768
f 205/768/768 221/767/767 206/769/769
f 218/770/770 209/771/771 219/772/772
f 219/772/772 209/771/771 208/773/773
f 220/774/774 219/775/775 207/776/776
f 207/776/776 219/775/775 208/777/777
f 218/778/778 217/779/779 209/780/780
f 209/780/780 217/779/779 210/781/781
f 210/782/782 217/783/783 211/784/784
f 211/784/784 217/783/783 216/785/785
f 256/786/786 255/787/787 171/788/788
f 171/788/788 255/787/787 172/789/789
f 144/790/790 215/791/791 145/792/792
f 145/792/792 215/791/791 212/793/793
f 145/792/792 212/793/793 148/794/794
f 148/794/794 212/793/793 153/795/795
f 148/794/794 153/795/795 152/796/796
f 157/797/797 150/798/798 152/796/796
f 152/796/796 150/798/798 148/794/794
f 215/799/799 147/800/800 213/801/801
f 213/801/801 147/800/800 151/802/802
f 213/801/801 151/802/802 216/803/803
f 216/803/803 151/802/802 211/804/804
f 211/804/804 151/802/802 150/805/805
f 211/804/804 150/805/805 157/806/806
f 215/799/799 144/807/807 147/800/800
f 157/806/806 156/808/808 211/804/804
g Cuerpo 9

v 4.500000 3.679412 1.000000
v 4.500000 3.679412 0.000000
v 4.500000 3.629259 0.000000
v 4.500000 3.629259 1.000000
v 5.000000 3.632963 1.000000
v 5.000000 3.683088 1.000000
v 5.000000 3.632963 0.000000
v 5.000000 3.683088 0.000000
vt -0.300000 2.631044 0.000000
vt -1.300000 2.631044 0.000000
vt -0.300000 2.580892 0.000000
vt -1.300000 2.580892 0.000000
vt -2.800000 1.804259 0.000000
vt -2.300000 1.807963 0.000000
vt -2.800000 1.854412 0.000000
vt -2.300000 1.858088 0.000000
vt 3.950108 0.000000 0.000000
vt 4.450122 0.000000 0.000000
vt 3.950108 1.000000 0.000000
vt 4.450122 1.000000 0.000000
vt 2.800000 1.804259 0.000000
vt 2.800000 1.854412 0.000000
vt 2.300000 1.807963 0.000000
vt 2.300000 1.858088 0.000000
vt 9.600260 1.000000 0.000000
vt 9.100246 1.000000 0.000000
vt 9.600260 0.000000 0.000000
vt 9.100246 0.000000 0.000000
vt -0.000000 2.633088 0.000000
vt -1.000000 2.633088 0.000000
vt -0.000000 2.582963 0.000000
vt -1.000000 2.582963 0.000000
vn -1.000000 -0.000000 -0.000000
vn -1.000000 -0.000000 -0.000000
vn -1.000000 -0.000000 -0.000000
vn -1.000000 -0.000000 -0.000000
vn 0.000000 0.000000 1.000000
vn 0.000000 0.000000 1.000000
vn 0.000000 0.000000 1.000000
vn 0.000000 0.000000 1.000000
vn 0.007407 -0.999973 0.000000
vn 0.007407 -0.999973 0.000000
vn 0.007407 -0.999973 0.000000
vn 0.007407 -0.999973 0.000000
vn -0.000000 0.000000 -1.000000
vn -0.000000 0.000000 -1.000000
vn -0.000000 0.000000 -1.000000
vn -0.000000 0.000000 -1.000000
vn -0.007353 0.999973 0.000000
vn -0.007353 0.999973 0.000000
vn -0.007353 0.999973 0.000000
vn -0.007353 0.999973 0.000000
vn 1.000000 -0.000000 -0.000000
vn 1.000000 -0.000000 -0.000000
vn 1.000000 -0.000000 -0.000000
vn 1.000000 -0.000000 -0.000000
usemtl Acero_-_Satinado
f 271/809/809 272/810/810 274/811/811
f 274/811/811 272/810/810 273/812/812
f 274/813/813 275/814/814 271/815/815
f 271/815/815 275/814/814 276/816/816
f 273/817/817 277/818/818 274/819/819
f 274/819/819 277/818/818 275/820/820
f 273/821/821 272/822/822 277/823/823
f 277/823/823 272/822/822 278/824/824
f 271/825/825 276/826/826 272/827/827
f 272/827/827 276/826/826 278/828/828
f 278/829/829 276/830/830 277/831/831
f 277/831/831 276/830/830 275/832/832
g Cuerpo 10

v 0.550000 -0.050000 0.000000
v 0.550000 3.600000 0.000000
v 0.550000 3.600000 1.000000
v 0.550000 -0.050000 1.000000
v 3.300000 -0.050000 0.000000
v 3.300000 -0.050000 1.000000
v 3.300000 -0.100000 0.000000
v 3.300000 -0.100000 1.000000
v 0.500000 -0.100000 0.000000
v 0.500000 -0.100000 1.000000
v 0.500000 3.650000 0.000000
v 0.500000 3.650000 1.000000
v 3.800000 3.624074 0.000000
v 3.800000 3.624074 1.000000
v 3.800000 3.674265 0.000000
v 3.800000 3.674265 1.000000
vt 0.000000 0.000000 0.000000
vt 3.650000 0.000000 0.000000
vt 0.000000 1.000000 0.000000
vt 3.650000 1.000000 0.000000
vt 0.000000 0.000000 0.000000
vt 2.750000 0.000000 0.000000
vt 0.000000 1.000000 0.000000
vt 2.750000 1.000000 0.000000
vt 0.000000 0.000000 0.000000
vt 0.050000 0.000000 0.000000
vt 0.000000 1.000000 0.000000
vt 0.050000 1.000000 0.000000
vt 0.000000 0.000000 0.000000
vt 2.800000 0.000000 0.000000
vt 0.000000 1.000000 0.000000
vt 2.800000 1.000000 0.000000
vt 0.000000 0.000000 0.000000
vt 3.750000 0.000000 0.000000
vt 0.000000 1.000000 0.000000
vt 3.750000 1.000000 0.000000
vt 3.250089 1.000000 0.000000
vt 0.000000 1.000000 0.000000
vt 3.250089 0.000000 0.000000
vt 0.000000 0.000000 0.000000
vt 3.500000 1.799074 0.000000
vt 6.750000 1.775000 0.000000
vt 3.500000 1.849265 0.000000
vt 6.800000 1.825000 0.000000
vt 6.800000 -1.925000 0.000000
vt 6.750000 -1.875000 0.000000
vt 4.000000 -1.925000 0.000000
vt 4.000000 -1.875000 0.000000
vt 10.300279 0.000000 0.000000
vt 13.600368 0.000000 0.000000
vt 10.300279 1.000000 0.000000
vt 13.600368 1.000000 0.000000
vt -3.500000 1.799074 0.000000
vt -3.500000 1.849265 0.000000
vt -6.750000 1.775000 0.000000
vt -6.800000 1.825000 0.000000
vt -6.800000 -1.925000 0.000000
vt -6.750000 -1.875000 0.000000
vt -4.000000 -1.925000 0.000000
vt -4.000000 -1.875000 0.000000
vt -0.000000 2.625897 0.000000
vt -1.000000 2.625897 0.000000
vt -0.000000 2.575706 0.000000
vt -1.000000 2.575706 0.000000
vn 1.000000 0.000000 0.000000
vn 1.000000 0.000000 0.000000
vn 1.000000 0.000000 0.000000
vn 1.000000 0.000000 0.000000
vn 0.000000 1.000000 -0.000000
vn 0.000000 1.000000 -0.000000
vn 0.000000 1.000000 -0.000000
vn 0.000000 1.000000 -0.000000
vn 1.000000 0.000000 0.000000
vn 1.000000 0.000000 0.000000
vn 1.000000 0.000000 0.000000
vn 1.000000 0.000000 0.000000
vn 0.000000 -1.000000 0.000000
vn 0.000000 -1.000000 0.000000
vn 0.000000 -1.000000 0.000000
vn 0.000000 -1.000000 0.000000
vn -1.000000 0.000000 0.000000
vn -1.000000 0.000000 0.000000
vn -1.000000 0.000000 0.000000
vn -1.000000 0.000000 0.000000
vn 0.007407 -0.999973 0.000000
vn 0.007407 -0.999973 0.000000
vn 0.007407 -0.999973 0.000000
vn 0.007407 -0.999973 0.000000
vn -0.000000 0.000000 -1.000000
vn -0.000000 0.000000 -1.000000
vn -0.000000 0.000000 -1.000000
vn -0.000000 0.000000 -1.000000
vn -0.000000 0.000000 -1.000000
vn -0.000000 0.000000 -1.000000
vn -0.000000 0.000000 -1.000000
vn -0.000000 0.000000 -1.000000
vn -0.007353 0.999973 0.000000
vn -0.007353 0.999973 0.000000
vn -0.007353 0.999973 0.000000
vn -0.007353 0.999973 0.000000
vn 0.000000 0.000000 1.000000
vn 0.000000 0.000000 1.000000
vn 0.000000 0.000000 1.000000
vn 0.000000 0.000000 1.000000
vn 0.000000 0.000000 1.000000
vn 0.000000 0.000000 1.000000
vn 0.000000 0.000000 1.000000
vn 0.000000 0.000000 1.000000
vn 1.000000 -0.000000 -0.000000
vn 1.000000 -0.000000 -0.000000
vn 1.000000 -0.000000 -0.000000
vn 1.000000 -0.000000 -0.000000
f 279/833/833 280/834/834 282/835/835
f 282/835/835 280/834/834 281/836/836
f 283/837/837 279/838/838 284/839/839
f 284/839/839 279/838/838 282/840/840
f 285/841/841 283/842/842 286/843/843
f 286/843/843 283/842/842 284/844/844
f 287/845/845 285/846/846 288/847/847
f 288/847/847 285/846/846 286/848/848
f 289/849/849 287/850/850 290/851/851
f 290/851/851 287/850/850 288/852/852
f 292/853/853 281/854/854 291/855/855
f 291/855/855 281/854/854 280/856/856
f 291/857/857 280/858/858 293/859/859
f 293/859/859 280/858/858 289/860/860
f 289/860/860 280/858/858 287/861/861
f 287/861/861 280/858/858 279/862/862
f 287/861/861 279/862/862 285/863/863
f 285/863/863 279/862/862 283/864/864
f 293/865/865 289/866/866 294/867/867
f 294/867/867 289/866/866 290/868/868
f 292/869/869 294/870/870 281/871/871
f 281/871/871 294/870/870 290/872/872
f 281/871/871 290/872/872 288/873/873
f 281/871/871 288/873/873 282/874/874
f 282/874/874 288/873/873 286/875/875
f 282/874/874 286/875/875 284/876/876
f 293/877/877 294/878/878 291/879/879
f 291/879/879 294/878/878 292/880/880
g Cuerpo 11

v 6.200000 -0.100000 0.000000
v 6.550000 -0.100000 0.000000
v 6.550000 -0.100000 1.000000
v 6.200000 -0.100000 1.000000
v 6.200000 -0.050000 0.000000
v 6.200000 -0.050000 1.000000
v 6.600000 -0.050000 0.000000
v 6.600000 -0.050000 1.000000
v 6.600000 -0.900000 0.000000
v 6.600000 -0.900000 1.000000
v 5.500000 -0.900000 0.000000
v 5.500000 -0.900000 1.000000
v 5.500000 -0.850000 0.000000
v 5.500000 -0.850000 1.000000
v 6.550000 -0.850000 0.000000
v 6.550000 -0.850000 1.000000
vt 0.000000 0.000000 0.000000
vt 0.350000 0.000000 0.000000
vt 0.000000 1.000000 0.000000
vt 0.350000 1.000000 0.000000
vt -0.000000 0.000000 0.000000
vt 0.050000 0.000000 0.000000
vt -0.000000 1.000000 0.000000
vt 0.050000 1.000000 0.000000
vt -0.000000 0.000000 0.000000
vt 0.400000 0.000000 0.000000
vt -0.000000 1.000000 0.000000
vt 0.400000 1.000000 0.000000
vt 0.000000 0.000000 0.000000
vt 0.850000 0.000000 0.000000
vt 0.000000 1.000000 0.000000
vt 0.850000 1.000000 0.000000
vt 0.000000 0.000000 0.000000
vt 1.100000 0.000000 0.000000
vt 0.000000 1.000000 0.000000
vt 1.100000 1.000000 0.000000
vt 0.000000 0.000000 0.000000
vt 0.050000 0.000000 0.000000
vt 0.000000 1.000000 0.000000
vt 0.050000 1.000000 0.000000
vt 0.000000 0.000000 0.000000
vt 1.050000 0.000000 0.000000
vt 0.000000 1.000000 0.000000
vt 1.050000 1.000000 0.000000
vt 0.000000 0.000000 0.000000
vt 0.750000 0.000000 0.000000
vt 0.000000 1.000000 0.000000
vt 0.750000 1.000000 0.000000
vt 0.500000 -0.375000 0.000000
vt 0.550000 -0.425000 0.000000
vt 0.500000 0.375000 0.000000
vt 0.550000 0.425000 0.000000
vt 0.150000 0.425000 0.000000
vt -0.550000 -0.375000 0.000000
vt -0.550000 -0.425000 0.000000
vt 0.150000 0.375000 0.000000
vt -0.500000 0.375000 0.000000
vt -0.550000 -0.425000 0.000000
vt -0.500000 -0.375000 0.000000
vt 0.550000 -0.425000 0.000000
vt 0.550000 -0.375000 0.000000
vt -0.150000 0.375000 0.000000
vt -0.150000 0.425000 0.000000
vt -0.550000 0.425000 0.000000
vn 0.000000 -1.000000 0.000000
vn 0.000000 -1.000000 0.000000
vn 0.000000 -1.000000 0.000000
vn 0.000000 -1.000000 0.000000
vn -1.000000 0.000000 0.000000
vn -1.000000 0.000000 0.000000
vn -1.000000 0.000000 0.000000
vn -1.000000 0.000000 0.000000
vn 0.000000 1.000000 0.000000
vn 0.000000 1.000000 0.000000
vn 0.000000 1.000000 0.000000
vn 0.000000 1.000000 0.000000
vn 1.000000 0.000000 0.000000
vn 1.000000 0.000000 0.000000
vn 1.000000 0.000000 0.000000
vn 1.000000 0.000000 0.000000
vn 0.000000 -1.000000 0.000000
vn 0.000000 -1.000000 0.000000
vn 0.000000 -1.000000 0.000000
vn 0.000000 -1.000000 0.000000
vn -1.000000 0.000000 0.000000
vn -1.000000 0.000000 0.000000
vn -1.000000 0.000000 0.000000
vn -1.000000 0.000000 0.000000
vn -0.000000 1.000000 0.000000
vn -0.000000 1.000000 0.000000
vn -0.000000 1.000000 0.000000
vn -0.000000 1.000000 0.000000
vn -1.000000 0.000000 0.000000
vn -1.000000 0.000000 0.000000
vn -1.000000 0.000000 0.000000
vn -1.000000 0.000000 0.000000
vn 0.000000 0.000000 1.000000
vn 0.000000 0.000000 1.000000
vn 0.000000 0.000000 1.000000
vn 0.000000 0.000000 1.000000
vn 0.000000 0.000000 1.000000
vn 0.000000 0.000000 1.000000
vn 0.000000 0.000000 1.000000
vn 0.000000 0.000000 1.000000
vn -0.000000 -0.000000 -1.000000
vn -0.000000 -0.000000 -1.000000
vn -0.000000 -0.000000 -1.000000
vn -0.000000 -0.000000 -1.000000
vn -0.000000 -0.000000 -1.000000
vn -0.000000 -0.000000 -1.000000
vn -0.000000 -0.000000 -1.000000
vn -0.000000 -0.000000 -1.000000
f 295/881/881 296/882/882 298/883/883
f 298/883/883 296/882/882 297/884/884
f 299/885/885 295/886/886 300/887/887
f 300/887/887 295/886/886 298/888/888
f 301/889/889 299/890/890 302/891/891
f 302/891/891 299/890/890 300/892/892
f 303/893/893 301/894/894 304/895/895
f 304/895/895 301/894/894 302/896/896
f 305/897/897 303/898/898 306/899/899
f 306/899/899 303/898/898 304/900/900
f 307/901/901 305/902/902 308/903/903
f 308/903/903 305/902/902 306/904/904
f 309/905/905 307/906/906 310/907/907
f 310/907/907 307/906/906 308/908/908
f 296/909/909 309/910/910 297/911/911
f 297/911/911 309/910/910 310/912/912
f 310/913/913 304/914/914 297/915/915
f 297/915/915 304/914/914 302/916/916
f 297/915/915 302/916/916 300/917/917
f 308/918/918 306/919/919 310/913/913
f 310/913/913 306/919/919 304/914/914
f 300/917/917 298/920/920 297/915/915
f 296/921/921 303/922/922 309/923/923
f 309/923/923 303/922/922 305/924/924
f 309/923/923 305/924/924 307/925/925
f 295/926/926 299/927/927 296/921/921
f 296/921/921 299/927/927 301/928/928
f 296/921/921 301/928/928 303/922/922
g Cuerpo 12

v 14.050000 -0.050000 0.000000
v 14.050000 -0.450000 0.000000
v 14.050000 -0.450000 1.000000
v 14.050000 -0.050000 1.000000
v 14.100000 -0.050000 0.000000
v 14.100000 -0.050000 1.000000
v 7.650000 -0.450000 0.000000
v 7.650000 -0.450000 1.000000
v 8.380000 -0.450000 1.000000
v 8.400000 -0.450000 1.000000
v 14.100000 -0.500000 1.000000
v 14.100000 -0.500000 0.000000
v 7.600000 -0.500000 0.000000
v 7.600000 -0.500000 1.000000
v 7.650000 -0.050000 0.000000
v 7.650000 -0.050000 1.000000
v 7.600000 -0.050000 0.000000
v 7.600000 -0.050000 1.000000
vt 0.000000 0.000000 0.000000
vt 0.400000 0.000000 0.000000
vt 0.000000 1.000000 0.000000
vt 0.400000 1.000000 0.000000
vt 0.000000 0.000000 0.000000
vt 0.050000 0.000000 0.000000
vt 0.000000 1.000000 0.000000
vt 0.050000 1.000000 0.000000
vt 0.000000 1.000000 0.000000
vt 0.000000 0.000000 0.000000
vt 5.650000 1.000000 0.000000
vt 6.400000 0.000000 0.000000
vt 5.670000 1.000000 0.000000
vt 6.400000 1.000000 0.000000
vt 0.450000 1.000000 0.000000
vt 0.000000 1.000000 0.000000
vt 0.450000 0.000000 0.000000
vt 0.000000 0.000000 0.000000
vt 0.000000 0.000000 0.000000
vt 6.500000 0.000000 0.000000
vt 0.000000 1.000000 0.000000
vt 6.500000 1.000000 0.000000
vt 0.750001 0.200000 0.000000
vt -0.249999 0.200000 0.000000
vt 0.750001 -0.200000 0.000000
vt -0.249999 -0.200000 0.000000
vt -0.000000 0.000000 0.000000
vt 0.050000 0.000000 0.000000
vt -0.000000 1.000000 0.000000
vt 0.050000 1.000000 0.000000
vt 0.450000 1.000000 0.000000
vt 0.000000 1.000000 0.000000
vt 0.450000 0.000000 0.000000
vt 0.000000 0.000000 0.000000
vt -3.200000 0.225000 0.000000
vt -3.250000 0.225000 0.000000
vt -3.200000 -0.175000 0.000000
vt -3.250000 -0.225000 0.000000
vt -2.470000 -0.175000 0.000000
vt -2.450000 -0.175000 0.000000
vt 3.250000 -0.225000 0.000000
vt 3.200000 -0.175000 0.000000
vt 3.250000 0.225000 0.000000
vt 3.200000 0.225000 0.000000
vt 3.200000 0.225000 0.000000
vt 3.200000 -0.175000 0.000000
vt 3.250000 0.225000 0.000000
vt 3.250000 -0.225000 0.000000
vt -3.200000 -0.175000 0.000000
vt -3.250000 -0.225000 0.000000
vt -3.250000 0.225000 0.000000
vt -3.200000 0.225000 0.000000
vn -1.000000 0.000000 0.000000
vn -1.000000 0.000000 0.000000
vn -1.000000 0.000000 0.000000
vn -1.000000 0.000000 0.000000
vn 0.000000 1.000000 -0.000000
vn 0.000000 1.000000 -0.000000
vn 0.000000 1.000000 -0.000000
vn 0.000000 1.000000 -0.000000
vn 0.000000 1.000000 -0.000000
vn 0.000000 1.000000 -0.000000
vn 0.000000 1.000000 -0.000000
vn 0.000000 1.000000 -0.000000
vn 0.000000 1.000000 -0.000000
vn 0.000000 1.000000 -0.000000
vn 1.000000 0.000000 0.000000
vn 1.000000 0.000000 0.000000
vn 1.000000 0.000000 0.000000
vn 1.000000 0.000000 0.000000
vn 0.000000 -1.000000 0.000000
vn 0.000000 -1.000000 0.000000
vn 0.000000 -1.000000 0.000000
vn 0.000000 -1.000000 0.000000
vn 1.000000 -0.000000 -0.000000
vn 1.000000 -0.000000 -0.000000
vn 1.000000 -0.000000 -0.000000
vn 1.000000 -0.000000 -0.000000
vn 0.000000 1.000000 0.000000
vn 0.000000 1.000000 0.000000
vn 0.000000 1.000000 0.000000
vn 0.000000 1.000000 0.000000
vn -1.000000 0.000000 0.000000
vn -1.000000 0.000000 0.000000
vn -1.000000 0.000000 0.000000
vn -1.000000 0.000000 0.000000
vn 0.000000 0.000000 1.000000
vn 0.000000 0.000000 1.000000
vn 0.000000 0.000000 1.000000
vn 0.000000 0.000000 1.000000
vn 0.000000 0.000000 1.000000
vn 0.000000 0.000000 1.000000
vn 0.000000 0.000000 1.000000
vn 0.000000 0.000000 1.000000
vn 0.000000 0.000000 1.000000
vn 0.000000 0.000000 1.000000
vn -0.000000 0.000000 -1.000000
vn -0.000000 0.000000 -1.000000
vn -0.000000 0.000000 -1.000000
vn -0.000000 0.000000 -1.000000
vn -0.000000 0.000000 -1.000000
vn -0.000000 0.000000 -1.000000
vn -0.000000 0.000000 -1.000000
vn -0.000000 0.000000 -1.000000
f 311/929/929 312/930/930 314/931/931
f 314/931/931 312/930/930 313/932/932
f 315/933/933 311/934/934 316/935/935
f 316/935/935 311/934/934 314/936/936
f 313/937/937 312/938/938 320/939/939
f 320/939/939 312/938/938 317/940/940
f 320/939/939 317/940/940 319/941/941
f 319/941/941 317/940/940 318/942/942
f 316/943/943 321/944/944 315/945/945
f 315/945/945 321/944/944 322/946/946
f 323/947/947 322/948/948 324/949/949
f 324/949/949 322/948/948 321/950/950
f 325/951/951 326/952/952 317/953/953
f 317/953/953 326/952/952 318/954/954
f 325/955/955 327/956/956 326/957/957
f 326/957/957 327/956/956 328/958/958
f 324/959/959 328/960/960 323/961/961
f 323/961/961 328/960/960 327/962/962
f 326/963/963 328/964/964 318/965/965
f 318/965/965 328/964/964 324/966/966
f 318/965/965 324/966/966 319/967/967
f 319/967/967 324/966/966 320/968/968
f 320/968/968 324/966/966 321/969/969
f 320/968/968 321/969/969 313/970/970
f 313/970/970 321/969/969 316/971/971
f 313/970/970 316/971/971 314/972/972
f 325/973/973 317/974/974 327/975/975
f 327/975/975 317/974/974 323/976/976
f 323/976/976 317/974/974 312/977/977
f 323/976/976 312/977/977 322/978/978
f 322/978/978 312/977/977 315/979/979
f 315/979/979 312/977/977 311/980/980
g Cuerpo 13

v 5.800000 3.688971 1.000000
v 5.800000 3.688971 0.000000
v 5.800000 3.638889 0.000000
v 5.800000 3.638889 1.000000
v 14.050000 3.700000 1.000000
v 14.050000 3.400000 1.000000
v 14.100000 3.400000 1.000000
v 14.100000 3.750000 1.000000
v 14.050000 3.700000 0.000000
v 14.100000 3.750000 0.000000
v 14.100000 3.400000 0.000000
v 14.050000 3.400000 0.000000
vt -0.300000 2.638971 0.000000
vt -1.300000 2.638971 0.000000
vt -0.300000 2.588889 0.000000
vt -1.300000 2.588889 0.000000
vt -1.500000 1.813889 0.000000
vt 6.750000 1.875000 0.000000
vt -1.500000 1.863971 0.000000
vt 6.800000 1.925000 0.000000
vt 6.800000 1.575000 0.000000
vt 6.750000 1.575000 0.000000
vt 5.250144 0.000000 0.000000
vt 13.500371 0.000000 0.000000
vt 5.250144 1.000000 0.000000
vt 13.500371 1.000000 0.000000
vt 8.300224 1.000000 0.000000
vt -0.000000 1.000000 0.000000
vt 8.300224 0.000000 0.000000
vt -0.000000 0.000000 0.000000
vt 0.000000 0.000000 0.000000
vt 0.350000 0.000000 0.000000
vt 0.000000 1.000000 0.000000
vt 0.350000 1.000000 0.000000
vt 0.000000 0.000000 0.000000
vt 0.050000 0.000000 0.000000
vt 0.000000 1.000000 0.000000
vt 0.050000 1.000000 0.000000
vt -0.000000 0.000000 0.000000
vt 0.300000 0.000000 0.000000
vt -0.000000 1.000000 0.000000
vt 0.300000 1.000000 0.000000
vt 1.500000 1.813889 0.000000
vt 1.500000 1.863971 0.000000
vt -6.750000 1.875000 0.000000
vt -6.800000 1.925000 0.000000
vt -6.800000 1.575000 0.000000
vt -6.750000 1.575000 0.000000
vn -1.000000 0.000000 -0.000000
vn -1.000000 0.000000 -0.000000
vn -1.000000 0.000000 -0.000000
vn -1.000000 0.000000 -0.000000
vn 0.000000 0.000000 1.000000
vn 0.000000 0.000000 1.000000
vn 0.000000 0.000000 1.000000
vn 0.000000 0.000000 1.000000
vn 0.000000 0.000000 1.000000
vn 0.000000 0.000000 1.000000
vn 0.007407 -0.999973 0.000000
vn 0.007407 -0.999973 0.000000
vn 0.007407 -0.999973 0.000000
vn 0.007407 -0.999973 0.000000
vn -0.007353 0.999973 0.000000
vn -0.007353 0.999973 0.000000
vn -0.007353 0.999973 0.000000
vn -0.007353 0.999973 0.000000
vn 1.000000 0.000000 -0.000000
vn 1.000000 0.000000 -0.000000
vn 1.000000 0.000000 -0.000000
vn 1.000000 0.000000 -0.000000
vn 0.000000 -1.000000 0.000000
vn 0.000000 -1.000000 0.000000
vn 0.000000 -1.000000 0.000000
vn 0.000000 -1.000000 0.000000
vn -1.000000 0.000000 0.000000
vn -1.000000 0.000000 0.000000
vn -1.000000 0.000000 0.000000
vn -1.000000 0.000000 0.000000
vn -0.000000 0.000000 -1.000000
vn -0.000000 0.000000 -1.000000
vn -0.000000 0.000000 -1.000000
vn -0.000000 0.000000 -1.000000
vn -0.000000 0.000000 -1.000000
vn -0.000000 0.000000 -1.000000
f 329/981/981 330/982/982 332/983/983
f 332/983/983 330/982/982 331/984/984
f 332/985/985 333/986/986 329/987/987
f 329/987/987 333/986/986 336/988/988
f 336/988/988 333/986/986 335/989/989
f 335/989/989 333/986/986 334/990/990
f 331/991/991 337/992/992 332/993/993
f 332/993/993 337/992/992 333/994/994
f 329/995/995 336/996/996 330/997/997
f 330/997/997 336/996/996 338/998/998
f 339/999/999 338/1000/1000 335/1001/1001
f 335/1001/1001 338/1000/1000 336/1002/1002
f 340/1003/1003 339/1004/1004 334/1005/1005
f 334/1005/1005 339/1004/1004 335/1006/1006
f 337/1007/1007 340/1008/1008 333/1009/1009
f 333/1009/1009 340/1008/1008 334/1010/1010
f 331/1011/1011 330/1012/1012 337/1013/1013
f 337/1013/1013 330/1012/1012 338/1014/1014
f 337/1013/1013 338/1014/1014 339/1015/1015
f 339/1015/1015 340/1016/1016 337/1013/1013
# 340 vertices
# 1016 texture params
# 1016 normals
# 624 facets

# 14 groups
